<?xml version="1.0" encoding="utf-8"?>
<!-- Generator: Adobe Illustrator 19.1.0, SVG Export Plug-In . SVG Version: 6.00 Build 0)  -->
<svg version="1.1" id="Layer_1" xmlns="http://www.w3.org/2000/svg" xmlns:xlink="http://www.w3.org/1999/xlink" x="0px" y="0px"
	 viewBox="-69 0 200 40" style="enable-background:new -69 0 200 40;" xml:space="preserve">
<style type="text/css">
	.st0{fill:#EB1A3F;}
	.st1{fill:#FFFFFF;}
</style>
<g>
	<path class="st0" d="M2.4,35l-2.1-6.7c1.3-2.4,2-5.1,2-8c0-9.4-7.6-17.1-17.1-17.1c-9.4,0-17.1,7.6-17.1,17.1
		c0,9.4,7.6,17.1,17.1,17.1c3.7,0,7.2-1.2,10-3.2L2.4,35z"/>
	<path d="M-14.8,38.7c-10.2,0-18.4-8.3-18.4-18.4s8.3-18.5,18.4-18.5S3.6,10.1,3.6,20.2c0,2.8-0.7,5.6-1.9,8.2l2.6,8.2l-8.8-1.1
		C-7.5,37.6-11,38.7-14.8,38.7 M-14.8,4.6c-8.7,0-15.7,7-15.7,15.7s7,15.7,15.7,15.7c3.3,0,6.5-1,9.2-3l0.4-0.3l5.6,0.7l-1.7-5.2
		l0.3-0.5c1.2-2.3,1.8-4.8,1.8-7.4C0.9,11.6-6.1,4.6-14.8,4.6"/>
	<g>
		<path d="M8.4,2.1c1.4-0.2,3.2-0.3,5.1-0.3c3.2,0,5.2,0.6,6.8,1.8c1.7,1.3,2.8,3.3,2.8,6.3c0,3.2-1.2,5.4-2.8,6.7
			c-1.8,1.5-4.4,2.2-7.7,2.2c-2,0-3.3-0.1-4.3-0.2V2.1H8.4z M12.2,15.7c0.3,0.1,0.8,0.1,1.3,0.1c3.4,0,5.6-1.9,5.6-5.8
			c0-3.5-2-5.3-5.2-5.3c-0.8,0-1.4,0.1-1.7,0.1C12.2,4.8,12.2,15.7,12.2,15.7z"/>
		<path d="M28.6,3.1c0,1-0.8,1.9-2,1.9s-2-0.8-2-1.9s0.8-1.9,2-1.9C27.9,1.2,28.6,2,28.6,3.1z M24.8,18.6V6.5h3.8v12.1H24.8z"/>
		<path d="M30.7,15.3c0.7,0.4,2.1,0.9,3.2,0.9s1.6-0.4,1.6-1s-0.4-0.9-1.8-1.4c-2.5-0.8-3.5-2.2-3.4-3.6c0-2.3,1.9-4,4.9-4
			c1.4,0,2.7,0.3,3.4,0.7L38,9.5c-0.5-0.3-1.6-0.7-2.6-0.7c-0.9,0-1.4,0.4-1.4,1s0.5,0.9,2,1.4c2.3,0.8,3.3,2,3.3,3.7
			c0,2.2-1.8,3.9-5.2,3.9c-1.6,0-3-0.3-3.9-0.8L30.7,15.3z"/>
		<path d="M49.7,18.3c-0.7,0.3-1.9,0.5-3.4,0.5c-3.9,0-6.4-2.4-6.4-6.2c0-3.5,2.4-6.4,6.9-6.4c1,0,2.1,0.2,2.9,0.5l-0.6,2.8
			C48.6,9.3,48,9.1,47,9.1c-2,0-3.3,1.4-3.2,3.4c0,2.2,1.5,3.4,3.3,3.4c0.9,0,1.6-0.1,2.2-0.4L49.7,18.3z"/>
		<path d="M62.3,14.7c0,1.6,0,2.9,0.1,3.9h-3.3L59,16.8h-0.1c-0.5,0.7-1.6,2-3.8,2c-2.4,0-4.3-1.5-4.3-5.3v-7h3.8V13
			c0,1.8,0.6,2.8,1.9,2.8c1,0,1.6-0.7,1.9-1.3c0.1-0.2,0.1-0.5,0.1-0.8V6.5h3.8V14.7z"/>
		<path d="M64.4,1h3.8v17.6h-3.8V1z"/>
		<path d="M70.4,10.5c0-1.6,0-2.9-0.1-4.1h3.3l0.2,1.7l0,0c0.9-1.3,2.3-2,4-2c2.6,0,5,2.3,5,6.2c0,4.4-2.8,6.5-5.5,6.5
			c-1.5,0-2.6-0.6-3.1-1.4l0,0v6h-3.8V10.5z M74.1,13.4c0,0.3,0,0.6,0.1,0.8c0.2,1,1.1,1.8,2.2,1.8c1.6,0,2.6-1.4,2.6-3.4
			c0-1.9-0.9-3.4-2.5-3.4c-1.1,0-2,0.8-2.2,1.9c0,0.2-0.1,0.4-0.1,0.7L74.1,13.4L74.1,13.4z"/>
		<path d="M87.3,13.7c0.1,1.6,1.7,2.3,3.4,2.3c1.3,0,2.3-0.2,3.3-0.5l0.5,2.5c-1.2,0.5-2.7,0.7-4.4,0.7c-4.1,0-6.5-2.4-6.5-6.2
			c0-3.1,1.9-6.5,6.1-6.5c3.9,0,5.4,3,5.4,6c0,0.6-0.1,1.2-0.1,1.5h-7.7V13.7z M91.7,11.1c0-0.9-0.4-2.4-2.1-2.4
			c-1.6,0-2.2,1.4-2.3,2.4H91.7z"/>
	</g>
	<g>
		<path class="st0" d="M8.4,22.3c1.4-0.2,3.2-0.3,5.1-0.3c3.2,0,5.2,0.6,6.8,1.8c1.7,1.3,2.8,3.3,2.8,6.3c0,3.2-1.2,5.4-2.8,6.7
			c-1.8,1.5-4.4,2.2-7.7,2.2c-2,0-3.3-0.1-4.3-0.2V22.3H8.4z M12.2,35.9C12.5,36,13,36,13.5,36c3.4,0,5.6-1.9,5.6-5.8
			c0-3.5-2-5.3-5.2-5.3c-0.8,0-1.4,0.1-1.7,0.1C12.2,25,12.2,35.9,12.2,35.9z"/>
		<path class="st0" d="M36.6,32.5c0,4.4-3.1,6.5-6.4,6.5c-3.5,0-6.3-2.3-6.3-6.2s2.6-6.4,6.5-6.4C34.1,26.4,36.6,28.9,36.6,32.5z
			 M27.8,32.7c0,2.1,0.9,3.6,2.5,3.6c1.5,0,2.4-1.5,2.4-3.6c0-1.8-0.7-3.6-2.4-3.6C28.5,29,27.8,30.9,27.8,32.7z"/>
		<path class="st0" d="M47.2,38.4c-0.7,0.3-1.9,0.5-3.4,0.5c-3.9,0-6.4-2.4-6.4-6.2c0-3.5,2.4-6.4,6.9-6.4c1,0,2.1,0.2,2.9,0.5
			l-0.6,2.8c-0.4-0.2-1.1-0.4-2.1-0.4c-2,0-3.3,1.4-3.2,3.4c0,2.2,1.5,3.4,3.3,3.4c0.9,0,1.6-0.1,2.2-0.4L47.2,38.4z"/>
		<path class="st0" d="M53,23.2v3.5h2.7v2.8H53v4.4c0,1.5,0.3,2.1,1.5,2.1c0.5,0,0.8,0,1.1-0.1v2.8c-0.5,0.2-1.4,0.3-2.4,0.3
			c-1.2,0-2.2-0.4-2.8-1c-0.7-0.7-1-1.9-1-3.6v-4.9h-1.6v-2.8h1.6V24L53,23.2z"/>
		<path class="st0" d="M68.9,32.5c0,4.4-3.1,6.5-6.4,6.5c-3.5,0-6.3-2.3-6.3-6.2s2.6-6.4,6.5-6.4C66.4,26.4,68.9,28.9,68.9,32.5z
			 M60.1,32.7c0,2.1,0.9,3.6,2.5,3.6c1.5,0,2.4-1.5,2.4-3.6c0-1.8-0.7-3.6-2.4-3.6C60.8,29,60.1,30.9,60.1,32.7z"/>
		<path class="st0" d="M70.4,30.6c0-1.8,0-2.9-0.1-4h3.2l0.1,2.2h0.1c0.6-1.8,2.1-2.5,3.3-2.5c0.3,0,0.5,0,0.8,0V30
			c-0.3,0-0.6-0.1-1-0.1c-1.4,0-2.3,0.7-2.6,1.9c0,0.2-0.1,0.5-0.1,0.8v6.1h-3.8L70.4,30.6L70.4,30.6z"/>
	</g>
	<polygon class="st1" points="-5.8,17.7 -11.4,17.7 -11.4,11.7 -11.4,11.7 -17.4,11.7 -17.4,11.7 -17.4,17.7 -23,17.7 -23.3,17.7 
		-23.3,23.2 -17.4,23.2 -17.4,28.8 -17.4,28.8 -11.4,28.8 -11.4,28.8 -11.4,23.2 -6.4,23.2 -5.8,23.2 	"/>
</g>
</svg>
