<?xml version="1.0" encoding="utf-8"?>
<!-- Generator: Adobe Illustrator 19.1.0, SVG Export Plug-In . SVG Version: 6.00 Build 0)  -->
<svg version="1.1" id="Layer_1" xmlns="http://www.w3.org/2000/svg" xmlns:xlink="http://www.w3.org/1999/xlink" x="0px" y="0px"
	 viewBox="-17 19 28 28" style="enable-background:new -17 19 28 28;" xml:space="preserve">
<style type="text/css">
	.st0{fill:#FFFFFF;}
	.st1{fill:#8DC63F;}
	.st2{fill:#808C90;}
	.st3{fill:#001822;}
</style>
<path class="st0" d="M1,28.3c-0.8-0.6-7-0.9-8,0s-2.6,5.8-2.9,7.1s1.1,1.8,3.8,1.8s4.8,0,6.2,0s4,0.2,3.9-1.8
	C3.3,33.3,1.8,28.9,1,28.3z"/>
<g>
	<path class="st1" d="M4.4,24.5l-3.2,2.9c2.3,1.4,3.8,4,3.8,6.9c0,1-0.2,1.9-0.5,2.7H2.2v3.4C0.8,41.6-1,42.3-3,42.3s-3.9-0.7-5.3-2
		V37h-2.3c-0.3-0.9-0.4-1.8-0.4-2.7c0-4.1,3-7.4,7-8v1.4h1L0.8,24l-4.9-4.5V22c-6.2,0.6-11.1,5.8-11.1,12.3
		c0,6.7,5.4,12.2,12.2,12.2S9.2,41,9.2,34.3C9.2,30.2,7.3,26.7,4.4,24.5z"/>
	<g>
		<g>
			<circle class="st2" cx="-3" cy="32.5" r="1.6"/>
			<circle class="st2" cx="-3" cy="29.7" r="1.1"/>
		</g>
		<g>
			<circle class="st3" cx="-5.8" cy="29.7" r="1.1"/>
			<circle class="st3" cx="-0.2" cy="29.7" r="1.1"/>
			<path class="st3" d="M3.7,33L3.7,33l-1.4-3.2C2.1,29.3,1.8,28.4,1,28c-0.6-0.3-2.6-0.5-4-0.5s-3.4,0.1-4,0.5
				c-0.8,0.4-1.1,1.4-1.3,1.8L-9.7,33l0,0c-0.8,0.5-1.3,1.5-1.3,2.6c0,0.7,0.2,1.6,0.9,2.2c0.1,0.1,0.2,0.2,0.4,0.3
				c0,0.8,0,1.7,0,1.9c0,0.4,0.7,1,1.4,1s1.4-0.6,1.4-1c0-0.1,0-0.5,0-0.9c1.6,0.3,3.2,0.2,3.8,0.2s2.2,0,3.8-0.2c0,0.4,0,0.8,0,0.9
				c0,0.4,0.7,1,1.4,1c0.7,0,1.4-0.6,1.4-1c0-0.3,0-1.2,0-1.9c0.1-0.1,0.3-0.2,0.4-0.3c0.7-0.7,0.9-1.6,0.9-2.2
				C5,34.5,4.5,33.5,3.7,33z M-8.2,36.9c-0.7,0-1.3-0.6-1.3-1.3c0-0.7,0.6-1.3,1.3-1.3s1.3,0.6,1.3,1.3C-6.9,36.3-7.5,36.9-8.2,36.9
				z M-0.2,31c-0.6,0-1.1,0.3-1.4,0.8c-0.4,0-0.9,0-1.4,0s-0.9,0-1.4,0C-4.7,31.3-5.2,31-5.8,31c-0.7,0-1.3,0.5-1.5,1.1
				c-0.4,0.1-0.7,0.2-1,0.3c0.2-1.2,0.8-3,1.2-3.5c0.6-0.7,2.9-0.8,4.1-0.8s3.5,0.1,4.1,0.8c0.4,0.5,0.9,2.3,1.2,3.5
				c-0.3-0.1-0.7-0.2-1-0.3C1.1,31.5,0.5,31-0.2,31z M2.3,36.9c-0.7,0-1.3-0.6-1.3-1.3c0-0.7,0.6-1.3,1.3-1.3c0.7,0,1.3,0.6,1.3,1.3
				C3.6,36.3,3,36.9,2.3,36.9z"/>
		</g>
	</g>
</g>
</svg>
