<?xml version="1.0" encoding="utf-8"?>
<!-- Generator: Adobe Illustrator 19.1.0, SVG Export Plug-In . SVG Version: 6.00 Build 0)  -->
<svg version="1.1" id="Layer_1" xmlns="http://www.w3.org/2000/svg" xmlns:xlink="http://www.w3.org/1999/xlink" x="0px" y="0px"
	 viewBox="0 0 28 28" style="enable-background:new 0 0 28 28;" xml:space="preserve">
<style type="text/css">
	.st0{fill:#FFFFFF;}
	.st1{fill:url(#SVGID_1_);}
</style>
<circle class="st0" cx="14.1" cy="14.1" r="12.9"/>
<g>
	<g>
		
			<linearGradient id="SVGID_1_" gradientUnits="userSpaceOnUse" x1="14.1" y1="0.4432" x2="14.1" y2="27.4432" gradientTransform="matrix(1 0 0 -1 0 28)">
			<stop  offset="0" style="stop-color:#F4A036"/>
			<stop  offset="1" style="stop-color:#FCB813"/>
		</linearGradient>
		<path class="st1" d="M14.1,27.6c-7.4,0-13.5-6.1-13.5-13.5S6.7,0.6,14.1,0.6s13.5,6.1,13.5,13.5S21.5,27.6,14.1,27.6z M14.1,1.6
			C7.2,1.6,1.6,7.2,1.6,14.1s5.6,12.5,12.5,12.5S26.6,21,26.6,14.1C26.5,7.2,20.9,1.6,14.1,1.6z"/>
	</g>
	<path d="M20.4,7c0-0.7-0.6-1.3-1.3-1.3H9C8.3,5.8,7.8,6.3,7.8,7l-0.7,5.7v5.7c0,0.7,0.6,1.3,1.3,1.3l0,0v1.7c0,0.5,0.4,1,1,1H10
		c0.5,0,1-0.4,1-1v-1.7h6.1v1.7c0,0.5,0.4,1,1,1h0.7c0.5,0,1-0.4,1-1v-1.7l0,0c0.7,0,1.3-0.6,1.3-1.3v-5.7L20.4,7z M9.7,6.4h8.7
		c0.4,0,0.7,0.3,0.7,0.7c0,0.4-0.3,0.7-0.7,0.7H9.7C9.4,7.7,9,7.4,9,7.1C9,6.7,9.4,6.4,9.7,6.4z M9.5,18.2c-0.6,0-1.1-0.5-1.1-1.1
		S8.9,16,9.5,16s1.1,0.5,1.1,1.1S10.1,18.2,9.5,18.2z M13.4,13.7h-5V9.3c0-0.5,0.4-0.9,0.9-0.9h4.1V13.7z M14.7,13.7V8.4h4.1
		c0.5,0,0.9,0.4,0.9,0.9v4.4C19.7,13.7,14.7,13.7,14.7,13.7z M18.6,18.2c-0.6,0-1.1-0.5-1.1-1.1S18,16,18.6,16s1.1,0.5,1.1,1.1
		S19.2,18.2,18.6,18.2z"/>
</g>
</svg>
