<?xml version="1.0" encoding="utf-8"?>
<!-- Generator: Adobe Illustrator 19.1.0, SVG Export Plug-In . SVG Version: 6.00 Build 0)  -->
<svg version="1.1" id="Layer_1" xmlns="http://www.w3.org/2000/svg" xmlns:xlink="http://www.w3.org/1999/xlink" x="0px" y="0px"
	 viewBox="0 0 28 28" style="enable-background:new 0 0 28 28;" xml:space="preserve">
<style type="text/css">
	.st0{fill:#EB1A3F;}
	.st1{fill:#FFFFFF;}
</style>
<g>
	<path class="st0" d="M26,24.6l-1.5-4.8c0.9-1.7,1.4-3.7,1.4-5.8c0-6.8-5.5-12.2-12.2-12.2C6.9,1.8,1.4,7.2,1.4,14
		c0,6.8,5.5,12.2,12.2,12.2c2.7,0,5.2-0.9,7.2-2.3L26,24.6z"/>
	<path d="M13.7,27.2C6.4,27.2,0.5,21.3,0.5,14S6.4,0.8,13.7,0.8S27,6.7,27,14c0,2-0.5,4-1.4,5.8l1.9,5.9L21.2,25
		C19,26.4,16.4,27.2,13.7,27.2 M13.7,2.7C7.5,2.7,2.5,7.8,2.5,14c0,6.2,5.1,11.3,11.3,11.3c2.4,0,4.7-0.7,6.6-2.1l0.3-0.2l4,0.5
		l-1.2-3.7l0.2-0.4c0.9-1.6,1.3-3.4,1.3-5.3C25,7.8,19.9,2.7,13.7,2.7"/>
	<polygon class="st1" points="20.1,12.1 16.1,12.1 16.1,7.9 16.1,7.9 11.9,7.9 11.9,7.9 11.9,12.1 7.8,12.1 7.6,12.1 7.6,16.1 
		11.9,16.1 11.9,20.1 11.9,20.1 16.1,20.1 16.1,20.1 16.1,16.1 19.7,16.1 20.1,16.1 	"/>
</g>
</svg>
