<?xml version="1.0" encoding="utf-8"?>
<!-- Generator: Adobe Illustrator 19.1.0, SVG Export Plug-In . SVG Version: 6.00 Build 0)  -->
<svg version="1.1" id="Layer_1" xmlns="http://www.w3.org/2000/svg" xmlns:xlink="http://www.w3.org/1999/xlink" x="0px" y="0px"
	 viewBox="0 0 28 28" style="enable-background:new 0 0 28 28;" xml:space="preserve">
<style type="text/css">
	.st0{fill:#334999;stroke:#334999;stroke-width:0.3325;stroke-miterlimit:3.8637;}
	.st1{fill:#FFFFFF;}
</style>
<g>
	<path class="st0" d="M2.8,7.1c0.3-1.7,1.8-3,3.4-3H25c1.6,0,2.7,1.4,2.4,3L25.2,21c-0.3,1.7-1.8,3-3.4,3H3c-1.6,0-2.7-1.4-2.4-3
		L2.8,7.1z"/>
	<path class="st1" d="M17.1,6.1c-0.2,1.3,0.7,2.3,2,2.2c0.1,0,0.3,0,0.4-0.1v2.6c-1.5,0.7-2.7,2.2-2.9,3.9c0,0.1,0,0.2,0,0.3
		l-3.9,1.1c-0.9-0.9-2.2-1.4-3.7-1.2C6,15.2,3.2,18,2.8,21c-0.2,1.2,0.1,2.2,0.6,3h8c1.2-1.1,2.1-2.6,2.3-4.2c0-0.4,0.1-0.7,0-1
		l3.2-2c0.5,1,1.6,1.5,2.9,1.4c2.1-0.2,4-2.2,4.3-4.3c0.3-2.1-1.1-3.6-3.1-3.5l-0.8-2.6c0.8-0.5,1.4-1.3,1.5-2.3
		c0.1-0.6-0.1-1.1-0.3-1.5h-3.2C17.6,4.5,17.2,5.3,17.1,6.1z"/>
</g>
</svg>
