<?xml version="1.0" encoding="utf-8"?>
<!-- Generator: Adobe Illustrator 19.2.1, SVG Export Plug-In . SVG Version: 6.00 Build 0)  -->
<svg version="1.1" id="Layer_1" xmlns="http://www.w3.org/2000/svg" xmlns:xlink="http://www.w3.org/1999/xlink" x="0px" y="0px"
	 viewBox="0 0 142 40" style="enable-background:new 0 0 142 40;" xml:space="preserve">
<style type="text/css">
	.st0{fill:#006F8F;}
</style>
<g>
	<g>
		<path class="st0" d="M14.8,11c-2.9,0-6.4,5.6-6.4,5.6s0.2-1.3,0.4-2.9c0.3-1.6-3.7-2.8-3.7-2.8C5,14.1,2.2,23.4,2.3,25.7
			c0.2,2.3,4.5,3.4,4.5,3.4c-0.3-7.2,3.3-12.8,5.7-14s1.4,1.6,2.6,1.4C16.5,16.4,17.7,11,14.8,11z"/>
		<path class="st0" d="M21,8.9c1.3,0.4,2.8-0.5,3.3-2s-0.2-3-1.5-3.4S20,4,19.5,5.5S19.7,8.6,21,8.9z"/>
		<path class="st0" d="M54.1,15.7c1-6.8-7.8-5.9-11.6,0c-2,3.1-3,6.9-2.3,9.7c-0.5,0.4-1,0.6-1.5,0.7c-2.3,0.2-0.9-4.1-0.6-5.7
			c0.3-1.6,3.5-16.1,3.2-17.1S39.2,1,37.5,0.8c0,0-1.5,9.2-2.1,10.1c0,0-3.9-0.7-7.6,2.2c-3.5,2.8-6.2,8.4-5.3,12.2
			c-0.9,0.6-1.6,0.8-2.1,0.4c-0.9-0.7,1.6-9.6,2-11.8s-4.1-3.3-4.1-3.3c0.1,0.7-1,5.3-2.5,10s-0.2,6.8,2,7.9c1.9,1,3.9,0.3,5.7-1.1
			c2.1,2.4,6.5,2.2,9.3-1.9c0,0,1.9,3.5,4.8,3.5c1.3,0,2.6-0.6,3.6-1.4C42,28.5,43.3,29,45,29c6.5-0.2,8-4.4,8.1-5.2
			c0.1-0.8-0.7-0.3-0.7-0.3c-8.1,6.4-7.5-1.7-7.5-1.7S53.1,22.2,54.1,15.7z M48.1,13.9c1.7-1.9,3.8-0.3,2.6,2.1
			c-1.3,2.7-3.7,4.1-5.4,4.4C45.3,20.4,46.3,15.9,48.1,13.9z M34.3,15.1c-1.7,9.4-6.9,14.3-6.9,9.1c-0.1-5.2,3.3-10.9,5.3-11.1
			C34.6,12.8,34.3,15.1,34.3,15.1z"/>
	</g>
	<path class="st0" d="M64.3,11.2c-5.1-0.4-8.1,1.1-9.2,4.1c-0.9,2.4,1.2,5.2,2.5,6.8c0.9,1.2,4.8,7.7-9.2,13.5
		c-0.8,0.3-1.9,0.6-2.2,0.7c0.6,0.2,1.9,0.6,3.3,1c1.2-0.5,2.5-1.2,3.7-1.9l0,0l1.3,0.4c-0.9,0.7-1.9,1.4-3.1,2.1c0,0,1.9,0.6,3.2,1
		c3.2-2.5,7.4-6.1,9.5-9.5c2-3.6,0.5-6.6,0-7.5c-1.7-2.6-4.4-5.2-4-7.2c0.6-2.6,5.5-2.5,4.6,2.3c0,0,0.7,1.3,1.4,0.5
		C66.9,17,69.4,11.6,64.3,11.2z M55.9,34.9l-1.1-0.3l0,0c1-0.7,1.9-1.4,2.8-2.2l0,0l0.9,0.1C57.8,33.3,57,34.1,55.9,34.9z
		 M60.7,29.7c-0.2,0.4-0.6,1-1.3,1.9l-0.8-0.1l0,0c0.5-0.6,1.1-1.2,1.5-1.8H60.7z"/>
</g>
</svg>
