<?xml version="1.0" encoding="utf-8"?>
<!-- Generator: Adobe Illustrator 19.2.0, SVG Export Plug-In . SVG Version: 6.00 Build 0)  -->
<svg version="1.1" id="Layer_1" xmlns="http://www.w3.org/2000/svg" xmlns:xlink="http://www.w3.org/1999/xlink" x="0px" y="0px"
	 viewBox="0 0 200 40" style="enable-background:new 0 0 200 40;" xml:space="preserve">
<style type="text/css">
	.st0{fill:#FFFFFF;}
</style>
<g id="Color-logo">
	<g>
		<g>
			<path class="st0" d="M18.3,37.8c-9.7,0-17.6-7.9-17.6-17.6S8.6,2.6,18.3,2.6s17.6,7.9,17.6,17.6S28,37.8,18.3,37.8z M18.3,4
				c-9,0-16.2,7.3-16.2,16.2c0,9,7.3,16.2,16.2,16.2s16.2-7.3,16.2-16.2C34.6,11.2,27.3,4,18.3,4z"/>
		</g>
		<path class="st0" d="M26.5,11c0-0.9-0.7-1.6-1.6-1.6H11.7c-0.9,0-1.6,0.7-1.6,1.6l-0.9,7.5V26c0,0.9,0.7,1.6,1.6,1.6l0,0v2.2
			c0,0.7,0.6,1.3,1.3,1.3H13c0.7,0,1.3-0.6,1.3-1.3v-2.2h7.9v2.2c0,0.7,0.6,1.3,1.3,1.3h0.9c0.7,0,1.3-0.6,1.3-1.3v-2.2l0,0
			c0.9,0,1.6-0.7,1.6-1.6v-7.5L26.5,11z M12.7,10.2H24c0.5,0,0.9,0.4,0.9,0.9S24.5,12,24,12H12.7c-0.5,0-0.9-0.4-0.9-0.9
			C11.8,10.6,12.2,10.2,12.7,10.2z M12.4,25.7c-0.8,0-1.5-0.7-1.5-1.5s0.7-1.5,1.5-1.5s1.5,0.7,1.5,1.5S13.2,25.7,12.4,25.7z
			 M17.4,19.7H11v-5.8c0-0.6,0.5-1.1,1.1-1.1h5.3C17.4,12.8,17.4,19.7,17.4,19.7z M19.2,19.7v-6.9h5.4c0.6,0,1.1,0.5,1.1,1.1v5.8
			H19.2z M24.2,25.7c-0.8,0-1.5-0.7-1.5-1.5s0.7-1.5,1.5-1.5s1.5,0.7,1.5,1.5S25.1,25.7,24.2,25.7z"/>
	</g>
	<g>
		<path class="st0" d="M58.5,7.1c1.2,0,2.2,0.2,3.1,0.6c0.9,0.4,1.7,0.9,2.4,1.5c0.7,0.7,1.2,1.4,1.5,2.3c0.3,0.9,0.5,1.8,0.5,2.8
			c0,1.5-0.3,2.8-1,3.9c-0.6,1.1-1.7,2-3.1,2.5v0.1c0.7,0.2,1.3,0.5,1.7,0.9c0.5,0.4,0.8,0.9,1.1,1.4s0.5,1.1,0.6,1.8
			c0.1,0.7,0.2,1.3,0.3,2c0,0.4,0,0.9,0.1,1.4c0,0.6,0.1,1.1,0.1,1.7c0.1,0.6,0.2,1.1,0.3,1.6c0.1,0.5,0.3,1,0.6,1.3H61
			c-0.3-0.8-0.5-1.8-0.6-2.9s-0.2-2.2-0.3-3.3c-0.2-1.3-0.6-2.3-1.2-3c-0.6-0.6-1.7-0.9-3.1-0.9h-5.7v10.1h-5.7V7.1L58.5,7.1z
			 M56.5,18.8c1.3,0,2.3-0.3,2.9-0.9c0.7-0.6,1-1.5,1-2.8s-0.3-2.2-1-2.7c-0.7-0.6-1.6-0.9-2.9-0.9h-6.2v7.3H56.5z"/>
		<path class="st0" d="M74.9,28.5c0.8,0.7,1.9,1.1,3.3,1.1c1,0,1.9-0.3,2.7-0.8c0.7-0.5,1.2-1.1,1.4-1.6h4.5
			C86.1,29.4,85,31,83.5,32s-3.3,1.4-5.4,1.4c-1.5,0-2.8-0.2-4-0.7s-2.2-1.1-3-2s-1.5-1.9-1.9-3.1s-0.7-2.5-0.7-4
			c0-1.4,0.2-2.7,0.7-3.9c0.5-1.2,1.1-2.2,2-3.1c0.8-0.9,1.8-1.6,3-2.1s2.5-0.8,3.9-0.8c1.6,0,3,0.3,4.2,0.9
			c1.2,0.6,2.2,1.4,2.9,2.5c0.8,1,1.3,2.2,1.6,3.5c0.3,1.3,0.5,2.7,0.4,4.2H73.7C73.7,26.5,74.2,27.7,74.9,28.5z M80.7,18.6
			c-0.6-0.7-1.6-1-2.8-1c-0.8,0-1.5,0.1-2,0.4s-1,0.6-1.3,1s-0.6,0.8-0.7,1.3s-0.2,0.9-0.2,1.2H82C81.8,20.3,81.3,19.3,80.7,18.6z"
			/>
		<path class="st0" d="M94,28.3c0.2,0.4,0.5,0.7,0.9,1s0.8,0.4,1.2,0.6c0.5,0.1,1,0.2,1.5,0.2c0.4,0,0.7,0,1.1-0.1s0.8-0.2,1.1-0.4
			c0.3-0.2,0.6-0.4,0.8-0.7c0.2-0.3,0.3-0.7,0.3-1.1c0-0.8-0.5-1.4-1.5-1.7c-1-0.4-2.5-0.8-4.3-1.2c-0.7-0.2-1.5-0.4-2.2-0.6
			s-1.3-0.5-1.9-0.9s-1-0.8-1.3-1.4s-0.5-1.3-0.5-2.1c0-1.2,0.2-2.2,0.7-3s1.1-1.4,1.9-1.8c0.8-0.4,1.6-0.8,2.6-0.9
			c1-0.2,2-0.3,3-0.3s2,0.1,2.9,0.3c1,0.2,1.8,0.5,2.5,1s1.4,1.1,1.9,1.8c0.5,0.8,0.8,1.7,0.9,2.9h-4.9c-0.1-1-0.4-1.7-1.1-2
			s-1.5-0.5-2.4-0.5c-0.3,0-0.6,0-0.9,0.1c-0.3,0-0.6,0.1-0.9,0.2s-0.5,0.3-0.7,0.5s-0.3,0.5-0.3,0.9c0,0.5,0.2,0.8,0.5,1.1
			c0.3,0.3,0.8,0.5,1.3,0.7s1.2,0.3,1.9,0.5c0.7,0.1,1.4,0.3,2.1,0.5s1.5,0.4,2.2,0.6s1.3,0.6,1.9,1s1,0.9,1.3,1.5s0.5,1.3,0.5,2.2
			c0,1.2-0.2,2.3-0.7,3.1c-0.5,0.8-1.1,1.5-1.9,2c-0.8,0.5-1.7,0.9-2.7,1.1c-1,0.2-2.1,0.3-3.1,0.3c-1.1,0-2.1-0.1-3.2-0.3
			c-1-0.2-2-0.6-2.8-1.1s-1.5-1.2-2-2s-0.8-1.9-0.8-3.1h4.9C93.7,27.4,93.8,27.9,94,28.3z"/>
		<path class="st0" d="M114.2,28.4c0.8,0.7,1.9,1.1,3.3,1.1c1,0,1.9-0.3,2.7-0.8c0.7-0.5,1.2-1.1,1.4-1.6h4.5
			c-0.7,2.2-1.8,3.8-3.3,4.8c-1.5,1-3.3,1.4-5.4,1.4c-1.5,0-2.8-0.2-4-0.7s-2.2-1.1-3-2s-1.5-1.9-1.9-3.1s-0.7-2.5-0.7-4
			c0-1.4,0.2-2.7,0.7-3.9c0.5-1.2,1.1-2.2,2-3.1c0.8-0.9,1.8-1.6,3-2.1s2.5-0.8,3.9-0.8c1.6,0,3,0.3,4.2,0.9
			c1.2,0.6,2.2,1.4,2.9,2.5c0.8,1,1.3,2.2,1.6,3.5c0.3,1.3,0.5,2.7,0.4,4.2H113C113,26.5,113.4,27.7,114.2,28.4z M120,18.6
			c-0.6-0.7-1.5-1-2.8-1c-0.8,0-1.5,0.1-2,0.4s-1,0.6-1.3,1s-0.6,0.8-0.7,1.3s-0.2,0.9-0.2,1.2h8.4C121,20.3,120.6,19.3,120,18.6z"
			/>
		<path class="st0" d="M133,14.2v3.5h0.1c0.2-0.6,0.6-1.1,1-1.6s0.9-0.9,1.4-1.3c0.5-0.3,1.1-0.6,1.7-0.8c0.6-0.2,1.2-0.3,1.9-0.3
			c0.3,0,0.7,0.1,1.1,0.2v4.8c-0.2,0-0.5-0.1-0.9-0.1c-0.3,0-0.7-0.1-1-0.1c-0.9,0-1.7,0.2-2.4,0.5s-1.2,0.7-1.6,1.3
			c-0.4,0.5-0.7,1.2-0.8,1.9c-0.2,0.7-0.3,1.5-0.3,2.4V33h-5.1V14.3L133,14.2z"/>
		<path class="st0" d="M146.9,7.1v9.4h0.1c0.6-1,1.5-1.7,2.6-2.1c1.1-0.4,2.2-0.7,3.3-0.7c0.9,0,1.9,0.2,2.8,0.6
			c0.9,0.4,1.7,1,2.5,1.8c0.7,0.8,1.3,1.8,1.8,3.1c0.5,1.2,0.7,2.7,0.7,4.4c0,1.7-0.2,3.2-0.7,4.4c-0.5,1.2-1.1,2.3-1.8,3.1
			c-0.7,0.8-1.6,1.4-2.5,1.8s-1.8,0.6-2.8,0.6c-1.4,0-2.6-0.2-3.7-0.6c-1.1-0.4-1.9-1.2-2.5-2.2h-0.1v2.4h-4.9V7.3h5.2V7.1z
			 M155.2,21.3c-0.2-0.7-0.4-1.4-0.8-1.9c-0.4-0.6-0.8-1-1.4-1.3c-0.5-0.3-1.2-0.5-2-0.5c-0.7,0-1.4,0.2-2,0.5s-1,0.8-1.4,1.3
			c-0.4,0.6-0.6,1.2-0.8,1.9c-0.2,0.7-0.3,1.5-0.3,2.3s0.1,1.5,0.3,2.2s0.4,1.4,0.8,1.9c0.4,0.6,0.8,1,1.4,1.3
			c0.6,0.3,1.2,0.5,2,0.5s1.4-0.2,2-0.5c0.5-0.3,1-0.8,1.4-1.3c0.4-0.6,0.6-1.2,0.8-1.9c0.2-0.7,0.3-1.5,0.3-2.2
			C155.5,22.8,155.4,22,155.2,21.3z"/>
		<path class="st0" d="M174.9,32.9v-2.6h-0.1c-0.7,1.1-1.5,1.9-2.5,2.4s-2.1,0.7-3.2,0.7c-1.4,0-2.5-0.2-3.4-0.5
			c-0.9-0.4-1.6-0.9-2.1-1.5c-0.5-0.7-0.9-1.5-1.1-2.4c-0.2-1-0.3-2-0.3-3.2V14.3h5.1v10.6c0,1.5,0.2,2.7,0.7,3.5s1.3,1.1,2.6,1.1
			c1.4,0,2.4-0.4,3-1.2c0.6-0.8,0.9-2.2,0.9-4.1v-9.8h5.1v18.7h-4.7V32.9z"/>
		<path class="st0" d="M186.6,28.3c0.2,0.4,0.5,0.7,0.9,1s0.8,0.4,1.2,0.6c0.5,0.1,1,0.2,1.5,0.2c0.4,0,0.7,0,1.1-0.1
			c0.4-0.1,0.8-0.2,1.1-0.4c0.3-0.2,0.6-0.4,0.8-0.7c0.2-0.3,0.3-0.7,0.3-1.1c0-0.8-0.5-1.4-1.5-1.7c-1-0.4-2.5-0.8-4.3-1.2
			c-0.7-0.2-1.5-0.4-2.2-0.6s-1.3-0.5-1.9-0.9c-0.6-0.4-1-0.8-1.3-1.4s-0.5-1.3-0.5-2.1c0-1.2,0.2-2.2,0.7-3s1.1-1.4,1.9-1.8
			c0.8-0.4,1.6-0.8,2.6-0.9c1-0.2,2-0.3,3-0.3s2,0.1,2.9,0.3c1,0.2,1.8,0.5,2.6,1c0.7,0.5,1.4,1.1,1.9,1.8c0.5,0.8,0.8,1.7,0.9,2.9
			h-4.9c-0.1-1-0.4-1.7-1.1-2c-0.7-0.3-1.5-0.5-2.4-0.5c-0.3,0-0.6,0-0.9,0.1c-0.3,0-0.6,0.1-0.9,0.2c-0.3,0.1-0.5,0.3-0.7,0.5
			s-0.3,0.5-0.3,0.9c0,0.5,0.2,0.8,0.5,1.1c0.3,0.3,0.8,0.5,1.3,0.7s1.2,0.3,1.9,0.5c0.7,0.1,1.4,0.3,2.1,0.5
			c0.7,0.2,1.5,0.4,2.2,0.6s1.3,0.6,1.9,1c0.6,0.4,1,0.9,1.3,1.5s0.5,1.3,0.5,2.2c0,1.2-0.2,2.3-0.7,3.1c-0.5,0.8-1.1,1.5-1.9,2
			c-0.8,0.5-1.7,0.9-2.7,1.1c-1,0.2-2.1,0.3-3.1,0.3c-1.1,0-2.1-0.1-3.2-0.3c-1-0.2-2-0.6-2.8-1.1s-1.5-1.2-2-2s-0.8-1.9-0.9-3.1
			h4.9C186.3,27.4,186.4,27.9,186.6,28.3z"/>
	</g>
</g>
</svg>
