<?xml version="1.0" encoding="utf-8"?>
<!-- Generator: Adobe Illustrator 19.2.0, SVG Export Plug-In . SVG Version: 6.00 Build 0)  -->
<svg version="1.1" id="Layer_1" xmlns="http://www.w3.org/2000/svg" xmlns:xlink="http://www.w3.org/1999/xlink" x="0px" y="0px"
	 viewBox="0 0 170 40" style="enable-background:new 0 0 170 40;" xml:space="preserve">
<style type="text/css">
	.st0{fill:#F5A81C;}
	.st1{fill:#334999;stroke:#334999;stroke-width:0.1941;stroke-miterlimit:3.8637;}
	.st2{fill:#FFFFFF;}
</style>
<g>
	<g>
		<path class="st0" d="M110.1,26.9l3.6-19.2h3.9l-0.5,2.7c2.3-2.1,5.2-3.2,8.7-3.2c2.3,0,4.1,0.3,5.2,1c1.2,0.7,1.9,1.5,2.2,2.5
			s0.2,2.4-0.1,4.3l-2.2,11.8h-4.3l2.2-11.7c0.6-3.4-0.8-5.2-4.4-5.2c-4.5,0-7.2,2.1-8,6.3l-2,10.5h-4.3V26.9z"/>
		<path class="st0" d="M138.4,15.4h14.3c0.2-1.8-0.3-3.2-1.5-4.1c-1.1-0.9-2.6-1.4-4.5-1.4c-2,0-3.8,0.5-5.4,1.5
			C139.8,12.5,138.8,13.8,138.4,15.4z M151.6,20.7l4.4,0.4c-2.3,4.1-6.4,6.2-12.4,6.2c-2.3,0-4.3-0.3-5.9-1
			c-1.7-0.7-2.9-1.7-3.8-3.2c-0.9-1.5-1.1-3.4-0.7-5.7c0.4-2,1.1-3.7,2.3-5.2s2.7-2.7,4.7-3.6c2-0.9,4.2-1.4,6.9-1.4
			s4.9,0.5,6.5,1.5s2.6,2.2,3.1,3.7s0.5,3.3,0,5.7h-19.1c-0.2,2,0.2,3.6,1.4,4.8c1.2,1.2,2.9,1.8,5.1,1.8
			C147.4,24.7,149.9,23.3,151.6,20.7z"/>
		<path class="st0" d="M165.9,24l0.1,2.9c-1.3,0.2-2.4,0.3-3.3,0.3c-1.4,0-2.5-0.2-3.3-0.5s-1.4-0.8-1.7-1.4s-0.3-2,0.1-4l2.1-11.1
			h-3.2l0.5-2.5h3.2l0.9-4.8l4.7-2l-1.3,6.7h4.4l-0.5,2.5h-4.5L162,21.4c-0.2,1-0.2,1.7,0,2.1s0.8,0.6,1.9,0.6
			C164.4,24.1,165.1,24.1,165.9,24z"/>
	</g>
	<g>
		<path class="st1" d="M36.2,26.9l3.6-19.2h3.9l-0.5,2.9c2-2.2,4.1-3.3,6.2-3.3c1.5,0,2.9,0.4,4.2,1.1l-2.1,3c-1-0.5-2-0.7-3-0.7
			c-3.3,0-5.3,2.1-6,6.2L40.6,27h-4.4V26.9z"/>
	</g>
	<g>
		<path class="st1" d="M67.7,26.9l0.5-2.8c-2.4,2.2-5.3,3.2-8.7,3.2c-2.3,0-4-0.3-5.2-1s-1.9-1.5-2.2-2.5s-0.2-2.4,0.1-4.2l2.2-11.9
			h4.3l-2,10.7c-0.3,1.5-0.4,2.7-0.4,3.5s0.4,1.4,1.2,1.9c0.7,0.5,1.9,0.8,3.3,0.8c2.1,0,3.9-0.5,5.3-1.4s2.3-2.7,2.8-5.1l1.9-10.3
			h4.3L71.5,27L67.7,26.9L67.7,26.9z"/>
	</g>
	<g>
		<path class="st1" d="M85.1,24l0.1,2.9c-1.3,0.2-2.4,0.3-3.3,0.3c-1.4,0-2.5-0.2-3.3-0.5s-1.4-0.8-1.7-1.4c-0.3-0.6-0.3-2,0.1-4
			l2-11.1h-3.2l0.5-2.5h3.2l0.9-4.8l4.7-2l-1.2,6.7h4.2l-0.5,2.6h-4.4l-2.1,11.3c-0.2,1-0.2,1.7,0,2.1s0.8,0.6,1.9,0.6
			C83.6,24.1,84.3,24.1,85.1,24z"/>
	</g>
	<g>
		<path class="st1" d="M104.7,17.2c-1.7,0.5-4.1,0.9-7.3,1.2c-2.8,0.3-4.6,0.7-5.4,1.3c-0.8,0.6-1.2,1.3-1.3,1.9c-0.4,2,1.2,3,4.6,3
			c5.3,0,8.4-2.1,9.2-6.3L104.7,17.2z M103.8,24.5c-3.3,1.9-6.6,2.8-9.9,2.8c-2.4,0-4.4-0.4-5.9-1.3c-1.6-0.9-2.2-2.3-1.8-4.2
			c0.2-1.3,0.9-2.4,1.9-3.2c1-0.9,2.3-1.5,3.6-1.9c1.4-0.4,3.3-0.7,5.6-0.9c3.6-0.3,6.2-0.7,7.9-1.1c0.2-1.3,0.3-2.1,0.2-2.7
			c-0.1-0.5-0.6-1-1.5-1.4c-0.8-0.4-2.2-0.7-4-0.7s-3.2,0.2-4.4,0.7c-1.2,0.5-2.1,1.5-3,3l-4.1-0.4c1.9-4,6.1-6,12.7-6
			c2.8,0,4.8,0.3,6.2,0.9c1.3,0.6,2.2,1.3,2.5,2.2c0.3,0.9,0.3,2.3-0.1,4.1l-1.6,8.5c-0.3,1.4,0,2.7,0.6,3.9h-4.5
			C103.9,26.2,103.7,25.4,103.8,24.5z"/>
	</g>
	<path class="st1" d="M3.6,7.9c0.3-2,2.1-3.6,4-3.6h22.5c1.9,0,3.2,1.6,2.8,3.6l-2.7,16.6c-0.3,2-2.1,3.6-4,3.6H3.8
		c-1.9,0-3.2-1.6-2.8-3.6L3.6,7.9z"/>
	<path class="st2" d="M20.5,6.7c-0.2,1.6,0.9,2.7,2.4,2.6c0.2,0,0.3-0.1,0.5-0.1v3.1c-1.8,0.8-3.2,2.7-3.4,4.6c0,0.1,0,0.3,0,0.4
		l-4.6,1.4c-1-1.1-2.6-1.6-4.4-1.4c-3.6,0.4-6.9,3.6-7.4,7.2c-0.2,1.4,0.1,2.6,0.7,3.6h9.6c1.5-1.3,2.5-3.1,2.8-5
		c0.1-0.4,0.1-0.8,0-1.2l3.8-2.4c0.6,1.1,1.9,1.8,3.4,1.6c2.5-0.3,4.7-2.6,5.1-5.1c0.3-2.5-1.3-4.3-3.7-4.1l-0.9-3
		c0.8-0.7,1.5-1.7,1.7-2.8c0.1-0.7-0.1-1.3-0.4-1.8h-3.8C21.2,4.9,20.6,5.8,20.5,6.7z"/>
	<g>
		<path class="st1" d="M40.9,31.5l-0.1,0.7h-1.9l-1.1,5.1H37l1.1-5.1h-2l0.1-0.7C36.2,31.5,40.9,31.5,40.9,31.5z"/>
		<path class="st1" d="M41.6,33.1L41,35.9c0,0.2,0,0.4,0,0.5c0.1,0.3,0.3,0.4,0.6,0.4c0.5,0,0.9-0.2,1.1-0.7c0.1-0.2,0.3-0.6,0.3-1
			l0.4-2.1h0.7l-0.9,4.2h-0.7l0.1-0.6c-0.1,0.2-0.3,0.3-0.4,0.4c-0.3,0.2-0.7,0.3-1,0.3c-0.6,0-1-0.2-1.1-0.6
			c-0.1-0.2-0.1-0.5,0-0.9l0.6-2.9h0.9V33.1z"/>
		<path class="st1" d="M50.6,34.5h-0.7c0-0.3,0-0.5-0.1-0.6c-0.1-0.2-0.3-0.3-0.7-0.3s-0.8,0.2-1.1,0.7c-0.2,0.3-0.3,0.6-0.4,1.1
			c-0.1,0.4-0.1,0.8,0,1.1s0.4,0.4,0.7,0.4s0.5-0.1,0.8-0.3c0.2-0.2,0.4-0.4,0.5-0.7h0.7c-0.2,0.6-0.5,1-0.8,1.2
			c-0.4,0.3-0.8,0.4-1.3,0.4s-0.9-0.2-1.2-0.6c-0.2-0.4-0.3-0.9-0.2-1.5c0.2-0.7,0.5-1.3,0.9-1.7s0.9-0.6,1.5-0.6
			c0.5,0,0.8,0.1,1.1,0.3C50.6,33.5,50.6,33.9,50.6,34.5z"/>
		<path class="st1" d="M54.8,35.1c-0.1,0.7-0.4,1.2-0.8,1.7c-0.4,0.4-1,0.7-1.7,0.7c-0.6,0-1-0.2-1.2-0.6c-0.3-0.4-0.3-0.9-0.2-1.6
			c0.2-0.7,0.5-1.3,0.9-1.7s1-0.6,1.6-0.6c0.5,0,1,0.2,1.3,0.5C54.9,33.9,54.9,34.4,54.8,35.1z M54,35.1c0.1-0.4,0.1-0.7,0-1
			c-0.1-0.4-0.4-0.6-0.9-0.6c-0.4,0-0.8,0.2-1,0.5c-0.3,0.3-0.4,0.7-0.5,1.2c-0.1,0.4-0.1,0.8,0.1,1.1c0.1,0.3,0.4,0.4,0.8,0.4
			c0.5,0,0.8-0.2,1.1-0.5C53.8,35.9,54,35.5,54,35.1z"/>
		<path class="st1" d="M56.1,33.1h0.7l-0.1,0.6c0.2-0.2,0.4-0.4,0.5-0.5C57.5,33,57.7,33,58,33s0.6,0.1,0.8,0.2
			c0.1,0.1,0.2,0.2,0.2,0.4c0.2-0.2,0.4-0.4,0.7-0.5c0.2-0.1,0.5-0.2,0.7-0.2c0.6,0,0.9,0.2,1,0.6c0.1,0.2,0.1,0.5,0,0.9l-0.6,2.8
			h-0.7l0.6-2.9c0.1-0.3,0-0.5-0.1-0.6s-0.3-0.2-0.5-0.2c-0.3,0-0.5,0.1-0.8,0.3c-0.2,0.2-0.4,0.5-0.5,0.9l-0.5,2.4h-0.7l0.6-2.7
			c0.1-0.3,0.1-0.5,0-0.6c-0.1-0.2-0.2-0.3-0.5-0.3s-0.5,0.1-0.8,0.3s-0.5,0.6-0.6,1.1l-0.5,2.2h-0.7L56.1,33.1z"/>
		<path class="st1" d="M63.4,33.1l-0.6,2.8c0,0.2,0,0.4,0,0.5c0.1,0.3,0.3,0.4,0.6,0.4c0.5,0,0.9-0.2,1.1-0.7c0.1-0.2,0.3-0.6,0.3-1
			l0.4-2.1h0.9l-0.9,4.2h-0.7l0.1-0.6c-0.1,0.2-0.3,0.3-0.4,0.4c-0.3,0.2-0.7,0.3-1,0.3c-0.6,0-1-0.2-1.1-0.6
			c-0.1-0.2-0.1-0.5,0-0.9l0.6-2.9h0.7V33.1z"/>
		<path class="st1" d="M67.2,33.1h0.7l-0.1,0.6c0.3-0.2,0.5-0.4,0.7-0.5S69,33,69.3,33c0.6,0,1,0.2,1.1,0.6c0.1,0.2,0.1,0.6,0,1
			l-0.6,2.7h-0.7l0.6-2.6c0.1-0.3,0.1-0.5,0-0.6c-0.1-0.3-0.3-0.4-0.6-0.4c-0.2,0-0.3,0-0.4,0.1c-0.2,0.1-0.4,0.2-0.6,0.3
			c-0.1,0.1-0.3,0.3-0.3,0.4c-0.1,0.1-0.1,0.4-0.2,0.6l-0.5,2.2h-0.7L67.2,33.1z"/>
		<path class="st1" d="M71.7,33.1h0.7l-0.9,4.2h-0.7L71.7,33.1z M72,31.5h0.7l-0.2,0.8h-0.7L72,31.5z"/>
		<path class="st1" d="M75.7,33.2c0.1,0.1,0.2,0.2,0.3,0.4l0.5-2.1h0.7L76,37.3h-0.6l0.1-0.6c-0.2,0.3-0.5,0.4-0.7,0.6
			c-0.2,0.1-0.5,0.2-0.8,0.2c-0.5,0-0.8-0.2-1.1-0.6c-0.3-0.4-0.3-0.9-0.2-1.6c0.1-0.6,0.4-1.1,0.8-1.6c0.4-0.4,0.9-0.7,1.5-0.7
			C75.3,33,75.5,33.1,75.7,33.2z M74.3,36.8c0.3,0,0.6-0.1,0.9-0.4c0.3-0.3,0.5-0.7,0.6-1.2s0.1-0.9-0.1-1.2s-0.4-0.4-0.7-0.4
			c-0.4,0-0.7,0.1-0.9,0.4c-0.3,0.3-0.5,0.7-0.6,1.2c-0.1,0.4-0.1,0.8,0,1.1C73.6,36.6,73.9,36.8,74.3,36.8z"/>
		<path class="st1" d="M79.8,34.7c0.2,0,0.3-0.1,0.4-0.2c0-0.1,0.1-0.2,0.1-0.3c0.1-0.2,0-0.4-0.1-0.5s-0.4-0.2-0.7-0.2
			c-0.4,0-0.7,0.1-0.8,0.3c-0.1,0.1-0.2,0.3-0.3,0.5h-0.7c0.1-0.5,0.4-0.9,0.7-1.1c0.4-0.2,0.8-0.3,1.2-0.3c0.5,0,0.9,0.1,1.1,0.3
			c0.3,0.2,0.4,0.5,0.3,0.9l-0.5,2.4c0,0.1,0,0.1,0,0.2c0,0,0.1,0.1,0.2,0.1h0.1h0.1l-0.1,0.5c-0.1,0-0.2,0.1-0.3,0.1
			c-0.1,0-0.1,0-0.2,0c-0.2,0-0.4-0.1-0.5-0.3c0-0.1-0.1-0.2,0-0.4c-0.2,0.2-0.4,0.4-0.7,0.5c-0.3,0.1-0.6,0.2-0.9,0.2
			c-0.4,0-0.7-0.1-0.9-0.4c-0.2-0.2-0.3-0.5-0.2-0.9c0.1-0.4,0.3-0.7,0.6-0.9c0.3-0.2,0.6-0.3,1-0.4L79.8,34.7z M78.4,36.8
			c0.2,0,0.5-0.1,0.8-0.2c0.4-0.2,0.7-0.5,0.8-0.9l0.1-0.6c-0.1,0.1-0.2,0.1-0.4,0.1c-0.1,0-0.3,0.1-0.4,0.1l-0.4,0.1
			c-0.3,0-0.5,0.1-0.6,0.2c-0.2,0.1-0.4,0.3-0.5,0.6c0,0.2,0,0.4,0.1,0.5C78,36.7,78.2,36.8,78.4,36.8z"/>
		<path class="st1" d="M84.7,33.2c0.1,0.1,0.2,0.2,0.3,0.4l0.5-2.1h0.6l-1.2,5.8h-0.6l0.1-0.6c-0.2,0.3-0.5,0.4-0.7,0.6
			c-0.2,0.1-0.5,0.2-0.8,0.2c-0.5,0-0.8-0.2-1.1-0.6c-0.3-0.4-0.3-0.9-0.2-1.6c0.1-0.6,0.4-1.1,0.8-1.6c0.4-0.4,0.9-0.7,1.5-0.7
			C84.2,33,84.5,33.1,84.7,33.2z M83.2,36.8c0.3,0,0.6-0.1,0.9-0.4c0.3-0.3,0.5-0.7,0.6-1.2s0.1-0.9-0.1-1.2s-0.4-0.4-0.7-0.4
			c-0.4,0-0.7,0.1-0.9,0.4c-0.3,0.3-0.5,0.7-0.6,1.2c-0.1,0.4-0.1,0.8,0,1.1C82.5,36.6,82.8,36.8,83.2,36.8z"/>
		<path class="st1" d="M91.3,33.2c0.1,0.1,0.2,0.2,0.3,0.4l0.5-2.1h0.7l-1.2,5.8H91l0.1-0.6c-0.2,0.3-0.5,0.4-0.7,0.6
			c-0.2,0.1-0.5,0.2-0.8,0.2c-0.5,0-0.8-0.2-1.1-0.6c-0.3-0.4-0.3-0.9-0.2-1.6c0.1-0.6,0.4-1.1,0.8-1.6c0.4-0.4,0.9-0.7,1.5-0.7
			C90.9,33,91.2,33.1,91.3,33.2z M89.9,36.8c0.3,0,0.6-0.1,0.9-0.4c0.3-0.3,0.5-0.7,0.6-1.2s0.1-0.9-0.1-1.2s-0.4-0.4-0.7-0.4
			c-0.4,0-0.7,0.1-0.9,0.4c-0.3,0.3-0.5,0.7-0.6,1.2c-0.1,0.4-0.1,0.8,0,1.1C89.2,36.6,89.5,36.8,89.9,36.8z"/>
		<path class="st1" d="M96.6,33.7c0.1,0.2,0.1,0.5,0.1,0.7s0,0.5-0.1,0.9h-3.1c-0.1,0.4-0.1,0.8,0.1,1c0.1,0.3,0.4,0.4,0.8,0.4
			s0.7-0.1,1-0.4c0.2-0.1,0.3-0.3,0.4-0.5h0.7c-0.1,0.2-0.1,0.3-0.3,0.5c-0.1,0.2-0.3,0.3-0.4,0.5c-0.3,0.2-0.6,0.3-0.9,0.4
			c-0.2,0-0.4,0.1-0.6,0.1c-0.5,0-0.9-0.2-1.2-0.6c-0.3-0.4-0.3-0.9-0.2-1.6c0.1-0.7,0.4-1.2,0.9-1.6c0.5-0.4,1-0.6,1.6-0.6
			c0.3,0,0.6,0.1,0.8,0.2C96.4,33.3,96.5,33.5,96.6,33.7z M96,34.8c0-0.3,0-0.5,0-0.7c-0.1-0.3-0.4-0.5-0.9-0.5
			c-0.3,0-0.6,0.1-0.9,0.4c-0.3,0.2-0.4,0.5-0.5,0.9H96V34.8z"/>
		<path class="st1" d="M100.6,31.9h0.7l-0.3,1.2h0.7l-0.1,0.6h-0.7l-0.6,2.7c0,0.1,0,0.2,0.1,0.3c0,0,0.1,0,0.3,0h0.1h0.1l-0.1,0.6
			c-0.1,0-0.2,0-0.3,0.1c-0.1,0-0.2,0-0.3,0c-0.3,0-0.5-0.1-0.6-0.3s-0.1-0.4,0-0.7l0.6-2.8h-0.6l0.1-0.6h0.6L100.6,31.9z"/>
		<path class="st1" d="M102.5,33.1h0.7l-0.2,0.7c0.1-0.1,0.3-0.3,0.5-0.5c0.3-0.2,0.5-0.3,0.8-0.3c0,0,0,0,0.1,0c0,0,0.1,0,0.2,0
			l-0.2,0.7h-0.1h-0.1c-0.4,0-0.7,0.1-0.9,0.3c-0.2,0.2-0.4,0.5-0.5,0.8l-0.5,2.4h-0.7L102.5,33.1z"/>
		<path class="st1" d="M107,34.7c0.2,0,0.3-0.1,0.4-0.2c0-0.1,0.1-0.2,0.1-0.3c0.1-0.2,0-0.4-0.1-0.5s-0.4-0.2-0.7-0.2
			c-0.4,0-0.7,0.1-0.8,0.3c-0.1,0.1-0.2,0.3-0.3,0.5h-0.7c0.1-0.5,0.4-0.9,0.7-1.1c0.4-0.2,0.8-0.3,1.2-0.3c0.5,0,0.9,0.1,1.1,0.3
			c0.3,0.2,0.4,0.5,0.3,0.9l-0.5,2.4c0,0.1,0,0.1,0,0.2c0,0,0.1,0.1,0.2,0.1h0.1h0.1l-0.1,0.5c-0.1,0-0.2,0.1-0.3,0.1
			c-0.1,0-0.1,0-0.2,0c-0.2,0-0.4-0.1-0.5-0.3c0-0.1-0.1-0.2,0-0.4c-0.2,0.2-0.4,0.4-0.7,0.5c-0.3,0.1-0.6,0.2-0.9,0.2
			c-0.4,0-0.7-0.1-0.9-0.4c-0.2-0.2-0.3-0.5-0.2-0.9c0.1-0.4,0.3-0.7,0.6-0.9c0.3-0.2,0.6-0.3,1-0.4L107,34.7z M105.6,36.8
			c0.2,0,0.5-0.1,0.8-0.2c0.4-0.2,0.7-0.5,0.8-0.9l0.1-0.6c-0.1,0.1-0.2,0.1-0.4,0.1c-0.1,0-0.3,0.1-0.4,0.1l-0.4,0.1
			c-0.3,0-0.5,0.1-0.6,0.2c-0.2,0.1-0.4,0.3-0.5,0.6c0,0.2,0,0.4,0.1,0.5C105.2,36.7,105.4,36.8,105.6,36.8z"/>
		<path class="st1" d="M109.6,33.1h0.7l-0.1,0.6c0.3-0.2,0.5-0.4,0.7-0.5s0.5-0.2,0.8-0.2c0.6,0,1,0.2,1.1,0.6c0.1,0.2,0.1,0.6,0,1
			l-0.6,2.7h-0.7l0.6-2.6c0.1-0.3,0.1-0.5,0-0.6c-0.1-0.3-0.3-0.4-0.6-0.4c-0.2,0-0.3,0-0.4,0.1c-0.2,0.1-0.4,0.2-0.6,0.3
			c-0.1,0.1-0.3,0.3-0.3,0.4c-0.1,0.1-0.1,0.4-0.2,0.6l-0.5,2.2h-0.7L109.6,33.1z"/>
		<path class="st1" d="M113.8,36c0,0.2,0,0.4,0.1,0.5c0.1,0.2,0.4,0.3,0.8,0.3c0.3,0,0.5-0.1,0.7-0.2c0.2-0.1,0.4-0.3,0.4-0.5
			s0-0.3-0.2-0.4c-0.1-0.1-0.3-0.1-0.6-0.2l-0.5-0.1c-0.3-0.1-0.6-0.2-0.7-0.3c-0.3-0.2-0.4-0.5-0.3-0.8c0.1-0.4,0.3-0.7,0.6-1
			c0.3-0.2,0.7-0.4,1.2-0.4c0.6,0,1,0.2,1.2,0.6c0.1,0.2,0.2,0.5,0.1,0.8h-0.7c0-0.2,0-0.3-0.1-0.4c-0.1-0.2-0.4-0.3-0.8-0.3
			c-0.3,0-0.5,0.1-0.6,0.2c-0.2,0.1-0.3,0.2-0.3,0.4s0,0.3,0.2,0.4c0.1,0.1,0.2,0.1,0.4,0.2l0.4,0.1c0.5,0.1,0.8,0.2,0.9,0.4
			c0.2,0.2,0.3,0.5,0.2,0.8c-0.1,0.4-0.3,0.7-0.6,1c-0.3,0.3-0.8,0.4-1.4,0.4s-1-0.1-1.2-0.4c-0.2-0.3-0.3-0.6-0.2-1.1H113.8z"/>
		<path class="st1" d="M118,33.1h0.7l-0.1,0.6c0.2-0.2,0.4-0.3,0.6-0.4c0.3-0.2,0.6-0.2,0.9-0.2c0.5,0,0.8,0.2,1.1,0.5
			c0.3,0.4,0.3,0.9,0.2,1.6c-0.2,0.9-0.6,1.6-1.1,2c-0.4,0.2-0.7,0.4-1.1,0.4c-0.3,0-0.6-0.1-0.8-0.2c-0.1-0.1-0.2-0.2-0.3-0.4
			l-0.5,2.1h-0.7L118,33.1z M120.5,35.1c0.1-0.3,0.1-0.6,0-0.9c-0.1-0.5-0.4-0.7-0.9-0.7s-0.9,0.2-1.2,0.7c-0.2,0.3-0.3,0.6-0.4,1
			c-0.1,0.3-0.1,0.6,0,0.8c0.1,0.4,0.4,0.7,0.9,0.7c0.3,0,0.6-0.1,0.9-0.4C120.2,36.1,120.4,35.7,120.5,35.1z"/>
		<path class="st1" d="M125.7,35.1c-0.1,0.7-0.4,1.2-0.8,1.7c-0.4,0.4-1,0.7-1.7,0.7c-0.6,0-1-0.2-1.2-0.6c-0.3-0.4-0.3-0.9-0.2-1.6
			c0.2-0.7,0.5-1.3,0.9-1.7s1-0.6,1.6-0.6c0.5,0,1,0.2,1.3,0.5C125.8,33.9,125.8,34.4,125.7,35.1z M125,35.1c0.1-0.4,0.1-0.7,0-1
			c-0.1-0.4-0.4-0.6-0.9-0.6c-0.4,0-0.8,0.2-1,0.5c-0.3,0.3-0.4,0.7-0.5,1.2c-0.1,0.4-0.1,0.8,0.1,1.1c0.1,0.3,0.4,0.4,0.8,0.4
			c0.5,0,0.8-0.2,1.1-0.5C124.7,35.9,124.9,35.5,125,35.1z"/>
		<path class="st1" d="M127,33.1h0.7l-0.2,0.7c0.1-0.1,0.3-0.3,0.5-0.5c0.3-0.2,0.5-0.3,0.8-0.3c0,0,0,0,0.1,0c0,0,0.1,0,0.2,0
			l-0.2,0.7h-0.1h-0.1c-0.4,0-0.7,0.1-0.9,0.3c-0.2,0.2-0.4,0.5-0.5,0.8l-0.5,2.4h-0.7L127,33.1z"/>
		<path class="st1" d="M130,31.9h0.7l-0.3,1.2h0.7l-0.1,0.6h-0.7l-0.6,2.7c0,0.1,0,0.2,0.1,0.3c0,0,0.1,0,0.3,0h0.1h0.1l-0.1,0.6
			c-0.1,0-0.2,0-0.3,0.1c-0.1,0-0.2,0-0.3,0c-0.3,0-0.5-0.1-0.6-0.3s-0.1-0.4,0-0.7l0.6-2.8h-0.5l0.1-0.6h0.6L130,31.9z"/>
		<path class="st1" d="M135,33.7c0.1,0.2,0.1,0.5,0.1,0.7s0,0.5-0.1,0.9h-3.1c-0.1,0.4-0.1,0.8,0.1,1c0.1,0.3,0.4,0.4,0.8,0.4
			c0.4,0,0.7-0.1,1-0.4c0.2-0.1,0.3-0.3,0.4-0.5h0.7c-0.1,0.2-0.1,0.3-0.3,0.5c-0.1,0.2-0.3,0.3-0.4,0.5c-0.3,0.2-0.6,0.3-0.9,0.4
			c-0.2,0-0.4,0.1-0.6,0.1c-0.5,0-0.9-0.2-1.2-0.6c-0.3-0.4-0.3-0.9-0.2-1.6c0.1-0.7,0.4-1.2,0.9-1.6c0.5-0.4,1-0.6,1.6-0.6
			c0.3,0,0.6,0.1,0.8,0.2C134.7,33.3,134.9,33.5,135,33.7z M134.4,34.8c0-0.3,0-0.5,0-0.7c-0.1-0.3-0.4-0.5-0.9-0.5
			c-0.3,0-0.6,0.1-0.9,0.4c-0.3,0.2-0.4,0.5-0.5,0.9h2.3V34.8z"/>
		<path class="st1" d="M141.7,33.7c0.1,0.2,0.1,0.5,0.1,0.7s0,0.5-0.1,0.9h-3.1c-0.1,0.4-0.1,0.8,0.1,1c0.1,0.3,0.4,0.4,0.8,0.4
			c0.4,0,0.7-0.1,1-0.4c0.2-0.1,0.3-0.3,0.4-0.5h0.7c-0.1,0.2-0.1,0.3-0.3,0.5c-0.1,0.2-0.3,0.3-0.4,0.5c-0.3,0.2-0.6,0.3-0.9,0.4
			c-0.2,0-0.4,0.1-0.6,0.1c-0.5,0-0.9-0.2-1.2-0.6c-0.3-0.4-0.3-0.9-0.2-1.6c0.1-0.7,0.4-1.2,0.9-1.6c0.5-0.4,1-0.6,1.6-0.6
			c0.3,0,0.6,0.1,0.8,0.2C141.4,33.3,141.6,33.5,141.7,33.7z M141,34.8c0-0.3,0-0.5,0-0.7c-0.1-0.3-0.4-0.5-0.9-0.5
			c-0.3,0-0.6,0.1-0.9,0.4c-0.3,0.2-0.4,0.5-0.5,0.9h2.3V34.8z"/>
		<path class="st1" d="M143,33.1h0.7l-0.1,0.6c0.3-0.2,0.5-0.4,0.7-0.5s0.5-0.2,0.8-0.2c0.6,0,1,0.2,1.1,0.6c0.1,0.2,0.1,0.6,0,1
			l-0.6,2.7h-0.7l0.6-2.6c0.1-0.3,0.1-0.5,0-0.6c-0.1-0.3-0.3-0.4-0.6-0.4c-0.2,0-0.3,0-0.4,0.1c-0.2,0.1-0.4,0.2-0.6,0.3
			c-0.1,0.1-0.3,0.3-0.3,0.4c-0.1,0.1-0.1,0.4-0.2,0.6l-0.5,2.2h-0.8L143,33.1z"/>
		<path class="st1" d="M150.1,31.5h0.7l-1.2,5.8h-0.7L150.1,31.5z"/>
		<path class="st1" d="M151.7,33.1h0.7l-0.9,4.2h-0.7L151.7,33.1z M153.2,31.4l-1.2,1.1h-0.5l0.8-1.1
			C152.3,31.4,153.2,31.4,153.2,31.4z"/>
		<path class="st1" d="M153.7,33.1h0.7l-0.1,0.6c0.3-0.2,0.5-0.4,0.7-0.5s0.5-0.2,0.8-0.2c0.6,0,1,0.2,1.1,0.6c0.1,0.2,0.1,0.6,0,1
			l-0.6,2.7h-0.7l0.6-2.6c0.1-0.3,0.1-0.5,0-0.6c-0.1-0.3-0.3-0.4-0.6-0.4c-0.2,0-0.3,0-0.4,0.1c-0.2,0.1-0.4,0.2-0.6,0.3
			c-0.1,0.1-0.3,0.3-0.3,0.4c-0.1,0.1-0.1,0.4-0.2,0.6l-0.5,2.2h-0.7L153.7,33.1z"/>
		<path class="st1" d="M161.3,33.7c0.1,0.2,0.1,0.5,0.1,0.7s0,0.5-0.1,0.9h-3.1c-0.1,0.4-0.1,0.8,0.1,1c0.1,0.3,0.4,0.4,0.8,0.4
			c0.4,0,0.7-0.1,1-0.4c0.2-0.1,0.3-0.3,0.4-0.5h0.7c-0.1,0.2-0.1,0.3-0.3,0.5c-0.1,0.2-0.3,0.3-0.4,0.5c-0.3,0.2-0.6,0.3-0.9,0.4
			c-0.2,0-0.4,0.1-0.6,0.1c-0.5,0-0.9-0.2-1.2-0.6c-0.3-0.4-0.3-0.9-0.2-1.6c0.1-0.7,0.4-1.2,0.9-1.6c0.5-0.4,1-0.6,1.6-0.6
			c0.3,0,0.6,0.1,0.8,0.2C161,33.3,161.2,33.5,161.3,33.7z M160.7,34.8c0-0.3,0-0.5,0-0.7c-0.1-0.3-0.4-0.5-0.9-0.5
			c-0.3,0-0.6,0.1-0.9,0.4c-0.3,0.2-0.4,0.5-0.5,0.9h2.3V34.8z"/>
		<path class="st1" d="M164.5,34.7c0.2,0,0.3-0.1,0.4-0.2c0-0.1,0.1-0.2,0.1-0.3c0.1-0.2,0-0.4-0.1-0.5s-0.4-0.2-0.7-0.2
			c-0.4,0-0.7,0.1-0.8,0.3c-0.1,0.1-0.2,0.3-0.3,0.5h-0.7c0.1-0.5,0.4-0.9,0.7-1.1c0.4-0.2,0.8-0.3,1.2-0.3c0.5,0,0.9,0.1,1.1,0.3
			c0.3,0.2,0.4,0.5,0.3,0.9l-0.5,2.4c0,0.1,0,0.1,0,0.2c0,0,0.1,0.1,0.2,0.1h0.1h0.1l-0.1,0.5c-0.1,0-0.2,0.1-0.3,0.1s-0.1,0-0.2,0
			c-0.2,0-0.4-0.1-0.5-0.3c0-0.1-0.1-0.2,0-0.4c-0.2,0.2-0.4,0.4-0.7,0.5s-0.6,0.2-0.9,0.2c-0.4,0-0.7-0.1-0.9-0.4
			c-0.2-0.2-0.3-0.5-0.2-0.9s0.3-0.7,0.6-0.9s0.6-0.3,1-0.4L164.5,34.7z M163.1,36.8c0.2,0,0.5-0.1,0.8-0.2c0.4-0.2,0.7-0.5,0.8-0.9
			l0.1-0.6c-0.1,0.1-0.2,0.1-0.4,0.1c-0.1,0-0.3,0.1-0.4,0.1l-0.4,0.1c-0.3,0-0.5,0.1-0.6,0.2c-0.2,0.1-0.4,0.3-0.5,0.6
			c0,0.2,0,0.4,0.1,0.5C162.8,36.7,162.9,36.8,163.1,36.8z"/>
	</g>
</g>
</svg>
