<?xml version="1.0" encoding="utf-8"?>
<!-- Generator: Adobe Illustrator 19.2.1, SVG Export Plug-In . SVG Version: 6.00 Build 0)  -->
<svg version="1.1" id="Layer_1" xmlns="http://www.w3.org/2000/svg" xmlns:xlink="http://www.w3.org/1999/xlink" x="0px" y="0px"
	 viewBox="0 0 155.6 40" style="enable-background:new 0 0 155.6 40;" xml:space="preserve">
<style type="text/css">
	.st0{fill:#869094;}
	.st1{fill:#F26D4E;}
</style>
<g>
	<g>
		<path class="st0" d="M39.5,3H38c-0.3,0-0.5-0.2-0.5-0.5V2c0-0.3,0.2-0.5,0.5-0.5h4.9c0.3,0,0.5,0.2,0.5,0.5v0.6
			c0,0.3-0.2,0.5-0.5,0.5h-1.3l-0.1,14.1h5.9l0.1-2.2c0-0.2,0.2-0.4,0.5-0.4h0.9c0.3,0,0.5,0.2,0.5,0.5l-0.1,3.3
			c0,0.2-0.2,0.4-0.5,0.4H38c-0.3,0-0.5-0.2-0.5-0.5v-0.6c0-0.3,0.2-0.5,0.5-0.5h1.4L39.5,3z"/>
		<path class="st0" d="M50.4,6h3.1c0.3,0,0.5,0.2,0.5,0.5c0,2.2-0.1,4.3-0.1,7c0,1.8,0.3,3.8,2.8,3.8c3.7,0,3.7-4,3.7-5.8V7.6h-1.5
			c-0.3,0-0.5-0.2-0.5-0.5V6.5c0-0.3,0.2-0.5,0.5-0.5H62c0.3,0,0.5,0.2,0.5,0.5l-0.1,10.7h1.3c0.3,0,0.5,0.2,0.5,0.5v0.6
			c0,0.3-0.2,0.5-0.5,0.5h-2.8c-0.3,0-0.5-0.2-0.5-0.5c0-0.4,0-0.8,0.1-1.1l0.2-1.3h0c-0.5,1.5-2.1,3.1-4.3,3.1
			c-3.6,0-4.5-2.3-4.5-5.2c0-2.3,0.1-4.3,0.1-6.2h-1.6c-0.3,0-0.5-0.2-0.5-0.5V6.5C49.9,6.2,50.1,6,50.4,6z"/>
		<path class="st0" d="M74.7,17.2h1.2c0-2,0.1-4,0.1-6.1c0-1.2,0-3.7-2.9-3.7c-1.8,0-3.8,1.1-3.8,4.5l0,5.2h1.4
			c0.3,0,0.5,0.2,0.5,0.5v0.6c0,0.3-0.2,0.5-0.5,0.5h-4.6c-0.3,0-0.5-0.2-0.5-0.5v-0.6c0-0.3,0.2-0.5,0.5-0.5h1.2l0.1-9.6h-1.6
			c-0.3,0-0.5-0.2-0.5-0.5V6.5c0-0.3,0.2-0.5,0.5-0.5h3.1c0.3,0,0.5,0.2,0.5,0.5c0,0.4,0,0.8-0.1,1.1l-0.2,1.3h0
			c0.5-1.9,2.6-3.1,4.5-3.1c3.5,0,4.4,2.4,4.4,4.8c0,2.2-0.1,4.7-0.1,6.7h1.4c0.3,0,0.5,0.2,0.5,0.5v0.6c0,0.3-0.2,0.5-0.5,0.5h-4.6
			c-0.3,0-0.5-0.2-0.5-0.5v-0.6C74.2,17.4,74.4,17.2,74.7,17.2z"/>
		<path class="st0" d="M90.9,18.1c0,0.2-0.1,0.4-0.3,0.4c-0.9,0.3-2.1,0.5-3.3,0.5c-5,0-6.6-3.3-6.6-6.6c0-4.8,3.5-6.6,6.3-6.6
			c1.4,0,2.8,0.2,4.1,0.6v2.9c0,0.3-0.2,0.5-0.5,0.5h-0.9c-0.3,0-0.5-0.2-0.5-0.5V7.7c-0.5-0.2-1.5-0.3-2.1-0.3
			c-3.7,0-4.4,2.9-4.4,5c0,0.7,0.1,5,4.8,5c1,0,1.9-0.2,2.8-0.5c0.3-0.1,0.6,0.1,0.6,0.5L90.9,18.1z"/>
		<path class="st0" d="M94.2,1.3h-2c-0.3,0-0.5-0.2-0.5-0.5V0.3c0-0.3,0.2-0.5,0.5-0.5h3.6c0.3,0,0.5,0.2,0.5,0.5l0,6.2
			c0,0.6-0.1,1.8-0.2,2.4h0c0.5-1.9,2.6-3.1,4.5-3.1c3.5,0,4.4,2.4,4.4,4.8c0,2.2-0.1,4.7-0.1,6.7h1.4c0.3,0,0.5,0.2,0.5,0.5v0.6
			c0,0.3-0.2,0.5-0.5,0.5h-4.6c-0.3,0-0.5-0.2-0.5-0.5v-0.6c0-0.3,0.2-0.5,0.5-0.5h1.2c0-2,0.1-4,0.1-6.1c0-1.2,0-3.7-2.9-3.7
			c-1.8,0-3.8,1.1-3.8,4.5l-0.1,5.2h1.4c0.3,0,0.5,0.2,0.5,0.5v0.6c0,0.3-0.2,0.5-0.5,0.5h-4.8c-0.3,0-0.5-0.2-0.5-0.5v-0.6
			c0-0.3,0.2-0.5,0.5-0.5h1.4L94.2,1.3z"/>
	</g>
	<g>
		<path class="st0" d="M38.8,23.6h-1.5c-0.3,0-0.5-0.2-0.5-0.5v-1.6c0-0.3,0.2-0.5,0.5-0.5h4.5c0.3,0,0.5,0.2,0.5,0.5v4.6
			c0,1-0.1,2.2-0.2,3.4h0c0.8-1.7,2.2-2.7,4.4-2.7c2.8,0,5,2,5,5.9c0,3.5-1.7,7.6-7.2,7.6c-2.2,0-4.5-0.6-5.4-1.1V23.6z M42.1,37
			c0.5,0.2,1.4,0.5,2.2,0.5c2.5,0,3.6-2.1,3.6-4.4c0-1.8-0.6-3.5-2.8-3.5c-2.3,0-3,1.6-3,3.2V37z"/>
		<path class="st0" d="M54.9,29.6h-1.2c-0.3,0-0.5-0.2-0.5-0.5v-1.6c0-0.3,0.2-0.5,0.5-0.5h4.5c0,0.9,0,1.7-0.2,3h0
			c0.5-2.2,1.7-3.2,3.7-3.2c0.3,0,0.5,0,0.7,0.1c0.2,0,0.4,0.3,0.4,0.5l-0.2,2.2c0,0.3-0.3,0.5-0.5,0.4c-0.2,0-0.4,0-0.6,0
			c-1.9,0-3.2,1.3-3.2,3.4v4.2h1.2c0.3,0,0.5,0.2,0.5,0.5v1.6c0,0.3-0.2,0.5-0.5,0.5H54c-0.3,0-0.5-0.2-0.5-0.5v-1.6
			c0-0.3,0.2-0.5,0.5-0.5h0.9V29.6z"/>
		<path class="st0" d="M66.7,34.3c0.1,2,1.7,3.3,4.1,3.3c1.4,0,2.4-0.2,3.5-0.6c0.3-0.1,0.6,0.1,0.6,0.5l-0.1,1.7
			c0,0.2-0.1,0.3-0.3,0.4c-1.5,0.5-2.8,0.7-4.5,0.7c-5,0-7.1-3.1-7.1-6.7c0-4,2.4-6.8,6.5-6.8c4.3,0,6.1,3.1,6.2,7
			c0,0.3-0.2,0.5-0.5,0.5H66.7z M72,32c0-1.8-1-2.8-2.6-2.8c-1.6,0-2.5,1-2.6,2.8H72z"/>
		<path class="st0" d="M85.5,31.8c0-1.9-0.8-2.5-2.4-2.5c-0.5,0-1.6,0.1-2.1,0.4V31c0,0.3-0.2,0.5-0.5,0.5h-2
			c-0.3,0-0.5-0.2-0.5-0.5v-2.5c0-0.2,0.1-0.3,0.3-0.4c0.9-0.5,2.8-1.2,4.9-1.2c3.4,0,5.6,1.2,5.6,4.9c0,2.1-0.1,3.9-0.1,5.7h1
			c0.3,0,0.5,0.2,0.5,0.5v1.6c0,0.3-0.2,0.5-0.5,0.5h-3.4c-0.3,0-0.5-0.2-0.5-0.5v-0.3c0-0.8,0-1.3,0.2-1.8h0
			c-0.9,1.9-2,2.9-4.2,2.9c-2.9,0-4.3-1.7-4.3-3.7c0-1.8,1.2-3.1,2.6-3.5c1.3-0.5,3.1-0.6,5.6-0.6V31.8z M84.5,34.5
			c-2.8,0-3.7,0.6-3.7,1.7c0,0.8,0.5,1.5,1.9,1.5c1.4,0,2.8-0.9,2.8-3.2H84.5z"/>
		<path class="st0" d="M92.6,37.5h0.9V23.6H92c-0.3,0-0.5-0.2-0.5-0.5v-1.6c0-0.3,0.2-0.5,0.5-0.5h4.5c0.3,0,0.5,0.2,0.5,0.5v11.1
			l3.4-2.6c0.2-0.1,0.3-0.2,0.5-0.3v0h-1.3c-0.3,0-0.5-0.2-0.5-0.5v-1.6c0-0.3,0.2-0.5,0.5-0.5h5.6c0.3,0,0.5,0.2,0.5,0.5v1.6
			c0,0.3-0.2,0.5-0.5,0.5h-0.7l-4,3.2l4.3,4.6h1c0.3,0,0.5,0.2,0.5,0.5v1.6c0,0.3-0.2,0.5-0.5,0.5h-5.9c-0.3,0-0.5-0.2-0.5-0.5v-1.6
			c0-0.3,0.2-0.5,0.5-0.5h0.9v0c-0.4-0.2-0.7-0.5-1.1-0.9L97,33.4v4h0.7c0.3,0,0.5,0.2,0.5,0.5v1.6c0,0.3-0.2,0.5-0.5,0.5h-5.1
			c-0.3,0-0.5-0.2-0.5-0.5v-1.6C92.1,37.7,92.3,37.5,92.6,37.5z"/>
	</g>
	<path class="st1" d="M25.1,9.5c-3.2-3.2-7.7-4.8-12.3-4.2c-2.5,0.3-4.9,1.3-6.9,2.8c-3.7,2.8-5.7,7-5.8,11.5c0,4,1.7,7.9,4.5,10.7
		l9.2,9.2c0.5,0.5,1.3,0.5,1.8,0l9.5-9.5c2.8-2.8,4.3-6.4,4.3-10.4C29.4,15.9,27.8,12.2,25.1,9.5z M22.7,27.7
		c-2.1,2.1-4.9,3.3-7.9,3.3c-3,0-5.8-1.2-7.9-3.3c-2.1-2.1-3.3-4.9-3.3-7.9c0-3,1.2-5.8,3.3-7.9c2.1-2.1,4.9-3.3,7.9-3.3
		c3,0,5.8,1.2,7.9,3.3c2.1,2.1,3.3,4.9,3.3,7.9C25.9,22.8,24.8,25.6,22.7,27.7z"/>
	<g>
		<path class="st1" d="M20.9,13.2c-0.8-0.8-1.6-1.3-2.5-1.7c-0.4-0.2-0.8-0.3-1.2-0.4c-0.8-0.2-1.7,0-2.2,0.6l-2,2l-6.2,6.8
			c-0.2,0.2-0.2,0.6,0,0.8h0c0.2,0.2,0.6,0.2,0.8,0l6.5-6.5c0,0,0,0,0,0c0.3-0.3,0.8-0.3,1.1,0c0.3,0.3,0.3,0.8,0,1.1c0,0,0,0,0,0
			l0,0l-6.4,6.7c-0.2,0.2-0.2,0.6,0,0.8l0.1,0.1c0.2,0.2,0.6,0.2,0.8,0l6.5-6.5l0,0c0,0,0,0,0,0c0.3-0.3,0.8-0.3,1.1,0
			c0.3,0.3,0.3,0.8,0,1.1c0,0,0,0,0,0l0,0l-6.5,6.5c-0.2,0.2-0.2,0.6,0,0.8l0.1,0.1c0.2,0.2,0.6,0.2,0.8,0l6.7-6.4l0,0
			c0.3-0.3,0.7-0.4,1.1,0c0.4,0.4,0.2,0.8,0,1.1c0,0,0,0,0,0l0,0l-6.5,6.5c-0.2,0.2-0.2,0.6,0,0.8l0,0c0.2,0.2,0.6,0.2,0.8,0
			l6.8-6.2l2-2c0.6-0.6,0.8-1.4,0.6-2.2c-0.1-0.4-0.2-0.8-0.4-1.2C22.2,14.8,21.6,13.9,20.9,13.2z"/>
		<path class="st1" d="M31.7,2c-1.1-0.9-2.8-0.8-3.9,0.3l-3,3c-0.4,0.4-0.4,1,0.1,1.4c0.9,0.8,1.8,1.6,2.5,2.5
			c0.3,0.4,1,0.5,1.4,0.1l3.1-3.1C33.1,5,33,3,31.7,2z"/>
	</g>
</g>
</svg>
