<?xml version="1.0" encoding="utf-8"?>
<!-- Generator: Adobe Illustrator 19.2.0, SVG Export Plug-In . SVG Version: 6.00 Build 0)  -->
<svg version="1.1" id="Layer_1" xmlns="http://www.w3.org/2000/svg" xmlns:xlink="http://www.w3.org/1999/xlink" x="0px" y="0px"
	 viewBox="0 0 170 40" style="enable-background:new 0 0 170 40;" xml:space="preserve">
<style type="text/css">
	.st0{opacity:0.8;}
	.st1{fill:#FFFFFF;}
	.st2{fill:#FFFFFF;stroke:#FFFFFF;stroke-width:0.1941;stroke-miterlimit:3.8637;}
</style>
<g>
	<g class="st0">
		<path class="st1" d="M110,26.7l3.6-19.2h3.9l-0.5,2.7c2.3-2.1,5.2-3.2,8.7-3.2c2.3,0,4.1,0.3,5.2,1c1.2,0.7,1.9,1.5,2.2,2.5
			s0.2,2.4-0.1,4.3l-2.2,11.8h-4.3l2.2-11.7c0.6-3.4-0.8-5.2-4.4-5.2c-4.5,0-7.2,2.1-8,6.3l-2,10.5H110V26.7z"/>
		<path class="st1" d="M138.3,15.2h14.3c0.2-1.8-0.3-3.2-1.5-4.1c-1.1-0.9-2.6-1.4-4.5-1.4c-2,0-3.8,0.5-5.4,1.5
			C139.7,12.3,138.7,13.6,138.3,15.2z M151.5,20.5l4.4,0.4c-2.3,4.1-6.4,6.2-12.4,6.2c-2.3,0-4.3-0.3-5.9-1
			c-1.7-0.7-2.9-1.7-3.8-3.2c-0.9-1.5-1.1-3.4-0.7-5.7c0.4-2,1.1-3.7,2.3-5.2s2.7-2.7,4.7-3.6S144.3,7,147,7s4.9,0.5,6.5,1.5
			s2.6,2.2,3.1,3.7s0.5,3.3,0,5.7h-19.1c-0.2,2,0.2,3.6,1.4,4.8s2.9,1.8,5.1,1.8C147.3,24.5,149.8,23.1,151.5,20.5z"/>
		<path class="st1" d="M165.8,23.8l0.1,2.9c-1.3,0.2-2.4,0.3-3.3,0.3c-1.4,0-2.5-0.2-3.3-0.5s-1.4-0.8-1.7-1.4s-0.3-2,0.1-4
			l2.1-11.1h-3.2l0.5-2.5h3.2l0.9-4.8l4.7-2l-1.3,6.7h4.4l-0.5,2.5H164l-2.1,11.3c-0.2,1-0.2,1.7,0,2.1s0.8,0.6,1.9,0.6
			C164.3,23.9,165,23.9,165.8,23.8z"/>
	</g>
	<g>
		<path class="st1" d="M36.1,26.7l3.6-19.2h3.9l-0.5,2.9c2-2.2,4.1-3.3,6.2-3.3c1.5,0,2.9,0.4,4.2,1.1l-2.1,3c-1-0.5-2-0.7-3-0.7
			c-3.3,0-5.3,2.1-6,6.2l-1.9,10.1h-4.4V26.7z"/>
	</g>
	<g>
		<path class="st1" d="M67.6,26.7l0.5-2.8c-2.4,2.2-5.3,3.2-8.7,3.2c-2.3,0-4-0.3-5.2-1s-1.9-1.5-2.2-2.5s-0.2-2.4,0.1-4.2l2.2-11.9
			h4.3l-2,10.7c-0.3,1.5-0.4,2.7-0.4,3.5s0.4,1.4,1.2,1.9c0.7,0.5,1.9,0.8,3.3,0.8c2.1,0,3.9-0.5,5.3-1.4s2.3-2.7,2.8-5.1l1.9-10.3
			H75l-3.6,19.2L67.6,26.7L67.6,26.7z"/>
	</g>
	<g>
		<path class="st1" d="M85,23.8l0.1,2.9c-1.3,0.2-2.4,0.3-3.3,0.3c-1.4,0-2.5-0.2-3.3-0.5s-1.4-0.8-1.7-1.4c-0.3-0.6-0.3-2,0.1-4
			l2-11.1h-3.2l0.5-2.5h3.2l0.9-4.8l4.7-2l-1.2,6.7H88L87.5,10h-4.4L81,21.3c-0.2,1-0.2,1.7,0,2.1s0.8,0.6,1.9,0.6
			C83.5,23.9,84.2,23.9,85,23.8z"/>
	</g>
	<g>
		<path class="st1" d="M104.6,17c-1.7,0.5-4.1,0.9-7.3,1.2c-2.8,0.3-4.6,0.7-5.4,1.3c-0.8,0.6-1.2,1.3-1.3,1.9c-0.4,2,1.2,3,4.6,3
			c5.3,0,8.4-2.1,9.2-6.3L104.6,17z M103.7,24.3c-3.3,1.9-6.6,2.8-9.9,2.8c-2.4,0-4.4-0.4-5.9-1.3c-1.6-0.9-2.2-2.3-1.8-4.2
			c0.2-1.3,0.9-2.4,1.9-3.2c1-0.9,2.3-1.5,3.6-1.9c1.4-0.4,3.3-0.7,5.6-0.9c3.6-0.3,6.2-0.7,7.9-1.1c0.2-1.3,0.3-2.1,0.2-2.7
			c-0.1-0.5-0.6-1-1.5-1.4c-0.8-0.4-2.2-0.7-4-0.7s-3.2,0.2-4.4,0.7c-1.2,0.5-2.1,1.5-3,3L88.3,13c1.9-4,6.1-6,12.7-6
			c2.8,0,4.8,0.3,6.2,0.9c1.3,0.6,2.2,1.3,2.5,2.2c0.3,0.9,0.3,2.3-0.1,4.1l-1.6,8.5c-0.3,1.4,0,2.7,0.6,3.9h-4.5
			C103.8,26,103.6,25.2,103.7,24.3z"/>
	</g>
	<g>
		<path class="st1" d="M3.5,24.3c0.5-3.6,3.8-6.8,7.4-7.2c1.8-0.2,3.4,0.3,4.4,1.4l4.6-1.4c0-0.1,0-0.3,0-0.4
			c0.2-1.9,1.6-3.8,3.4-4.6V9c-0.2,0-0.3,0.1-0.5,0.1c-1.5,0.1-2.6-1-2.4-2.6c0.1-0.9,0.7-1.8,1.4-2.4H7.5c-1.9,0-3.7,1.6-4,3.6
			L0.9,24.3c-0.4,2,0.9,3.6,2.8,3.6h0.5C3.6,26.9,3.3,25.7,3.5,24.3z"/>
		<path class="st1" d="M30,4.1h-4.4c0.3,0.5,0.5,1.1,0.4,1.8C25.8,7,25.1,8,24.3,8.7l0.9,3c2.4-0.2,4,1.6,3.7,4.1
			c-0.4,2.5-2.6,4.8-5.1,5.1c-1.5,0.2-2.8-0.5-3.4-1.6l-3.8,2.4c0.1,0.4,0.1,0.8,0,1.2c-0.3,1.9-1.3,3.7-2.8,5h12.3
			c1.9,0,3.7-1.6,4-3.6l2.7-16.6C33.2,5.7,31.9,4.1,30,4.1z"/>
	</g>
	<g>
		<path class="st2" d="M40.8,31.3L40.7,32h-1.9l-1.1,5.1h-0.8L38,32h-2l0.1-0.7H40.8z"/>
		<path class="st2" d="M41.5,32.9l-0.6,2.8c0,0.2,0,0.4,0,0.5c0.1,0.3,0.3,0.4,0.6,0.4c0.5,0,0.9-0.2,1.1-0.7c0.1-0.2,0.3-0.6,0.3-1
			l0.4-2.1H44L43.1,37h-0.7l0.1-0.6c-0.1,0.2-0.3,0.3-0.4,0.4c-0.3,0.2-0.7,0.3-1,0.3c-0.6,0-1-0.2-1.1-0.6c-0.1-0.2-0.1-0.5,0-0.9
			l0.6-2.9h0.9C41.5,32.7,41.5,32.9,41.5,32.9z"/>
		<path class="st2" d="M50.5,34.3h-0.7c0-0.3,0-0.5-0.1-0.6c-0.1-0.2-0.3-0.3-0.7-0.3s-0.8,0.2-1.1,0.7c-0.2,0.3-0.3,0.6-0.4,1.1
			c-0.1,0.4-0.1,0.8,0,1.1s0.4,0.4,0.7,0.4s0.5-0.1,0.8-0.3c0.2-0.2,0.4-0.4,0.5-0.7h0.7c-0.2,0.6-0.5,1-0.8,1.2
			c-0.4,0.3-0.8,0.4-1.3,0.4s-0.9-0.2-1.2-0.6c-0.2-0.4-0.3-0.9-0.2-1.5c0.2-0.7,0.5-1.3,0.9-1.7s0.9-0.6,1.5-0.6
			c0.5,0,0.8,0.1,1.1,0.3C50.5,33.3,50.5,33.7,50.5,34.3z"/>
		<path class="st2" d="M54.7,34.9c-0.1,0.7-0.4,1.2-0.8,1.7c-0.4,0.4-1,0.7-1.7,0.7c-0.6,0-1-0.2-1.2-0.6c-0.3-0.4-0.3-0.9-0.2-1.6
			c0.2-0.7,0.5-1.3,0.9-1.7s1-0.6,1.6-0.6c0.5,0,1,0.2,1.3,0.5C54.8,33.7,54.8,34.2,54.7,34.9z M53.9,34.9c0.1-0.4,0.1-0.7,0-1
			c-0.1-0.4-0.4-0.6-0.9-0.6c-0.4,0-0.8,0.2-1,0.5c-0.3,0.3-0.4,0.7-0.5,1.2c-0.1,0.4-0.1,0.8,0.1,1.1c0.1,0.3,0.4,0.4,0.8,0.4
			c0.5,0,0.8-0.2,1.1-0.5C53.7,35.7,53.9,35.3,53.9,34.9z"/>
		<path class="st2" d="M56,32.9h0.7l-0.1,0.6c0.2-0.2,0.4-0.4,0.5-0.5c0.3-0.2,0.5-0.2,0.8-0.2s0.6,0.1,0.8,0.2
			c0.1,0.1,0.2,0.2,0.2,0.4c0.2-0.2,0.4-0.4,0.7-0.5c0.2-0.1,0.5-0.2,0.7-0.2c0.6,0,0.9,0.2,1,0.6c0.1,0.2,0.1,0.5,0,0.9L60.7,37H60
			l0.6-2.9c0.1-0.3,0-0.5-0.1-0.6s-0.3-0.2-0.5-0.2c-0.3,0-0.5,0.1-0.8,0.3c-0.2,0.2-0.4,0.5-0.5,0.9l-0.5,2.4h-0.7l0.6-2.7
			c0.1-0.3,0.1-0.5,0-0.6c-0.1-0.2-0.2-0.3-0.5-0.3s-0.5,0.1-0.8,0.3s-0.5,0.6-0.6,1.1l-0.5,2.2H55L56,32.9z"/>
		<path class="st2" d="M63.3,32.9l-0.6,2.8c0,0.2,0,0.4,0,0.5c0.1,0.3,0.3,0.4,0.6,0.4c0.5,0,0.9-0.2,1.1-0.7c0.1-0.2,0.3-0.6,0.3-1
			l0.4-2.1H66L65.1,37h-0.7l0.1-0.6c-0.1,0.2-0.3,0.3-0.4,0.4c-0.3,0.2-0.7,0.3-1,0.3c-0.6,0-1-0.2-1.1-0.6c-0.1-0.2-0.1-0.5,0-0.9
			l0.6-2.9h0.7V32.9z"/>
		<path class="st2" d="M67.1,32.9h0.7l-0.1,0.6c0.3-0.2,0.5-0.4,0.7-0.5s0.5-0.2,0.8-0.2c0.6,0,1,0.2,1.1,0.6c0.1,0.2,0.1,0.6,0,1
			l-0.6,2.7H69l0.6-2.6c0.1-0.3,0.1-0.5,0-0.6c-0.1-0.3-0.3-0.4-0.6-0.4c-0.2,0-0.3,0-0.4,0.1c-0.2,0.1-0.4,0.2-0.6,0.3
			c-0.1,0.1-0.3,0.3-0.3,0.4c-0.1,0.1-0.1,0.4-0.2,0.6L67,37.1h-0.7L67.1,32.9z"/>
		<path class="st2" d="M71.6,32.9h0.7l-0.9,4.2h-0.7L71.6,32.9z M71.9,31.3h0.7l-0.2,0.8h-0.7L71.9,31.3z"/>
		<path class="st2" d="M75.6,33c0.1,0.1,0.2,0.2,0.3,0.4l0.5-2.1h0.7l-1.2,5.8h-0.6l0.1-0.6c-0.2,0.3-0.5,0.4-0.7,0.6
			c-0.2,0.1-0.5,0.2-0.8,0.2c-0.5,0-0.8-0.2-1.1-0.6c-0.3-0.4-0.3-0.9-0.2-1.6c0.1-0.6,0.4-1.1,0.8-1.6c0.4-0.4,0.9-0.7,1.5-0.7
			C75.2,32.8,75.4,32.9,75.6,33z M74.2,36.6c0.3,0,0.6-0.1,0.9-0.4c0.3-0.3,0.5-0.7,0.6-1.2s0.1-0.9-0.1-1.2s-0.4-0.4-0.7-0.4
			c-0.4,0-0.7,0.1-0.9,0.4c-0.3,0.3-0.5,0.7-0.6,1.2c-0.1,0.4-0.1,0.8,0,1.1C73.5,36.4,73.8,36.6,74.2,36.6z"/>
		<path class="st2" d="M79.7,34.5c0.2,0,0.3-0.1,0.4-0.2c0-0.1,0.1-0.2,0.1-0.3c0.1-0.2,0-0.4-0.1-0.5s-0.4-0.2-0.7-0.2
			c-0.4,0-0.7,0.1-0.8,0.3c-0.1,0.1-0.2,0.3-0.3,0.5h-0.7c0.1-0.5,0.4-0.9,0.7-1.1c0.4-0.2,0.8-0.3,1.2-0.3c0.5,0,0.9,0.1,1.1,0.3
			c0.3,0.2,0.4,0.5,0.3,0.9l-0.5,2.4c0,0.1,0,0.1,0,0.2c0,0,0.1,0.1,0.2,0.1h0.1h0.1l-0.1,0.5c-0.1,0-0.2,0.1-0.3,0.1
			c-0.1,0-0.1,0-0.2,0c-0.2,0-0.4-0.1-0.5-0.3c0-0.1-0.1-0.2,0-0.4c-0.2,0.2-0.4,0.4-0.7,0.5c-0.3,0.1-0.6,0.2-0.9,0.2
			c-0.4,0-0.7-0.1-0.9-0.4c-0.2-0.2-0.3-0.5-0.2-0.9c0.1-0.4,0.3-0.7,0.6-0.9c0.3-0.2,0.6-0.3,1-0.4L79.7,34.5z M78.3,36.6
			c0.2,0,0.5-0.1,0.8-0.2c0.4-0.2,0.7-0.5,0.8-0.9l0.1-0.6C79.9,35,79.8,35,79.6,35c-0.1,0-0.3,0.1-0.4,0.1l-0.4,0.1
			c-0.3,0-0.5,0.1-0.6,0.2c-0.2,0.1-0.4,0.3-0.5,0.6c0,0.2,0,0.4,0.1,0.5C77.9,36.5,78.1,36.6,78.3,36.6z"/>
		<path class="st2" d="M84.6,33c0.1,0.1,0.2,0.2,0.3,0.4l0.5-2.1H86l-1.2,5.8h-0.6l0.1-0.6c-0.2,0.3-0.5,0.4-0.7,0.6
			c-0.2,0.1-0.5,0.2-0.8,0.2c-0.5,0-0.8-0.2-1.1-0.6c-0.3-0.4-0.3-0.9-0.2-1.6c0.1-0.6,0.4-1.1,0.8-1.6c0.4-0.4,0.9-0.7,1.5-0.7
			C84.1,32.8,84.4,32.9,84.6,33z M83.1,36.6c0.3,0,0.6-0.1,0.9-0.4c0.3-0.3,0.5-0.7,0.6-1.2s0.1-0.9-0.1-1.2s-0.4-0.4-0.7-0.4
			c-0.4,0-0.7,0.1-0.9,0.4c-0.3,0.3-0.5,0.7-0.6,1.2c-0.1,0.4-0.1,0.8,0,1.1C82.4,36.4,82.7,36.6,83.1,36.6z"/>
		<path class="st2" d="M91.2,33c0.1,0.1,0.2,0.2,0.3,0.4l0.5-2.1h0.7l-1.2,5.8h-0.6l0.1-0.6c-0.2,0.3-0.5,0.4-0.7,0.6
			c-0.2,0.1-0.5,0.2-0.8,0.2c-0.5,0-0.8-0.2-1.1-0.6c-0.3-0.4-0.3-0.9-0.2-1.6c0.1-0.6,0.4-1.1,0.8-1.6c0.4-0.4,0.9-0.7,1.5-0.7
			C90.8,32.8,91.1,32.9,91.2,33z M89.8,36.6c0.3,0,0.6-0.1,0.9-0.4c0.3-0.3,0.5-0.7,0.6-1.2s0.1-0.9-0.1-1.2s-0.4-0.4-0.7-0.4
			c-0.4,0-0.7,0.1-0.9,0.4c-0.3,0.3-0.5,0.7-0.6,1.2c-0.1,0.4-0.1,0.8,0,1.1C89.1,36.4,89.4,36.6,89.8,36.6z"/>
		<path class="st2" d="M96.5,33.5c0.1,0.2,0.1,0.5,0.1,0.7s0,0.5-0.1,0.9h-3.1c-0.1,0.4-0.1,0.8,0.1,1c0.1,0.3,0.4,0.4,0.8,0.4
			s0.7-0.1,1-0.4c0.2-0.1,0.3-0.3,0.4-0.5h0.7c-0.1,0.2-0.1,0.3-0.3,0.5c-0.1,0.2-0.3,0.3-0.4,0.5c-0.3,0.2-0.6,0.3-0.9,0.4
			c-0.2,0-0.4,0.1-0.6,0.1c-0.5,0-0.9-0.2-1.2-0.6c-0.3-0.4-0.3-0.9-0.2-1.6c0.1-0.7,0.4-1.2,0.9-1.6c0.5-0.4,1-0.6,1.6-0.6
			c0.3,0,0.6,0.1,0.8,0.2C96.3,33.1,96.4,33.3,96.5,33.5z M95.9,34.6c0-0.3,0-0.5,0-0.7c-0.1-0.3-0.4-0.5-0.9-0.5
			c-0.3,0-0.6,0.1-0.9,0.4c-0.3,0.2-0.4,0.5-0.5,0.9h2.3V34.6z"/>
		<path class="st2" d="M100.5,31.7h0.7l-0.3,1.2h0.7l-0.1,0.6h-0.7l-0.6,2.7c0,0.1,0,0.2,0.1,0.3c0,0,0.1,0,0.3,0h0.1h0.1l-0.1,0.6
			c-0.1,0-0.2,0-0.3,0.1c-0.1,0-0.2,0-0.3,0c-0.3,0-0.5-0.1-0.6-0.3s-0.1-0.4,0-0.7l0.6-2.8h-0.6l0.1-0.6h0.6L100.5,31.7z"/>
		<path class="st2" d="M102.4,32.9h0.7l-0.2,0.7c0.1-0.1,0.3-0.3,0.5-0.5c0.3-0.2,0.5-0.3,0.8-0.3c0,0,0,0,0.1,0c0,0,0.1,0,0.2,0
			l-0.2,0.7h-0.1h-0.1c-0.4,0-0.7,0.1-0.9,0.3c-0.2,0.2-0.4,0.5-0.5,0.8l-0.5,2.4h-0.7L102.4,32.9z"/>
		<path class="st2" d="M106.9,34.5c0.2,0,0.3-0.1,0.4-0.2c0-0.1,0.1-0.2,0.1-0.3c0.1-0.2,0-0.4-0.1-0.5s-0.4-0.2-0.7-0.2
			c-0.4,0-0.7,0.1-0.8,0.3c-0.1,0.1-0.2,0.3-0.3,0.5h-0.7c0.1-0.5,0.4-0.9,0.7-1.1c0.4-0.2,0.8-0.3,1.2-0.3c0.5,0,0.9,0.1,1.1,0.3
			c0.3,0.2,0.4,0.5,0.3,0.9l-0.5,2.4c0,0.1,0,0.1,0,0.2c0,0,0.1,0.1,0.2,0.1h0.1h0.1l-0.1,0.5c-0.1,0-0.2,0.1-0.3,0.1
			c-0.1,0-0.1,0-0.2,0c-0.2,0-0.4-0.1-0.5-0.3c0-0.1-0.1-0.2,0-0.4c-0.2,0.2-0.4,0.4-0.7,0.5c-0.3,0.1-0.6,0.2-0.9,0.2
			c-0.4,0-0.7-0.1-0.9-0.4c-0.2-0.2-0.3-0.5-0.2-0.9c0.1-0.4,0.3-0.7,0.6-0.9c0.3-0.2,0.6-0.3,1-0.4L106.9,34.5z M105.5,36.6
			c0.2,0,0.5-0.1,0.8-0.2c0.4-0.2,0.7-0.5,0.8-0.9l0.1-0.6c-0.1,0.1-0.2,0.1-0.4,0.1c-0.1,0-0.3,0.1-0.4,0.1l-0.4,0.1
			c-0.3,0-0.5,0.1-0.6,0.2c-0.2,0.1-0.4,0.3-0.5,0.6c0,0.2,0,0.4,0.1,0.5C105.1,36.5,105.3,36.6,105.5,36.6z"/>
		<path class="st2" d="M109.5,32.9h0.7l-0.1,0.6c0.3-0.2,0.5-0.4,0.7-0.5s0.5-0.2,0.8-0.2c0.6,0,1,0.2,1.1,0.6c0.1,0.2,0.1,0.6,0,1
			l-0.6,2.7h-0.7l0.6-2.6c0.1-0.3,0.1-0.5,0-0.6c-0.1-0.3-0.3-0.4-0.6-0.4c-0.2,0-0.3,0-0.4,0.1c-0.2,0.1-0.4,0.2-0.6,0.3
			c-0.1,0.1-0.3,0.3-0.3,0.4c-0.1,0.1-0.1,0.4-0.2,0.6l-0.5,2.2h-0.7L109.5,32.9z"/>
		<path class="st2" d="M113.7,35.8c0,0.2,0,0.4,0.1,0.5c0.1,0.2,0.4,0.3,0.8,0.3c0.3,0,0.5-0.1,0.7-0.2c0.2-0.1,0.4-0.3,0.4-0.5
			s0-0.3-0.2-0.4c-0.1-0.1-0.3-0.1-0.6-0.2l-0.5-0.1c-0.3-0.1-0.6-0.2-0.7-0.3c-0.3-0.2-0.4-0.5-0.3-0.8c0.1-0.4,0.3-0.7,0.6-1
			c0.3-0.2,0.7-0.4,1.2-0.4c0.6,0,1,0.2,1.2,0.6c0.1,0.2,0.2,0.5,0.1,0.8h-0.7c0-0.2,0-0.3-0.1-0.4c-0.1-0.2-0.4-0.3-0.8-0.3
			c-0.3,0-0.5,0.1-0.6,0.2c-0.2,0.1-0.3,0.2-0.3,0.4s0,0.3,0.2,0.4c0.1,0.1,0.2,0.1,0.4,0.2l0.4,0.1c0.5,0.1,0.8,0.2,0.9,0.4
			c0.2,0.2,0.3,0.5,0.2,0.8c-0.1,0.4-0.3,0.7-0.6,1c-0.3,0.3-0.8,0.4-1.4,0.4s-1-0.1-1.2-0.4c-0.2-0.3-0.3-0.6-0.2-1.1H113.7z"/>
		<path class="st2" d="M117.9,32.9h0.7l-0.1,0.6c0.2-0.2,0.4-0.3,0.6-0.4c0.3-0.2,0.6-0.2,0.9-0.2c0.5,0,0.8,0.2,1.1,0.5
			c0.3,0.4,0.3,0.9,0.2,1.6c-0.2,0.9-0.6,1.6-1.1,2c-0.4,0.2-0.7,0.4-1.1,0.4c-0.3,0-0.6-0.1-0.8-0.2c-0.1-0.1-0.2-0.2-0.3-0.4
			l-0.5,2.1h-0.7L117.9,32.9z M120.4,34.9c0.1-0.3,0.1-0.6,0-0.9c-0.1-0.5-0.4-0.7-0.9-0.7s-0.9,0.2-1.2,0.7c-0.2,0.3-0.3,0.6-0.4,1
			c-0.1,0.3-0.1,0.6,0,0.8c0.1,0.4,0.4,0.7,0.9,0.7c0.3,0,0.6-0.1,0.9-0.4C120.1,35.9,120.3,35.5,120.4,34.9z"/>
		<path class="st2" d="M125.6,34.9c-0.1,0.7-0.4,1.2-0.8,1.7c-0.4,0.4-1,0.7-1.7,0.7c-0.6,0-1-0.2-1.2-0.6c-0.3-0.4-0.3-0.9-0.2-1.6
			c0.2-0.7,0.5-1.3,0.9-1.7s1-0.6,1.6-0.6c0.5,0,1,0.2,1.3,0.5C125.7,33.7,125.7,34.2,125.6,34.9z M124.9,34.9c0.1-0.4,0.1-0.7,0-1
			c-0.1-0.4-0.4-0.6-0.9-0.6c-0.4,0-0.8,0.2-1,0.5c-0.3,0.3-0.4,0.7-0.5,1.2c-0.1,0.4-0.1,0.8,0.1,1.1c0.1,0.3,0.4,0.4,0.8,0.4
			c0.5,0,0.8-0.2,1.1-0.5C124.6,35.7,124.8,35.3,124.9,34.9z"/>
		<path class="st2" d="M126.9,32.9h0.7l-0.2,0.7c0.1-0.1,0.3-0.3,0.5-0.5c0.3-0.2,0.5-0.3,0.8-0.3c0,0,0,0,0.1,0c0,0,0.1,0,0.2,0
			l-0.2,0.7h-0.1h-0.1c-0.4,0-0.7,0.1-0.9,0.3c-0.2,0.2-0.4,0.5-0.5,0.8l-0.5,2.4H126L126.9,32.9z"/>
		<path class="st2" d="M129.9,31.7h0.7l-0.3,1.2h0.7l-0.1,0.6h-0.7l-0.6,2.7c0,0.1,0,0.2,0.1,0.3c0,0,0.1,0,0.3,0h0.1h0.1l-0.1,0.6
			c-0.1,0-0.2,0-0.3,0.1c-0.1,0-0.2,0-0.3,0c-0.3,0-0.5-0.1-0.6-0.3s-0.1-0.4,0-0.7l0.6-2.8H129l0.1-0.6h0.6L129.9,31.7z"/>
		<path class="st2" d="M134.9,33.5c0.1,0.2,0.1,0.5,0.1,0.7s0,0.5-0.1,0.9h-3.1c-0.1,0.4-0.1,0.8,0.1,1c0.1,0.3,0.4,0.4,0.8,0.4
			c0.4,0,0.7-0.1,1-0.4c0.2-0.1,0.3-0.3,0.4-0.5h0.7c-0.1,0.2-0.1,0.3-0.3,0.5c-0.1,0.2-0.3,0.3-0.4,0.5c-0.3,0.2-0.6,0.3-0.9,0.4
			c-0.2,0-0.4,0.1-0.6,0.1c-0.5,0-0.9-0.2-1.2-0.6c-0.3-0.4-0.3-0.9-0.2-1.6c0.1-0.7,0.4-1.2,0.9-1.6c0.5-0.4,1-0.6,1.6-0.6
			c0.3,0,0.6,0.1,0.8,0.2C134.6,33.1,134.8,33.3,134.9,33.5z M134.3,34.6c0-0.3,0-0.5,0-0.7c-0.1-0.3-0.4-0.5-0.9-0.5
			c-0.3,0-0.6,0.1-0.9,0.4c-0.3,0.2-0.4,0.5-0.5,0.9h2.3L134.3,34.6L134.3,34.6z"/>
		<path class="st2" d="M141.6,33.5c0.1,0.2,0.1,0.5,0.1,0.7s0,0.5-0.1,0.9h-3.1c-0.1,0.4-0.1,0.8,0.1,1c0.1,0.3,0.4,0.4,0.8,0.4
			c0.4,0,0.7-0.1,1-0.4c0.2-0.1,0.3-0.3,0.4-0.5h0.7c-0.1,0.2-0.1,0.3-0.3,0.5c-0.1,0.2-0.3,0.3-0.4,0.5c-0.3,0.2-0.6,0.3-0.9,0.4
			c-0.2,0-0.4,0.1-0.6,0.1c-0.5,0-0.9-0.2-1.2-0.6c-0.3-0.4-0.3-0.9-0.2-1.6c0.1-0.7,0.4-1.2,0.9-1.6c0.5-0.4,1-0.6,1.6-0.6
			c0.3,0,0.6,0.1,0.8,0.2C141.3,33.1,141.5,33.3,141.6,33.5z M140.9,34.6c0-0.3,0-0.5,0-0.7c-0.1-0.3-0.4-0.5-0.9-0.5
			c-0.3,0-0.6,0.1-0.9,0.4c-0.3,0.2-0.4,0.5-0.5,0.9h2.3L140.9,34.6L140.9,34.6z"/>
		<path class="st2" d="M142.9,32.9h0.7l-0.1,0.6c0.3-0.2,0.5-0.4,0.7-0.5s0.5-0.2,0.8-0.2c0.6,0,1,0.2,1.1,0.6c0.1,0.2,0.1,0.6,0,1
			l-0.6,2.7h-0.7l0.6-2.6c0.1-0.3,0.1-0.5,0-0.6c-0.1-0.3-0.3-0.4-0.6-0.4c-0.2,0-0.3,0-0.4,0.1c-0.2,0.1-0.4,0.2-0.6,0.3
			c-0.1,0.1-0.3,0.3-0.3,0.4c-0.1,0.1-0.1,0.4-0.2,0.6l-0.5,2.2H142L142.9,32.9z"/>
		<path class="st2" d="M150,31.3h0.7l-1.2,5.8h-0.7L150,31.3z"/>
		<path class="st2" d="M151.6,32.9h0.7l-0.9,4.2h-0.7L151.6,32.9z M153.1,31.2l-1.2,1.1h-0.5l0.8-1.1
			C152.2,31.2,153.1,31.2,153.1,31.2z"/>
		<path class="st2" d="M153.6,32.9h0.7l-0.1,0.6c0.3-0.2,0.5-0.4,0.7-0.5s0.5-0.2,0.8-0.2c0.6,0,1,0.2,1.1,0.6c0.1,0.2,0.1,0.6,0,1
			l-0.6,2.7h-0.7l0.6-2.6c0.1-0.3,0.1-0.5,0-0.6c-0.1-0.3-0.3-0.4-0.6-0.4c-0.2,0-0.3,0-0.4,0.1c-0.2,0.1-0.4,0.2-0.6,0.3
			c-0.1,0.1-0.3,0.3-0.3,0.4c-0.1,0.1-0.1,0.4-0.2,0.6l-0.5,2.2h-0.7L153.6,32.9z"/>
		<path class="st2" d="M161.2,33.5c0.1,0.2,0.1,0.5,0.1,0.7s0,0.5-0.1,0.9h-3.1c-0.1,0.4-0.1,0.8,0.1,1c0.1,0.3,0.4,0.4,0.8,0.4
			c0.4,0,0.7-0.1,1-0.4c0.2-0.1,0.3-0.3,0.4-0.5h0.7c-0.1,0.2-0.1,0.3-0.3,0.5c-0.1,0.2-0.3,0.3-0.4,0.5c-0.3,0.2-0.6,0.3-0.9,0.4
			c-0.2,0-0.4,0.1-0.6,0.1c-0.5,0-0.9-0.2-1.2-0.6c-0.3-0.4-0.3-0.9-0.2-1.6c0.1-0.7,0.4-1.2,0.9-1.6c0.5-0.4,1-0.6,1.6-0.6
			c0.3,0,0.6,0.1,0.8,0.2C160.9,33.1,161.1,33.3,161.2,33.5z M160.6,34.6c0-0.3,0-0.5,0-0.7c-0.1-0.3-0.4-0.5-0.9-0.5
			c-0.3,0-0.6,0.1-0.9,0.4c-0.3,0.2-0.4,0.5-0.5,0.9h2.3L160.6,34.6L160.6,34.6z"/>
		<path class="st2" d="M164.4,34.5c0.2,0,0.3-0.1,0.4-0.2c0-0.1,0.1-0.2,0.1-0.3c0.1-0.2,0-0.4-0.1-0.5s-0.4-0.2-0.7-0.2
			c-0.4,0-0.7,0.1-0.8,0.3c-0.1,0.1-0.2,0.3-0.3,0.5h-0.7c0.1-0.5,0.4-0.9,0.7-1.1c0.4-0.2,0.8-0.3,1.2-0.3c0.5,0,0.9,0.1,1.1,0.3
			c0.3,0.2,0.4,0.5,0.3,0.9l-0.5,2.4c0,0.1,0,0.1,0,0.2c0,0,0.1,0.1,0.2,0.1h0.1h0.1l-0.1,0.5c-0.1,0-0.2,0.1-0.3,0.1s-0.1,0-0.2,0
			c-0.2,0-0.4-0.1-0.5-0.3c0-0.1-0.1-0.2,0-0.4c-0.2,0.2-0.4,0.4-0.7,0.5s-0.6,0.2-0.9,0.2c-0.4,0-0.7-0.1-0.9-0.4
			c-0.2-0.2-0.3-0.5-0.2-0.9s0.3-0.7,0.6-0.9s0.6-0.3,1-0.4L164.4,34.5z M163,36.6c0.2,0,0.5-0.1,0.8-0.2c0.4-0.2,0.7-0.5,0.8-0.9
			l0.1-0.6c-0.1,0.1-0.2,0.1-0.4,0.1c-0.1,0-0.3,0.1-0.4,0.1l-0.4,0.1c-0.3,0-0.5,0.1-0.6,0.2c-0.2,0.1-0.4,0.3-0.5,0.6
			c0,0.2,0,0.4,0.1,0.5C162.7,36.5,162.8,36.6,163,36.6z"/>
	</g>
</g>
</svg>
