<?xml version="1.0" encoding="UTF-8"?>
<svg width="333px" height="98px" viewBox="0 0 333 98" version="1.1" xmlns="http://www.w3.org/2000/svg" xmlns:xlink="http://www.w3.org/1999/xlink">
    <!-- Generator: Sketch 51.3 (57544) - http://www.bohemiancoding.com/sketch -->
    <title>Modificado V3</title>
    <desc>Created with Sketch.</desc>
    <defs></defs>
    <g id="Modificado-V3" stroke="none" stroke-width="1" fill="none" fill-rule="evenodd">
        <g id="TT" transform="translate(1.000000, 1.000000)" fill="#131420">
            <g id="Logo-v3-briq">
                <polygon id="Fill-7" points="36.6074775 59.4726424 18.2967033 59.4726424 18.2967033 77.7830189 36.6074775 77.7830189 36.6074775 96.0849057 54.8872622 96.0849057 54.8872622 41.1792453 36.6074775 41.1792453"></polygon>
                <polygon id="Fill-7" transform="translate(18.295279, 32.028302) rotate(-180.000000) translate(-18.295279, -32.028302) " points="18.3107742 22.8688688 0 22.8688688 0 41.1792453 18.3107742 41.1792453 18.3107742 59.4811321 36.5905589 59.4811321 36.5905589 4.5754717 18.3107742 4.5754717"></polygon>
                <path d="M119.618971,51.2255522 C119.618971,42.9646472 114.130559,37.4908195 107.044713,37.4908195 C100.15905,37.4908195 94.3698615,42.56635 94.3698615,51.2255522 C94.3698615,58.5915425 99.3603329,64.9612882 106.944119,64.9612882 C113.930377,64.9612882 119.618971,59.4864572 119.618971,51.2255522 Z M94.5700437,72.5249222 L94.5700437,78.2385309 L80,78.2385309 L80,5 L94.5700437,5 L94.5700437,30.3244794 L95.6675249,30.3244794 C98.1632636,27.2384284 102.554194,23.65576 110.637933,23.65576 C124.209078,23.65576 134.388191,35.7983071 134.388191,51.1262287 C134.388191,66.8524475 123.411367,78.6960209 109.839216,78.6960209 C102.354012,78.6960209 98.1632636,75.8106234 95.6675249,72.5249222 L94.5700437,72.5249222 Z" id="Fill-9"></path>
                <path d="M157.470456,24 L157.470456,32.4324637 L158.368761,32.4324637 C160.664317,27.9528741 165.852959,24 171.840317,24 L176.032072,24 L176.032072,38.4310004 L170.643248,38.4310004 C162.660103,38.4310004 157.470456,43.4082107 157.470456,53.162981 L157.470456,78.1301542 L143,78.1301542 L143,24 L157.470456,24 Z" id="Fill-10"></path>
                <path d="M190.711538,7.87403725 C190.711538,3.46839342 194.189173,0 198.887911,0 C203.491916,0 206.969551,3.46839342 206.969551,7.87403725 C206.969551,12.3722724 203.491916,15.8406658 198.887911,15.8406658 C194.189173,15.8406658 190.711538,12.3722724 190.711538,7.87403725 Z M183.711538,37.0393773 L183.711538,23 L206.864267,23 L206.864267,77.1764475 L192.773845,77.1764475 L192.773845,37.0393773 L183.711538,37.0393773 Z" id="Fill-11"></path>
                <path d="M256.017323,50.4704687 C256.017323,43.1044784 251.027858,36.8350595 243.542654,36.8350595 C236.457814,36.8350595 230.868808,42.3088872 230.868808,50.4704687 C230.868808,58.7313737 236.35722,64.3055282 243.343478,64.3055282 C250.328729,64.3055282 256.017323,59.2289944 256.017323,50.4704687 Z M255.818147,72.374809 L254.720666,71.3715415 C252.224927,74.5559127 247.93459,78.0402609 239.751264,78.0402609 C226.179113,78.0402609 216,65.9980405 216,50.5697922 C216,34.8435734 227.077418,23 240.649569,23 C248.133767,23 252.025751,25.8864007 254.820254,29.1710987 L255.917735,29.1710987 L255.917735,23 L270.305566,23 L270.305566,96.2333872 L255.818147,96.2333872 L255.818147,71.3715415 L255.818147,72.374809 Z" id="Fill-12"></path>
                <path d="M281,39.4268302 C281,38.0981132 282.010893,37 283.512137,37 C285.014297,37 285.967555,38.0981132 285.967555,39.4268302 C285.967555,40.7555472 285.014297,41.8536604 283.512137,41.8536604 C282.010893,41.8536604 281,40.7555472 281,39.4268302" id="Fill-13"></path>
                <path d="M290,25.3961633 L294.495702,25.3961633 L294.495702,26.8610014 L294.834172,26.8610014 C295.38821,26.0068346 296.620163,25 298.530032,25 C300.654492,25 302.008373,25.9759145 302.809191,27.3489587 L303.147661,27.3489587 C303.978717,26.0976623 305.426238,25 307.643363,25 C310.999777,25 313.402232,27.4707064 313.402232,30.612958 L313.402232,41.4716981 L308.905555,41.4716981 L308.905555,32.1377036 C308.905555,30.2767023 307.858931,29.3007877 306.473837,29.3007877 C305.056555,29.3007877 303.94848,30.3385424 303.94848,32.1377036 L303.94848,41.4716981 L299.483991,41.4716981 L299.483991,31.7415403 C299.483991,30.2158284 298.37494,29.3007877 296.989846,29.3007877 C295.604753,29.3007877 294.495702,30.3994163 294.495702,32.0768298 L294.495702,41.4716981 L290,41.4716981 L290,25.3961633" id="Fill-14"></path>
                <polyline id="Fill-15" points="320.20288 32.5957071 315.183379 25 320.448686 25 323.035495 29.6370434 323.373965 29.6370434 325.991987 25 331.226081 25 326.391909 32.9309965 331.369814 41.4716981 326.104507 41.4716981 323.343727 35.9205803 323.005257 35.9205803 320.20288 41.4716981 315 41.4716981"></polyline>
            </g>
        </g>
    </g>
</svg>