<?xml version="1.0" encoding="utf-8"?>
<!-- Generator: Adobe Illustrator 20.0.0, SVG Export Plug-In . SVG Version: 6.00 Build 0)  -->
<svg version="1.1" id="Layer_1" xmlns="http://www.w3.org/2000/svg" xmlns:xlink="http://www.w3.org/1999/xlink" x="0px" y="0px"
	 viewBox="0 0 200 40" style="enable-background:new 0 0 200 40;" xml:space="preserve">
<style type="text/css">
	.st0{fill:#44BC00;}
	.st1{fill:#00C1E1;}
	.st2{fill:#FF008F;}
	.st3{fill:#006EB2;}
	.st4{fill:none;}
	.st5{fill:#00038E;}
</style>
<g>
	<g>
		<path class="st0" d="M27.4,30.4c-1.9-1.1-2.9-2.6-4.9-6.4c-0.8,0.2-1.6,0.2-2.5,0.2h0c-3.5,0-4.1-2-4.2-2.7
			c-0.2-1.6,0.7-3.2,2.2-3.7c0.8-0.2,2.8-0.5,4.4,2.9c0.3,0.5,0.5,1.1,0.8,1.5c2.3-0.8,3.4-2.6,4.1-4.9c0.8-3.7-0.6-6.8-3.6-8.6
			C20.5,7,16.3,7.4,13.6,9.8c-1.1,1-1.9,2-2.7,3c3,4.5,4,9.3,2.9,16.2l0,0c-0.7,3.4-2.3,3.5-3.1,3.5c0,0-0.1,0-0.1,0
			c-2-0.1-3.6-2.5-4-6.5c-0.3-2.8-0.8-7.7,2.6-13.2C8.1,11.3,6.7,9.9,5,8.7c-2.7,3.1-4.3,7.1-4.3,11.5c0,9.8,7.9,17.7,17.7,17.7
			c5.6,0,10.6-2.6,13.9-6.7C30.5,31.6,29,31.4,27.4,30.4z"/>
		<path class="st1" d="M36.2,20.2c0-9.8-7.9-17.7-17.7-17.7c-4.9,0-9.3,2-12.5,5.2c1.6,1.2,3,2.5,4.2,4c0.7-1,1.6-1.9,2.6-2.8
			c3.2-2.8,8-3.3,11.8-1.1c3.6,2,5.2,5.8,4.3,10.1l0,0.1c-0.9,2.8-2.3,4.9-4.9,5.8c1.7,3.3,2.6,4.6,4.2,5.6c1.8,1,3.5,1,5.5,0.2
			C35.2,26.7,36.2,23.6,36.2,20.2z"/>
		<path class="st2" d="M18.9,19.3c-0.1,0-0.3,0-0.4,0.1c-0.8,0.2-1.4,1.2-1.2,2.1c0.1,0.9,1.2,1.5,2.8,1.5h0c0.6,0,1.3-0.1,1.8-0.2
			c-0.2-0.4-0.4-0.8-0.6-1.3C20.5,20,19.7,19.3,18.9,19.3"/>
		<path class="st3" d="M8.1,25.9c0.3,3.8,1.8,5.2,2.6,5.2c0.7,0,1.4-0.7,1.7-2.4c1-6.2,0.3-10.5-2.3-14.7C7.3,19,7.8,23.2,8.1,25.9"
			/>
		<path class="st4" d="M0.7,20.1c0,9.8,7.9,17.7,17.7,17.7c9.8,0,17.7-7.9,17.7-17.7c0-9.8-7.9-17.7-17.7-17.7
			C8.7,2.4,0.7,10.4,0.7,20.1"/>
		<path class="st5" d="M34.1,28.6l-1,0.4c-2,0.8-3.1,0.8-4.8-0.2h0c-1.4-0.8-2.2-1.9-3.8-4.9c2.2-1,3.7-2.9,4.7-6l0-0.1
			c1.1-4.1-0.8-8.5-4.5-10.6c-4.2-2.4-9.5-1.2-12.3,1.2c-1,0.8-1.7,1.7-2.3,2.5C9,9.6,7.9,8.6,6.4,7.5L6.2,7.3
			C5.7,7.9,5.1,8.4,4.7,9l0.3,0.2c1.6,1.1,2.7,2.2,3.8,3.6c-3.2,5.4-2.8,10.1-2.5,13l0,0.2c0.4,4.1,2.1,6.8,4.4,6.9c0,0,0.1,0,0.1,0
			c0.7,0,2.7,0,3.5-3.9l0,0c1.1-6.8,0.3-11.6-2.7-16.3c0.7-0.9,1.5-1.8,2.4-2.7c2.1-1.9,6.3-2.8,9.7-0.9c2.8,1.6,4.2,4.8,3.4,8.1
			c-0.8,2.4-1.8,3.8-3.5,4.5c-0.2-0.4-0.4-0.8-0.6-1.2c-1.8-3.6-4.1-3.4-5-3.1c-1.7,0.5-2.8,2.4-2.5,4.1c0.1,0.7,0.8,3.1,4.6,3.1h0
			c0.8,0,1.5-0.1,2.3-0.2c1.8,3.6,2.9,5.1,4.9,6.3c1.7,1,2.8,1.2,4.8,0.9C32.8,30.8,33.5,29.7,34.1,28.6z M12,28.7
			c-0.3,1.3-0.7,2-1.2,2c-0.6,0-1.9-1.3-2.2-4.8l0-0.2c-0.2-2.5-0.6-6.3,1.7-10.6C12.4,18.9,12.9,22.9,12,28.7z M20,22.4L20,22.4
			c-0.6,0-2.2-0.1-2.3-1.1c-0.1-0.6,0.4-1.4,0.9-1.6c0.1,0,0.2,0,0.2,0c0.6,0,1.3,0.7,2,2l0.4,0.7C20.8,22.4,20.4,22.4,20,22.4z"/>
	</g>
	<g>
		<path class="st5" d="M185.2,18.3c0-4.3-3.2-7.4-7.6-7.4S170,14,170,18.3V22c0,1.3,0.3,2.5,0.9,3.6h-1.4c-1.4,0-2.6-1.1-2.6-2.6
			v-5.6c0-4.1-2.6-6.6-6.8-6.6c-2,0-3.7,0.6-4.9,1.7c-1.2-1.1-2.8-1.7-4.9-1.7c-4.2,0-6.8,2.5-6.8,6.6v10c0,1,0.9,1.9,1.9,1.9
			s1.9-0.9,1.9-1.9v-10c0-2.5,1.4-2.8,3-2.8s3,0.3,3,2.8v10c0,1,0.9,1.9,1.9,1.9c1,0,1.9-0.9,1.9-1.9v-10c0-2.5,1.4-2.8,3-2.8
			c1.5,0,3,0.3,3,2.8v3.7v1.9c0,0.1,0,0.1,0,0.2c0.1,3.4,2.9,6.2,6.3,6.2h8.1h0h0c4.4,0,7.6-3.1,7.6-7.4V18.3z M181.4,22
			c0,2.6-2.1,3.6-3.8,3.6s-3.8-0.9-3.8-3.6v-3.8c0-2.6,2.1-3.6,3.8-3.6s3.8,0.9,3.8,3.6V22z"/>
		<path class="st5" d="M113.6,12.8c0-1-0.9-1.9-1.9-1.9h-5.1c-3.3,0-5.9,2.7-5.9,5.9v2.5v4.2c0,1.2-1,2.1-2.1,2.1h-2.3h-2.8h-1.9
			c-1.8,0-3.8-0.9-3.8-3.6v-0.3v-0.1h7.9c1.7,0,3.2-1.3,3.5-2.9c0-0.1,0.1-0.3,0.1-0.5c0,0,0-0.1,0-0.1c0,0,0,0,0-0.1
			c0,0,0-0.1,0-0.1c-0.1-4.1-3.3-7.1-7.6-7.1c-4.4,0-7.6,3.1-7.6,7.4v0.3v3.2V22c0,4.3,3.2,7.4,7.6,7.4h1.9h2.8h2.3
			c3.3,0,5.9-2.7,5.9-5.9v-4.2v-2.5c0-1.2,1-2.1,2.1-2.1h5.1C112.8,14.7,113.6,13.8,113.6,12.8z M91.6,14.7c1.7,0,3.6,0.8,3.8,3.2
			h-7.6C88,15.5,90,14.7,91.6,14.7z"/>
		<path class="st5" d="M56.1,11.2L56.1,11.2c0,0,0.1-0.1,0.1-0.1c0-0.1-0.1-0.2-0.2-0.2h-0.1h-5.1c-3.3,0-5.9,2.7-5.9,5.9v10.7
			c0,1,0.9,1.9,1.9,1.9s1.9-0.9,1.9-1.9V16.8c0-1.2,1-2.1,2.1-2.1h2c0.4,0,0.7-0.2,0.9-0.6l0,0C54.3,13,55.1,12,56.1,11.2z"/>
		<path class="st5" d="M135.1,10.9c-0.1,0-0.2,0-0.3,0h-8.4c-2.9,0-5.5,2-6.3,4.8l-0.1,0.5c0,0,0,0,0,0l-2.3,7.7
			c-0.1,0.4-0.5,0.7-0.9,0.7c-0.4,0-0.8-0.3-0.9-0.7l0,0l-1.9-6.6l0,0c-0.2-0.7-0.9-1.2-1.7-1.2h-2.1c-0.2,0-0.4,0.2-0.4,0.4
			c0,0,0,0.1,0,0.1l0,0l2.9,9.8c0.5,1.8,2.2,3.1,4.1,3.1c1.9,0,3.6-1.3,4.1-3.1l1.7-5.7c0,0,0,0,0,0l1.1-3.9l0,0
			c0.3-1.2,1.4-2,2.6-2h8.2c0.4,0,2.5,0.1,2.9,2h-5c-3.4,0-6.1,2.7-6.3,6c0,0.1,0,0.2,0,0.3c0,0,0,0,0,0.1c0,0,0,0,0,0.1
			c0,0.1,0,0.2,0,0.2c0.2,3.6,2.9,6.2,6.7,6.2h0.9h0.9c3.9,0,6.7-2.7,6.7-6.5v-2.4v-0.8v-2.2C141.4,13.9,138.8,11.2,135.1,10.9z
			 M137.6,20.5v2.4c0,2.6-2.4,2.7-2.9,2.7h-0.9h-0.9c-0.5,0-2.9-0.1-2.9-2.7c0-1.4,1.2-2.5,2.5-2.5L137.6,20.5L137.6,20.5z"/>
		<path class="st5" d="M194.3,18.2c-0.3-0.1-0.7-0.2-1-0.3c-2.2-0.7-2.7-1.1-2.7-1.8c0-0.6,0.4-1.4,1.5-1.4h4c1,0,1.9-0.9,1.9-1.9
			s-0.9-1.9-1.9-1.9h-4c-3,0-5.3,2.2-5.3,5.2c0,3.6,3.2,4.7,5.3,5.4c0.3,0.1,0.6,0.2,0.9,0.3c0.3,0.1,0.6,0.2,0.8,0.3
			c0.1,0,0.2,0.1,0.2,0.1c0.5,0.3,0.9,0.9,0.9,1.6c0,0.1,0,0.2,0,0.4c0,0.1,0,0.1,0,0.2l0,0c0,0.1-0.1,0.3-0.2,0.4c0,0,0,0,0,0
			c-0.3,0.6-0.9,0.9-1.6,0.9h-6.2c-0.4,0-0.8,0.3-1,0.6c-0.5,1.1-1.3,2-2.2,2.7c-0.1,0-0.1,0.1-0.1,0.2c0,0.1,0.1,0.2,0.2,0.2h9.5
			c1.6,0,3.1-0.7,4.1-2c0.8-1.1,1.3-2.4,1.3-3.7C198.8,20.2,196.3,18.9,194.3,18.2z"/>
		<path class="st5" d="M85.9,11.1c0-0.1-0.1-0.2-0.2-0.2h-0.6h-5h-0.8h-3.2h0c-1.7,0-3.2,0.7-4.1,1.9c-0.7,0.9-1.2,2-1.2,3.3
			c0,0.6,0.1,1.1,0.2,1.5c0.8,2.4,3.3,3.3,5.1,3.9c0.3,0.1,0.6,0.2,0.9,0.3c0.3,0.1,0.6,0.2,0.8,0.3c0.1,0,0.2,0.1,0.2,0.1
			c0.5,0.3,0.9,0.9,0.9,1.6c0,0.1,0,0.2,0,0.4c0,0.1,0,0.1,0,0.2l0,0c0,0.1-0.1,0.3-0.2,0.4l0,0c-0.3,0.6-0.9,0.9-1.6,0.9h-1.9h-3.9
			h-2.2h-7.2c-1.8,0-3.8-0.9-3.8-3.6v-0.4H66c2,0,3.6-1.6,3.6-3.5l0,0c-0.1-4.2-3.3-7.2-7.6-7.2c-4.4,0-7.6,3.1-7.6,7.4V22
			c0,4.3,3.2,7.4,7.6,7.4h7.2h2.2h3.9h2.1h0c1.6,0,3.1-0.7,4.1-2c0.6-0.8,1-1.7,1.2-2.7c0,0,0,0,0-0.1c0-0.1,0-0.1,0-0.2
			c0-0.3,0.1-0.5,0.1-0.8c0-0.4,0-0.8-0.1-1.2c-0.5-2.6-2.7-3.7-4.4-4.3c-0.3-0.1-0.7-0.2-1-0.3c-1.8-0.6-2.4-0.9-2.6-1.4
			c0-0.1-0.1-0.2-0.1-0.4c0-0.2,0.1-0.5,0.2-0.7c0.2-0.4,0.6-0.7,1.3-0.7h3.2h0.8h2.4c0.4,0,0.7-0.2,0.9-0.5
			c0.6-1.2,1.4-2.2,2.4-2.9l0,0C85.9,11.2,85.9,11.1,85.9,11.1z M61.9,14.7c1.7,0,3.6,0.8,3.8,3.2h-7.6
			C58.3,15.5,60.2,14.7,61.9,14.7z"/>
	</g>
</g>
</svg>
