<?xml version="1.0" encoding="utf-8"?>
<!-- Generator: Adobe Illustrator 19.2.0, SVG Export Plug-In . SVG Version: 6.00 Build 0)  -->
<svg version="1.1" id="Layer_1" xmlns="http://www.w3.org/2000/svg" xmlns:xlink="http://www.w3.org/1999/xlink" x="0px" y="0px"
	 viewBox="0 0 145 40" style="enable-background:new 0 0 145 40;" xml:space="preserve">
<style type="text/css">
	.st0{fill:#8DC63F;}
	.st1{fill:#808C90;}
	.st2{fill:#001822;}
</style>
<g>
	<path class="st0" d="M94.3,8l-4.4,4.1c3.2,2,5.4,5.6,5.4,9.6c0,1.3-0.2,2.6-0.7,3.8h-3.3v4.8c-2,1.7-4.6,2.7-7.4,2.7
		s-5.4-1-7.4-2.8v-4.7h-3.2c-0.4-1.2-0.7-2.5-0.7-3.8c0-5.7,4.3-10.5,9.8-11.2v1.9h1.4l5.4-5.1L82.5,1v3.6
		c-8.8,0.8-15.7,8.2-15.7,17.2C66.8,31.3,74.4,39,84,39c9.5,0,17.2-7.7,17.2-17.2C101.2,16.1,98.5,11.1,94.3,8z"/>
	<g>
		<circle class="st1" cx="84" cy="19.3" r="2.2"/>
		<circle class="st1" cx="84" cy="15.5" r="1.5"/>
	</g>
	<g>
		<circle class="st2" cx="80.1" cy="15.4" r="1.5"/>
		<circle class="st2" cx="87.9" cy="15.4" r="1.5"/>
		<path class="st2" d="M93.4,20L93.4,20l-2-4.5c-0.3-0.6-0.7-2-1.8-2.6c-0.8-0.5-3.7-0.7-5.7-0.7s-4.8,0.2-5.7,0.7
			c-1.1,0.6-1.5,1.9-1.8,2.6L74.6,20l0,0c-1.1,0.8-1.9,2.1-1.9,3.6c0,0.9,0.3,2.2,1.3,3.2c0.2,0.2,0.3,0.3,0.5,0.4
			c0,1.1,0,2.3,0,2.7c0,0.6,1,1.4,2,1.4s2-0.8,2-1.4c0-0.2,0-0.7,0-1.3c2.2,0.4,4.5,0.3,5.4,0.3s3.1,0,5.4-0.3c0,0.6,0,1.1,0,1.3
			c0,0.6,1,1.4,2,1.4s2-0.8,2-1.4c0-0.4,0-1.6,0-2.7c0.2-0.1,0.4-0.3,0.5-0.4c1-1,1.3-2.2,1.3-3.2C95.2,22.1,94.5,20.8,93.4,20z
			 M76.6,25.5c-1,0-1.9-0.8-1.9-1.9s0.8-1.9,1.9-1.9c1,0,1.9,0.8,1.9,1.9S77.6,25.5,76.6,25.5z M87.9,17.2c-0.8,0-1.5,0.5-1.9,1.1
			c-0.6,0-1.3,0-2,0s-1.3,0-1.9,0c-0.4-0.7-1.1-1.1-1.9-1.1c-1,0-1.9,0.7-2.1,1.6c-0.5,0.1-1,0.2-1.4,0.4c0.4-1.8,1.1-4.2,1.7-5
			c0.8-1,4.1-1.1,5.8-1.1s5,0.1,5.8,1.1c0.6,0.7,1.3,3.2,1.7,5c-0.4-0.1-0.9-0.2-1.4-0.4C89.8,17.8,88.9,17.2,87.9,17.2z M91.4,25.5
			c-1,0-1.9-0.8-1.9-1.9c0-1,0.8-1.9,1.9-1.9c1,0,1.9,0.8,1.9,1.9C93.3,24.6,92.4,25.5,91.4,25.5z"/>
	</g>
	<path class="st2" d="M13.6,31.1c-0.2,0-0.3-0.1-0.3-0.3v-1.1l0,0c-0.8,1.1-2.2,1.7-4.3,1.7c-2.8,0-5.2-1.5-5.2-4.8
		c0-3.5,2.6-5.1,6.5-5.1h2.8c0.1,0,0.1-0.1,0.1-0.2v-0.6c0-1.5-0.7-2.1-3.2-2.1c-1.6,0-2.7,0.5-3.5,1c-0.2,0.1-0.3,0.1-0.4-0.1
		l-1.5-2.6c-0.1-0.2-0.1-0.4,0.1-0.5c1.3-0.9,3.2-1.6,5.8-1.6c5.1,0,7,1.8,7,5.7v10.1c0,0.2-0.1,0.3-0.3,0.3h-3.6
		C13.6,30.9,13.6,31.1,13.6,31.1z M13.1,25.9v-1.1c0-0.1,0-0.2-0.1-0.2h-2.2c-1.9,0-2.8,0.5-2.8,1.8c0,1.1,0.8,1.6,2.2,1.6
		C12.2,28.1,13.1,27.4,13.1,25.9z"/>
	<path class="st2" d="M23.7,31.1c-0.2,0-0.3-0.1-0.4-0.3l-5.6-15c-0.1-0.2,0-0.3,0.3-0.3h4.1c0.2,0,0.4,0.1,0.4,0.3l3,9.3h0.1
		l2.9-9.3c0.1-0.2,0.2-0.3,0.4-0.3h4c0.2,0,0.3,0.1,0.3,0.3l-5.6,15c-0.1,0.2-0.2,0.3-0.4,0.3H23.7z"/>
	<path class="st2" d="M33.4,27c-0.3-1-0.6-2.1-0.6-3.7c0-1.7,0.2-2.8,0.5-3.8c0.9-2.8,3.4-4.4,6.7-4.4c3.5,0,5.9,1.7,6.8,4.4
		c0.3,1,0.5,2.2,0.5,4.8c0,0.2-0.1,0.3-0.4,0.3h-9.5c-0.1,0-0.2,0.1-0.2,0.2c0,0.3,0.1,0.6,0.2,0.9c0.4,1.4,1.6,2.1,3.2,2.1
		c1.6,0,2.7-0.6,3.6-1.4c0.2-0.1,0.3-0.2,0.5,0l2.1,2c0.2,0.1,0.2,0.3,0,0.5c-1.5,1.6-3.8,2.6-6.7,2.6C36.8,31.5,34.3,29.8,33.4,27z
		 M42.7,21.6c0.1,0,0.2-0.1,0.2-0.2c0-0.5-0.1-0.8-0.2-1.2c-0.4-1.1-1.3-1.7-2.6-1.7s-2.3,0.6-2.6,1.7c-0.1,0.3-0.2,0.7-0.2,1.2
		c0,0.1,0.1,0.2,0.2,0.2H42.7z"/>
	<path class="st2" d="M58.5,31.1c-0.2,0-0.3-0.1-0.3-0.3v-9c0-1.7-0.8-2.9-2.4-2.9s-2.5,1.1-2.5,2.9v9c0,0.2-0.2,0.3-0.4,0.3H49
		c-0.2,0-0.4-0.1-0.4-0.3v-15c0-0.2,0.2-0.3,0.4-0.3h3.9c0.2,0,0.4,0.1,0.4,0.3v1.1l0,0c0.7-0.9,2-1.8,4.1-1.8
		c3.5,0,5.4,2.4,5.4,5.9v9.9c0,0.2-0.1,0.3-0.3,0.3L58.5,31.1L58.5,31.1z"/>
	<path class="st2" d="M69.8,31.3c-3.6,0-5-1.6-5-5.2V19c0-0.1,0-0.2-0.1-0.2h-1c-0.2,0-0.4-0.1-0.4-0.3v-2.7c0-0.2,0.2-0.3,0.4-0.3
		h1c0.1,0,0.1-0.1,0.1-0.2V11c0-0.2,0.2-0.4,0.4-0.4h3.9c0.2,0,0.3,0.2,0.3,0.4v4.2c0,0.1,0.1,0.2,0.2,0.2h2c0.2,0,0.3,0.1,0.3,0.3
		v2.7c0,0.2-0.1,0.3-0.3,0.3h-2c-0.1,0-0.2,0.1-0.2,0.2v6.9c0,1.2,0.4,1.5,1.5,1.5h0.8c0.2,0,0.3,0.2,0.3,0.4V31
		c0,0.2-0.1,0.3-0.3,0.3H69.8z"/>
	<path class="st2" d="M106.5,31.1c-0.2,0-0.4-0.1-0.4-0.3v-9c0-1.7-0.8-2.9-2.4-2.9s-2.5,1.1-2.5,2.9v9c0,0.2-0.1,0.3-0.3,0.3H97
		c-0.2,0-0.3-0.1-0.3-0.3v-15c0-0.2,0.1-0.3,0.3-0.3h3.9c0.2,0,0.3,0.1,0.3,0.3v1.1h0.1c0.7-0.9,2.1-1.8,4.1-1.8
		c3.5,0,5.4,2.4,5.4,5.8v9.9c0,0.2-0.2,0.3-0.4,0.3H106.5z"/>
	<path class="st2" d="M112.4,27c-0.3-1-0.6-2.1-0.6-3.7c0-1.7,0.2-2.8,0.5-3.8c0.9-2.8,3.4-4.4,6.7-4.4c3.5,0,5.9,1.7,6.8,4.4
		c0.3,1,0.5,2.2,0.5,4.8c0,0.2-0.1,0.3-0.4,0.3h-9.5c-0.1,0-0.2,0.1-0.2,0.2c0,0.3,0.1,0.6,0.2,0.9c0.4,1.4,1.6,2.1,3.2,2.1
		s2.7-0.6,3.6-1.4c0.2-0.1,0.3-0.2,0.5,0l2.1,2c0.2,0.1,0.2,0.3,0,0.5c-1.5,1.6-3.8,2.6-6.7,2.6C115.8,31.5,113.3,29.8,112.4,27z
		 M121.8,21.6c0.1,0,0.2-0.1,0.2-0.2c0-0.5-0.1-0.8-0.2-1.2c-0.4-1.1-1.3-1.7-2.6-1.7c-1.3,0-2.3,0.6-2.6,1.7
		c-0.1,0.3-0.2,0.7-0.2,1.2c0,0.1,0.1,0.2,0.2,0.2H121.8z"/>
	<path class="st2" d="M127,29c-0.1-0.1-0.1-0.3,0-0.5l2.1-2.4c0.1-0.1,0.3-0.1,0.5,0c1.4,1.1,3.2,1.7,4.8,1.7c1.7,0,2.4-0.6,2.4-1.5
		c0-0.7-0.4-1.2-2.2-1.4l-1.7-0.2c-3.3-0.3-5.1-2-5.1-4.8c0-3.1,2.4-5,6.4-5c2.7,0,4.9,0.8,6.3,1.9c0.1,0.1,0.2,0.3,0,0.5l-1.8,2.2
		c-0.1,0.2-0.3,0.2-0.5,0.1c-1.1-0.7-2.6-1.3-4.2-1.3c-1.3,0-2,0.5-2,1.3c0,0.7,0.4,1.1,2.2,1.3l1.7,0.2c3.7,0.4,5.2,2.1,5.2,4.8
		c0,3.2-2.5,5.4-7,5.4C130.9,31.5,128.5,30.3,127,29z"/>
</g>
</svg>
