<?xml version="1.0" encoding="utf-8"?>
<!-- Generator: Adobe Illustrator 19.2.0, SVG Export Plug-In . SVG Version: 6.00 Build 0)  -->
<svg version="1.1" id="Layer_1" xmlns="http://www.w3.org/2000/svg" xmlns:xlink="http://www.w3.org/1999/xlink" x="0px" y="0px"
	 viewBox="0 0 200 40" style="enable-background:new 0 0 200 40;" xml:space="preserve">
<style type="text/css">
	.st0{fill:url(#SVGID_1_);}
	.st1{fill:#231F20;}
</style>
<g id="Color-logo">
	<g>
		<g>
			
				<linearGradient id="SVGID_1_" gradientUnits="userSpaceOnUse" x1="18.55" y1="4.4" x2="18.55" y2="39.6" gradientTransform="matrix(1 0 0 -1 0 42)">
				<stop  offset="0" style="stop-color:#F4A036"/>
				<stop  offset="1" style="stop-color:#FCB813"/>
			</linearGradient>
			<path class="st0" d="M18.5,37.6C8.8,37.6,0.9,29.7,0.9,20S8.8,2.4,18.5,2.4S36.1,10.3,36.1,20S28.2,37.6,18.5,37.6z M18.5,3.8
				c-9,0-16.2,7.3-16.2,16.2c0,9,7.3,16.2,16.2,16.2S34.7,28.9,34.7,20C34.8,11,27.5,3.8,18.5,3.8z"/>
		</g>
		<path d="M26.7,10.8c0-0.9-0.7-1.6-1.6-1.6H11.9c-0.9,0-1.6,0.7-1.6,1.6l-0.9,7.5v7.5c0,0.9,0.7,1.6,1.6,1.6l0,0v2.2
			c0,0.7,0.6,1.3,1.3,1.3h0.9c0.7,0,1.3-0.6,1.3-1.3v-2.2h7.9v2.2c0,0.7,0.6,1.3,1.3,1.3h0.9c0.7,0,1.3-0.6,1.3-1.3v-2.2l0,0
			c0.9,0,1.6-0.7,1.6-1.6v-7.5L26.7,10.8z M12.9,10h11.3c0.5,0,0.9,0.4,0.9,0.9s-0.4,0.9-0.9,0.9H12.9c-0.5,0-0.9-0.4-0.9-0.9
			C12,10.4,12.4,10,12.9,10z M12.6,25.5c-0.8,0-1.5-0.7-1.5-1.5s0.7-1.5,1.5-1.5s1.5,0.7,1.5,1.5S13.4,25.5,12.6,25.5z M17.6,19.5
			h-6.4v-5.8c0-0.6,0.5-1.1,1.1-1.1h5.3C17.6,12.6,17.6,19.5,17.6,19.5z M19.4,19.5v-6.9h5.4c0.6,0,1.1,0.5,1.1,1.1v5.8H19.4z
			 M24.4,25.5c-0.8,0-1.5-0.7-1.5-1.5s0.7-1.5,1.5-1.5s1.5,0.7,1.5,1.5S25.3,25.5,24.4,25.5z"/>
	</g>
	<g>
		<path class="st1" d="M58.7,6.9c1.2,0,2.2,0.2,3.1,0.6c0.9,0.4,1.7,0.9,2.4,1.5c0.7,0.7,1.2,1.4,1.5,2.3c0.3,0.9,0.5,1.8,0.5,2.8
			c0,1.5-0.3,2.8-1,3.9c-0.6,1.1-1.7,2-3.1,2.5v0.1c0.7,0.2,1.3,0.5,1.7,0.9c0.5,0.4,0.8,0.9,1.1,1.4s0.5,1.1,0.6,1.8
			c0.1,0.7,0.2,1.3,0.3,2c0,0.4,0,0.9,0.1,1.4c0,0.6,0.1,1.1,0.1,1.7c0.1,0.6,0.2,1.1,0.3,1.6c0.1,0.5,0.3,1,0.6,1.3h-5.7
			c-0.3-0.8-0.5-1.8-0.6-2.9s-0.2-2.2-0.3-3.3c-0.2-1.3-0.6-2.3-1.2-3c-0.6-0.6-1.7-0.9-3.1-0.9h-5.7v10.1h-5.7V6.9L58.7,6.9z
			 M56.7,18.6c1.3,0,2.3-0.3,2.9-0.9c0.7-0.6,1-1.5,1-2.8s-0.3-2.2-1-2.7c-0.7-0.6-1.6-0.9-2.9-0.9h-6.2v7.3H56.7z"/>
		<path class="st1" d="M75.1,28.3c0.8,0.7,1.9,1.1,3.3,1.1c1,0,1.9-0.3,2.7-0.8c0.7-0.5,1.2-1.1,1.4-1.6H87
			c-0.7,2.2-1.8,3.8-3.3,4.8c-1.5,1-3.3,1.4-5.4,1.4c-1.5,0-2.8-0.2-4-0.7s-2.2-1.1-3-2s-1.5-1.9-1.9-3.1s-0.7-2.5-0.7-4
			c0-1.4,0.2-2.7,0.7-3.9c0.5-1.2,1.1-2.2,2-3.1c0.8-0.9,1.8-1.6,3-2.1s2.5-0.8,3.9-0.8c1.6,0,3,0.3,4.2,0.9
			c1.2,0.6,2.2,1.4,2.9,2.5c0.8,1,1.3,2.2,1.6,3.5c0.3,1.3,0.5,2.7,0.4,4.2H73.9C73.9,26.3,74.4,27.5,75.1,28.3z M80.9,18.4
			c-0.6-0.7-1.6-1-2.8-1c-0.8,0-1.5,0.1-2,0.4s-1,0.6-1.3,1s-0.6,0.8-0.7,1.3s-0.2,0.9-0.2,1.2h8.3C82,20.1,81.5,19.1,80.9,18.4z"/>
		<path class="st1" d="M94.2,28.1c0.2,0.4,0.5,0.7,0.9,1s0.8,0.4,1.2,0.6c0.5,0.1,1,0.2,1.5,0.2c0.4,0,0.7,0,1.1-0.1
			s0.8-0.2,1.1-0.4c0.3-0.2,0.6-0.4,0.8-0.7c0.2-0.3,0.3-0.7,0.3-1.1c0-0.8-0.5-1.4-1.5-1.7c-1-0.4-2.5-0.8-4.3-1.2
			c-0.7-0.2-1.5-0.4-2.2-0.6s-1.3-0.5-1.9-0.9s-1-0.8-1.3-1.4s-0.5-1.3-0.5-2.1c0-1.2,0.2-2.2,0.7-3s1.1-1.4,1.9-1.8
			c0.8-0.4,1.6-0.8,2.6-0.9c1-0.2,2-0.3,3-0.3s2,0.1,2.9,0.3c1,0.2,1.8,0.5,2.5,1s1.4,1.1,1.9,1.8c0.5,0.8,0.8,1.7,0.9,2.9h-4.9
			c-0.1-1-0.4-1.7-1.1-2s-1.5-0.5-2.4-0.5c-0.3,0-0.6,0-0.9,0.1c-0.3,0-0.6,0.1-0.9,0.2s-0.5,0.3-0.7,0.5s-0.3,0.5-0.3,0.9
			c0,0.5,0.2,0.8,0.5,1.1c0.3,0.3,0.8,0.5,1.3,0.7s1.2,0.3,1.9,0.5c0.7,0.1,1.4,0.3,2.1,0.5s1.5,0.4,2.2,0.6s1.3,0.6,1.9,1
			s1,0.9,1.3,1.5s0.5,1.3,0.5,2.2c0,1.2-0.2,2.3-0.7,3.1c-0.5,0.8-1.1,1.5-1.9,2c-0.8,0.5-1.7,0.9-2.7,1.1s-2.1,0.3-3.1,0.3
			c-1.1,0-2.1-0.1-3.2-0.3c-1-0.2-2-0.6-2.8-1.1c-0.8-0.5-1.5-1.2-2-2s-0.8-1.9-0.8-3.1H94C93.9,27.2,94,27.7,94.2,28.1z"/>
		<path class="st1" d="M114.4,28.2c0.8,0.7,1.9,1.1,3.3,1.1c1,0,1.9-0.3,2.7-0.8c0.7-0.5,1.2-1.1,1.4-1.6h4.5
			c-0.7,2.2-1.8,3.8-3.3,4.8s-3.3,1.4-5.4,1.4c-1.5,0-2.8-0.2-4-0.7c-1.2-0.5-2.2-1.1-3-2s-1.5-1.9-1.9-3.1s-0.7-2.5-0.7-4
			c0-1.4,0.2-2.7,0.7-3.9c0.5-1.2,1.1-2.2,2-3.1c0.8-0.9,1.8-1.6,3-2.1s2.5-0.8,3.9-0.8c1.6,0,3,0.3,4.2,0.9
			c1.2,0.6,2.2,1.4,2.9,2.5c0.8,1,1.3,2.2,1.6,3.5c0.3,1.3,0.5,2.7,0.4,4.2h-13.5C113.2,26.3,113.6,27.5,114.4,28.2z M120.2,18.4
			c-0.6-0.7-1.5-1-2.8-1c-0.8,0-1.5,0.1-2,0.4s-1,0.6-1.3,1s-0.6,0.8-0.7,1.3s-0.2,0.9-0.2,1.2h8.4
			C121.2,20.1,120.8,19.1,120.2,18.4z"/>
		<path class="st1" d="M133.2,14v3.5h0.1c0.2-0.6,0.6-1.1,1-1.6s0.9-0.9,1.4-1.3c0.5-0.3,1.1-0.6,1.7-0.8c0.6-0.2,1.2-0.3,1.9-0.3
			c0.3,0,0.7,0.1,1.1,0.2v4.8c-0.2,0-0.5-0.1-0.9-0.1c-0.3,0-0.7-0.1-1-0.1c-0.9,0-1.7,0.2-2.4,0.5s-1.2,0.7-1.6,1.3
			c-0.4,0.5-0.7,1.2-0.8,1.9c-0.2,0.7-0.3,1.5-0.3,2.4v8.4h-5.1V14.1L133.2,14z"/>
		<path class="st1" d="M147.1,6.9v9.4h0.1c0.6-1,1.5-1.7,2.6-2.1c1.1-0.4,2.2-0.7,3.3-0.7c0.9,0,1.9,0.2,2.8,0.6
			c0.9,0.4,1.7,1,2.5,1.8c0.7,0.8,1.3,1.8,1.8,3.1c0.5,1.2,0.7,2.7,0.7,4.4c0,1.7-0.2,3.2-0.7,4.4c-0.5,1.2-1.1,2.3-1.8,3.1
			c-0.7,0.8-1.6,1.4-2.5,1.8s-1.8,0.6-2.8,0.6c-1.4,0-2.6-0.2-3.7-0.6c-1.1-0.4-1.9-1.2-2.5-2.2h-0.1v2.4h-4.9V7.1h5.2V6.9z
			 M155.4,21.1c-0.2-0.7-0.4-1.4-0.8-1.9c-0.4-0.6-0.8-1-1.4-1.3c-0.5-0.3-1.2-0.5-2-0.5c-0.7,0-1.4,0.2-2,0.5s-1,0.8-1.4,1.3
			c-0.4,0.6-0.6,1.2-0.8,1.9c-0.2,0.7-0.3,1.5-0.3,2.3s0.1,1.5,0.3,2.2s0.4,1.4,0.8,1.9c0.4,0.6,0.8,1,1.4,1.3
			c0.6,0.3,1.2,0.5,2,0.5s1.4-0.2,2-0.5c0.5-0.3,1-0.8,1.4-1.3c0.4-0.6,0.6-1.2,0.8-1.9c0.2-0.7,0.3-1.5,0.3-2.2
			C155.7,22.6,155.6,21.8,155.4,21.1z"/>
		<path class="st1" d="M175.1,32.7v-2.6H175c-0.7,1.1-1.5,1.9-2.5,2.4s-2.1,0.7-3.2,0.7c-1.4,0-2.5-0.2-3.4-0.5
			c-0.9-0.4-1.6-0.9-2.1-1.5c-0.5-0.7-0.9-1.5-1.1-2.4c-0.2-1-0.3-2-0.3-3.2V14.1h5.1v10.6c0,1.5,0.2,2.7,0.7,3.5s1.3,1.1,2.6,1.1
			c1.4,0,2.4-0.4,3-1.2c0.6-0.8,0.9-2.2,0.9-4.1v-9.8h5.1v18.7h-4.7V32.7z"/>
		<path class="st1" d="M186.8,28.1c0.2,0.4,0.5,0.7,0.9,1s0.8,0.4,1.2,0.6c0.5,0.1,1,0.2,1.5,0.2c0.4,0,0.7,0,1.1-0.1
			c0.4-0.1,0.8-0.2,1.1-0.4c0.3-0.2,0.6-0.4,0.8-0.7c0.2-0.3,0.3-0.7,0.3-1.1c0-0.8-0.5-1.4-1.5-1.7c-1-0.4-2.5-0.8-4.3-1.2
			c-0.7-0.2-1.5-0.4-2.2-0.6s-1.3-0.5-1.9-0.9c-0.6-0.4-1-0.8-1.3-1.4s-0.5-1.3-0.5-2.1c0-1.2,0.2-2.2,0.7-3s1.1-1.4,1.9-1.8
			c0.8-0.4,1.6-0.8,2.6-0.9c1-0.2,2-0.3,3-0.3s2,0.1,2.9,0.3c1,0.2,1.8,0.5,2.6,1c0.7,0.5,1.4,1.1,1.9,1.8c0.5,0.8,0.8,1.7,0.9,2.9
			h-4.9c-0.1-1-0.4-1.7-1.1-2c-0.7-0.3-1.5-0.5-2.4-0.5c-0.3,0-0.6,0-0.9,0.1c-0.3,0-0.6,0.1-0.9,0.2c-0.3,0.1-0.5,0.3-0.7,0.5
			s-0.3,0.5-0.3,0.9c0,0.5,0.2,0.8,0.5,1.1c0.3,0.3,0.8,0.5,1.3,0.7s1.2,0.3,1.9,0.5c0.7,0.1,1.4,0.3,2.1,0.5
			c0.7,0.2,1.5,0.4,2.2,0.6s1.3,0.6,1.9,1c0.6,0.4,1,0.9,1.3,1.5s0.5,1.3,0.5,2.2c0,1.2-0.2,2.3-0.7,3.1c-0.5,0.8-1.1,1.5-1.9,2
			c-0.8,0.5-1.7,0.9-2.7,1.1s-2.1,0.3-3.1,0.3c-1.1,0-2.1-0.1-3.2-0.3c-1-0.2-2-0.6-2.8-1.1c-0.8-0.5-1.5-1.2-2-2s-0.8-1.9-0.9-3.1
			h4.9C186.5,27.2,186.6,27.7,186.8,28.1z"/>
	</g>
</g>
</svg>
