<?xml version="1.0" encoding="utf-8"?>
<!-- Generator: Adobe Illustrator 19.2.0, SVG Export Plug-In . SVG Version: 6.00 Build 0)  -->
<svg version="1.1" id="Layer_1" xmlns="http://www.w3.org/2000/svg" xmlns:xlink="http://www.w3.org/1999/xlink" x="0px" y="0px"
	 viewBox="0 0 158 40" style="enable-background:new 0 0 158 40;" xml:space="preserve">
<style type="text/css">
	.st0{fill:#EB1A3F;}
	.st1{fill:#FFFFFF;}
	.st2{opacity:0.8;}
</style>
<g>
	<path class="st0" d="M38.4,35l-2.1-6.7c1.3-2.4,2-5.1,2-8c0-9.4-7.6-17.1-17.1-17.1c-9.4,0-17.1,7.6-17.1,17.1
		c0,9.4,7.6,17.1,17.1,17.1c3.7,0,7.2-1.2,10-3.2L38.4,35z"/>
	<path class="st1" d="M21.2,38.7C11,38.7,2.8,30.4,2.8,20.3S11.1,1.8,21.2,1.8s18.4,8.3,18.4,18.4c0,2.8-0.7,5.6-1.9,8.2l2.6,8.2
		l-8.8-1.1C28.5,37.6,25,38.7,21.2,38.7 M21.2,4.6c-8.7,0-15.7,7-15.7,15.7S12.5,36,21.2,36c3.3,0,6.5-1,9.2-3l0.4-0.3l5.6,0.7
		l-1.7-5.2l0.3-0.5c1.2-2.3,1.8-4.8,1.8-7.4C36.9,11.6,29.9,4.6,21.2,4.6"/>
	<g>
		<path class="st1" d="M44.4,2.1c1.4-0.2,3.2-0.3,5.1-0.3c3.2,0,5.2,0.6,6.8,1.8c1.7,1.3,2.8,3.3,2.8,6.3c0,3.2-1.2,5.4-2.8,6.7
			c-1.8,1.5-4.4,2.2-7.7,2.2c-2,0-3.3-0.1-4.3-0.2V2.1H44.4z M48.2,15.7c0.3,0.1,0.8,0.1,1.3,0.1c3.4,0,5.6-1.9,5.6-5.8
			c0-3.5-2-5.3-5.2-5.3c-0.8,0-1.4,0.1-1.7,0.1C48.2,4.8,48.2,15.7,48.2,15.7z"/>
		<path class="st1" d="M64.6,3.1c0,1-0.8,1.9-2,1.9s-2-0.8-2-1.9s0.8-1.9,2-1.9C63.9,1.2,64.6,2,64.6,3.1z M60.8,18.6V6.5h3.8v12.1
			H60.8z"/>
		<path class="st1" d="M66.7,15.3c0.7,0.4,2.1,0.9,3.2,0.9s1.6-0.4,1.6-1s-0.4-0.9-1.8-1.4c-2.5-0.8-3.5-2.2-3.4-3.6
			c0-2.3,1.9-4,4.9-4c1.4,0,2.7,0.3,3.4,0.7L74,9.5c-0.5-0.3-1.6-0.7-2.6-0.7c-0.9,0-1.4,0.4-1.4,1s0.5,0.9,2,1.4
			c2.3,0.8,3.3,2,3.3,3.7c0,2.2-1.8,3.9-5.2,3.9c-1.6,0-3-0.3-3.9-0.8L66.7,15.3z"/>
		<path class="st1" d="M85.7,18.3c-0.7,0.3-1.9,0.5-3.4,0.5c-3.9,0-6.4-2.4-6.4-6.2c0-3.5,2.4-6.4,6.9-6.4c1,0,2.1,0.2,2.9,0.5
			l-0.6,2.8C84.6,9.3,84,9.1,83,9.1c-2,0-3.3,1.4-3.2,3.4c0,2.2,1.5,3.4,3.3,3.4c0.9,0,1.6-0.1,2.2-0.4L85.7,18.3z"/>
		<path class="st1" d="M98.3,14.7c0,1.6,0,2.9,0.1,3.9h-3.3L95,16.8h-0.1c-0.5,0.7-1.6,2-3.8,2c-2.4,0-4.3-1.5-4.3-5.3v-7h3.8V13
			c0,1.8,0.6,2.8,1.9,2.8c1,0,1.6-0.7,1.9-1.3c0.1-0.2,0.1-0.5,0.1-0.8V6.5h3.8V14.7z"/>
		<path class="st1" d="M100.4,1h3.8v17.6h-3.8V1z"/>
		<path class="st1" d="M106.4,10.5c0-1.6,0-2.9-0.1-4.1h3.3l0.2,1.7l0,0c0.9-1.3,2.3-2,4-2c2.6,0,5,2.3,5,6.2c0,4.4-2.8,6.5-5.5,6.5
			c-1.5,0-2.6-0.6-3.1-1.4l0,0v6h-3.8V10.5z M110.1,13.4c0,0.3,0,0.6,0.1,0.8c0.2,1,1.1,1.8,2.2,1.8c1.6,0,2.6-1.4,2.6-3.4
			c0-1.9-0.9-3.4-2.5-3.4c-1.1,0-2,0.8-2.2,1.9c0,0.2-0.1,0.4-0.1,0.7L110.1,13.4L110.1,13.4z"/>
		<path class="st1" d="M123.3,13.7c0.1,1.6,1.7,2.3,3.4,2.3c1.3,0,2.3-0.2,3.3-0.5l0.5,2.5c-1.2,0.5-2.7,0.7-4.4,0.7
			c-4.1,0-6.5-2.4-6.5-6.2c0-3.1,1.9-6.5,6.1-6.5c3.9,0,5.4,3,5.4,6c0,0.6-0.1,1.2-0.1,1.5h-7.7C123.3,13.5,123.3,13.7,123.3,13.7z
			 M127.7,11.1c0-0.9-0.4-2.4-2.1-2.4c-1.6,0-2.2,1.4-2.3,2.4H127.7z"/>
	</g>
	<g class="st2">
		<path class="st1" d="M44.4,22.3c1.4-0.2,3.2-0.3,5.1-0.3c3.2,0,5.2,0.6,6.8,1.8c1.7,1.3,2.8,3.3,2.8,6.3c0,3.2-1.2,5.4-2.8,6.7
			c-1.8,1.5-4.4,2.2-7.7,2.2c-2,0-3.3-0.1-4.3-0.2V22.3H44.4z M48.2,35.9C48.5,36,49,36,49.5,36c3.4,0,5.6-1.9,5.6-5.8
			c0-3.5-2-5.3-5.2-5.3c-0.8,0-1.4,0.1-1.7,0.1C48.2,25,48.2,35.9,48.2,35.9z"/>
		<path class="st1" d="M72.6,32.5c0,4.4-3.1,6.5-6.4,6.5c-3.5,0-6.3-2.3-6.3-6.2s2.6-6.4,6.5-6.4C70.1,26.4,72.6,28.9,72.6,32.5z
			 M63.8,32.7c0,2.1,0.9,3.6,2.5,3.6c1.5,0,2.4-1.5,2.4-3.6c0-1.8-0.7-3.6-2.4-3.6C64.5,29,63.8,30.9,63.8,32.7z"/>
		<path class="st1" d="M83.2,38.4c-0.7,0.3-1.9,0.5-3.4,0.5c-3.9,0-6.4-2.4-6.4-6.2c0-3.5,2.4-6.4,6.9-6.4c1,0,2.1,0.2,2.9,0.5
			l-0.6,2.8c-0.4-0.2-1.1-0.4-2.1-0.4c-2,0-3.3,1.4-3.2,3.4c0,2.2,1.5,3.4,3.3,3.4c0.9,0,1.6-0.1,2.2-0.4L83.2,38.4z"/>
		<path class="st1" d="M89,23.2v3.5h2.7v2.8H89v4.4c0,1.5,0.3,2.1,1.5,2.1c0.5,0,0.8,0,1.1-0.1v2.8c-0.5,0.2-1.4,0.3-2.4,0.3
			c-1.2,0-2.2-0.4-2.8-1c-0.7-0.7-1-1.9-1-3.6v-4.9h-1.6v-2.8h1.6V24L89,23.2z"/>
		<path class="st1" d="M104.9,32.5c0,4.4-3.1,6.5-6.4,6.5c-3.5,0-6.3-2.3-6.3-6.2s2.6-6.4,6.5-6.4C102.4,26.4,104.9,28.9,104.9,32.5
			z M96.1,32.7c0,2.1,0.9,3.6,2.5,3.6c1.5,0,2.4-1.5,2.4-3.6c0-1.8-0.7-3.6-2.4-3.6C96.8,29,96.1,30.9,96.1,32.7z"/>
		<path class="st1" d="M106.4,30.6c0-1.8,0-2.9-0.1-4h3.2l0.1,2.2h0.1c0.6-1.8,2.1-2.5,3.3-2.5c0.3,0,0.5,0,0.8,0V30
			c-0.3,0-0.6-0.1-1-0.1c-1.4,0-2.3,0.7-2.6,1.9c0,0.2-0.1,0.5-0.1,0.8v6.1h-3.8L106.4,30.6L106.4,30.6z"/>
	</g>
	<polygon class="st1" points="30.2,17.7 24.6,17.7 24.6,11.7 24.6,11.7 18.6,11.7 18.6,11.7 18.6,17.7 13,17.7 12.7,17.7 12.7,23.2 
		18.6,23.2 18.6,28.8 18.6,28.8 24.6,28.8 24.6,28.8 24.6,23.2 29.6,23.2 30.2,23.2 	"/>
</g>
<g>
	<path class="st0" d="M35.6,35l-2.1-6.7c1.3-2.4,2-5.1,2-8c0-9.4-7.6-17.1-17.1-17.1C9,3.2,1.3,10.8,1.3,20.3
		c0,9.4,7.6,17.1,17.1,17.1c3.7,0,7.2-1.2,10-3.2L35.6,35z"/>
	<path d="M18.4,38.7C8.2,38.7,0,30.4,0,20.3S8.3,1.8,18.4,1.8s18.4,8.3,18.4,18.4c0,2.8-0.7,5.6-1.9,8.2l2.6,8.2l-8.8-1.1
		C25.7,37.6,22.2,38.7,18.4,38.7 M18.4,4.6c-8.7,0-15.7,7-15.7,15.7S9.7,36,18.4,36c3.3,0,6.5-1,9.2-3l0.4-0.3l5.6,0.7l-1.7-5.2
		l0.3-0.5c1.2-2.3,1.8-4.8,1.8-7.4C34.1,11.6,27.1,4.6,18.4,4.6"/>
	<g>
		<path d="M41.6,2.1c1.4-0.2,3.2-0.3,5.1-0.3c3.2,0,5.2,0.6,6.8,1.8c1.7,1.3,2.8,3.3,2.8,6.3c0,3.2-1.2,5.4-2.8,6.7
			c-1.8,1.5-4.4,2.2-7.7,2.2c-2,0-3.3-0.1-4.3-0.2L41.6,2.1L41.6,2.1z M45.4,15.7c0.3,0.1,0.8,0.1,1.3,0.1c3.4,0,5.6-1.9,5.6-5.8
			c0-3.5-2-5.3-5.2-5.3c-0.8,0-1.4,0.1-1.7,0.1C45.4,4.8,45.4,15.7,45.4,15.7z"/>
		<path d="M61.8,3.1c0,1-0.8,1.9-2,1.9s-2-0.8-2-1.9s0.8-1.9,2-1.9C61.1,1.2,61.8,2,61.8,3.1z M58,18.6V6.5h3.8v12.1H58z"/>
		<path d="M63.9,15.3c0.7,0.4,2.1,0.9,3.2,0.9s1.6-0.4,1.6-1s-0.4-0.9-1.8-1.4c-2.5-0.8-3.5-2.2-3.4-3.6c0-2.3,1.9-4,4.9-4
			c1.4,0,2.7,0.3,3.4,0.7l-0.6,2.6c-0.5-0.3-1.6-0.7-2.6-0.7c-0.9,0-1.4,0.4-1.4,1s0.5,0.9,2,1.4c2.3,0.8,3.3,2,3.3,3.7
			c0,2.2-1.8,3.9-5.2,3.9c-1.6,0-3-0.3-3.9-0.8L63.9,15.3z"/>
		<path d="M82.9,18.3c-0.7,0.3-1.9,0.5-3.4,0.5c-3.9,0-6.4-2.4-6.4-6.2c0-3.5,2.4-6.4,6.9-6.4c1,0,2.1,0.2,2.9,0.5l-0.6,2.8
			c-0.5-0.2-1.1-0.4-2.1-0.4c-2,0-3.3,1.4-3.2,3.4c0,2.2,1.5,3.4,3.3,3.4c0.9,0,1.6-0.1,2.2-0.4L82.9,18.3z"/>
		<path d="M95.5,14.7c0,1.6,0,2.9,0.1,3.9h-3.3l-0.1-1.8h-0.1c-0.5,0.7-1.6,2-3.8,2c-2.4,0-4.3-1.5-4.3-5.3v-7h3.8V13
			c0,1.8,0.6,2.8,1.9,2.8c1,0,1.6-0.7,1.9-1.3c0.1-0.2,0.1-0.5,0.1-0.8V6.5h3.8V14.7z"/>
		<path d="M97.6,1h3.8v17.6h-3.8V1z"/>
		<path d="M103.6,10.5c0-1.6,0-2.9-0.1-4.1h3.3l0.2,1.7l0,0c0.9-1.3,2.3-2,4-2c2.6,0,5,2.3,5,6.2c0,4.4-2.8,6.5-5.5,6.5
			c-1.5,0-2.6-0.6-3.1-1.4l0,0v6h-3.8V10.5z M107.3,13.4c0,0.3,0,0.6,0.1,0.8c0.2,1,1.1,1.8,2.2,1.8c1.6,0,2.6-1.4,2.6-3.4
			c0-1.9-0.9-3.4-2.5-3.4c-1.1,0-2,0.8-2.2,1.9c0,0.2-0.1,0.4-0.1,0.7L107.3,13.4L107.3,13.4z"/>
		<path d="M120.5,13.7c0.1,1.6,1.7,2.3,3.4,2.3c1.3,0,2.3-0.2,3.3-0.5l0.5,2.5c-1.2,0.5-2.7,0.7-4.4,0.7c-4.1,0-6.5-2.4-6.5-6.2
			c0-3.1,1.9-6.5,6.1-6.5c3.9,0,5.4,3,5.4,6c0,0.6-0.1,1.2-0.1,1.5h-7.7C120.5,13.5,120.5,13.7,120.5,13.7z M124.9,11.1
			c0-0.9-0.4-2.4-2.1-2.4c-1.6,0-2.2,1.4-2.3,2.4H124.9z"/>
	</g>
	<g>
		<path class="st0" d="M41.6,22.3c1.4-0.2,3.2-0.3,5.1-0.3c3.2,0,5.2,0.6,6.8,1.8c1.7,1.3,2.8,3.3,2.8,6.3c0,3.2-1.2,5.4-2.8,6.7
			c-1.8,1.5-4.4,2.2-7.7,2.2c-2,0-3.3-0.1-4.3-0.2L41.6,22.3L41.6,22.3z M45.4,35.9c0.3,0.1,0.8,0.1,1.3,0.1c3.4,0,5.6-1.9,5.6-5.8
			c0-3.5-2-5.3-5.2-5.3c-0.8,0-1.4,0.1-1.7,0.1C45.4,25,45.4,35.9,45.4,35.9z"/>
		<path class="st0" d="M69.8,32.5c0,4.4-3.1,6.5-6.4,6.5c-3.5,0-6.3-2.3-6.3-6.2s2.6-6.4,6.5-6.4C67.3,26.4,69.8,28.9,69.8,32.5z
			 M61,32.7c0,2.1,0.9,3.6,2.5,3.6c1.5,0,2.4-1.5,2.4-3.6c0-1.8-0.7-3.6-2.4-3.6C61.7,29,61,30.9,61,32.7z"/>
		<path class="st0" d="M80.4,38.4c-0.7,0.3-1.9,0.5-3.4,0.5c-3.9,0-6.4-2.4-6.4-6.2c0-3.5,2.4-6.4,6.9-6.4c1,0,2.1,0.2,2.9,0.5
			l-0.6,2.8c-0.4-0.2-1.1-0.4-2.1-0.4c-2,0-3.3,1.4-3.2,3.4c0,2.2,1.5,3.4,3.3,3.4c0.9,0,1.6-0.1,2.2-0.4L80.4,38.4z"/>
		<path class="st0" d="M86.2,23.2v3.5h2.7v2.8h-2.7v4.4c0,1.5,0.3,2.1,1.5,2.1c0.5,0,0.8,0,1.1-0.1v2.8c-0.5,0.2-1.4,0.3-2.4,0.3
			c-1.2,0-2.2-0.4-2.8-1c-0.7-0.7-1-1.9-1-3.6v-4.9H81v-2.8h1.6V24L86.2,23.2z"/>
		<path class="st0" d="M102.1,32.5c0,4.4-3.1,6.5-6.4,6.5c-3.5,0-6.3-2.3-6.3-6.2s2.6-6.4,6.5-6.4C99.6,26.4,102.1,28.9,102.1,32.5z
			 M93.3,32.7c0,2.1,0.9,3.6,2.5,3.6c1.5,0,2.4-1.5,2.4-3.6c0-1.8-0.7-3.6-2.4-3.6C94,29,93.3,30.9,93.3,32.7z"/>
		<path class="st0" d="M103.6,30.6c0-1.8,0-2.9-0.1-4h3.2l0.1,2.2h0.1c0.6-1.8,2.1-2.5,3.3-2.5c0.3,0,0.5,0,0.8,0V30
			c-0.3,0-0.6-0.1-1-0.1c-1.4,0-2.3,0.7-2.6,1.9c0,0.2-0.1,0.5-0.1,0.8v6.1h-3.8L103.6,30.6L103.6,30.6z"/>
	</g>
	<polygon class="st1" points="27.4,17.7 21.8,17.7 21.8,11.7 21.8,11.7 15.8,11.7 15.8,11.7 15.8,17.7 10.2,17.7 9.9,17.7 9.9,23.2 
		15.8,23.2 15.8,28.8 15.8,28.8 21.8,28.8 21.8,28.8 21.8,23.2 26.8,23.2 27.4,23.2 	"/>
</g>
</svg>
