<?xml version="1.0" encoding="utf-8"?>
<!-- Generator: Adobe Illustrator 20.0.0, SVG Export Plug-In . SVG Version: 6.00 Build 0)  -->
<svg version="1.1" id="Layer_1" xmlns="http://www.w3.org/2000/svg" xmlns:xlink="http://www.w3.org/1999/xlink" x="0px" y="0px"
	 viewBox="0 0 200 40" style="enable-background:new 0 0 200 40;" xml:space="preserve">
<style type="text/css">
	.st0{fill:#4ABEA7;}
</style>
<g>
	<g>
		<path class="st0" d="M41.5,15.4v1.4l8.7-4.8c0.2-0.1,0.3-0.3,0.3-0.5l2.3-11.3c0-0.2-0.2-0.3-0.4-0.1L41.5,15.4z"/>
	</g>
	<g>
		<path class="st0" d="M64.3,15.4v1.4L55.6,12c-0.2-0.1-0.3-0.3-0.3-0.5L53,0.2c0-0.2,0.2-0.3,0.4-0.1L64.3,15.4z"/>
	</g>
	<g>
		<path class="st0" d="M0,37l2.8-3.1c1.1,1.3,2.3,2,3.7,2c1.7,0,2.7-1,2.7-3.3V19.7h4.5v13.1c0,2.4-0.7,4.1-1.9,5.3
			c-1.2,1.2-3,1.9-5.2,1.9C3.4,40,1.4,38.6,0,37z"/>
	</g>
	<g>
		<path class="st0" d="M21,19.7h15v3.9H25.3v4.1h9.4v3.9h-9.4v4.2h10.8v3.9H21V19.7z"/>
	</g>
	<g>
		<path class="st0" d="M75.9,31.8l-7.7-12.1h5.1l4.8,8l4.8-8h5l-7.7,12v8h-4.4L75.9,31.8L75.9,31.8z"/>
	</g>
	<g>
		<polygon class="st0" points="51.6,39.7 51.6,19.7 41.5,19.7 41.5,23.8 47.6,23.8 47.6,39.7 		"/>
	</g>
	<g>
		<polygon class="st0" points="54.2,39.7 54.2,19.7 64.3,19.7 64.3,23.8 58.2,23.8 58.2,39.7 		"/>
	</g>
</g>
</svg>
