<?xml version="1.0" encoding="utf-8"?>
<!-- Generator: Adobe Illustrator 19.2.1, SVG Export Plug-In . SVG Version: 6.00 Build 0)  -->
<svg version="1.1" id="Layer_1" xmlns="http://www.w3.org/2000/svg" xmlns:xlink="http://www.w3.org/1999/xlink" x="0px" y="0px"
	 viewBox="0 0 157.3 40" style="enable-background:new 0 0 157.3 40;" xml:space="preserve">
<style type="text/css">
	.st0{fill:#7D868C;}
	.st1{fill:#002453;stroke:#002453;stroke-width:0.5404;stroke-linecap:round;stroke-linejoin:round;stroke-miterlimit:10;}
	.st2{fill:none;stroke:#346094;stroke-width:0.5404;stroke-linecap:round;stroke-linejoin:round;stroke-miterlimit:10;}
	.st3{fill:#BBBDBF;}
</style>
<g>
	<path class="st0" d="M34,27H23.4V4.7h11.1c3.1,0,5.1,2.9,5.1,5.7c0,2.2-1.2,4.3-3.2,5.2c2.5,0.8,4.1,2.9,4.1,5.7
		C40.5,24.7,37.6,27,34,27z M26.2,7.1v7.5h7.1c2,0,3.5-1.7,3.5-3.7c0-2.1-1.4-3.7-3.3-3.7H26.2z M34.2,16.9h-8v7.7H34
		c2.1,0,3.7-1.8,3.7-3.8C37.7,18.7,36.2,16.9,34.2,16.9z"/>
	<path class="st0" d="M52.7,13c-2.8,0.1-5,1.5-5.9,3.9V27H44V10.6h2.6v3.8c1.1-2.3,3.1-3.9,5.2-3.9c0.4,0,0.7,0,0.9,0V13z"/>
	<path class="st0" d="M55.4,7.5V4h2.8v3.5H55.4z M55.4,27V10.6h2.8V27H55.4z"/>
	<path class="st0" d="M61.5,18.8c0-4.6,3.4-8.5,7.8-8.5c2.5,0,4.7,1.4,6,3.4v-3.1h2.5v19.6c0,0.7,0.3,1,0.9,1v2.4
		c-0.4,0.1-0.9,0.1-1.3,0.1c-1.3,0-2.3-0.9-2.3-2.2v-7.7c-1.5,2.3-3.6,3.6-6.1,3.6C64.4,27.3,61.5,23.3,61.5,18.8z M74.9,21.4v-4.7
		c-0.4-2.1-2.9-4-5.1-4c-3.2,0-5.5,3-5.5,6.2c0,3.3,2.3,6.1,5.5,6.1C72.1,24.9,73.8,23.3,74.9,21.4z"/>
	<path class="st0" d="M81.5,27v-3h2v3H81.5z"/>
	<path class="st0" d="M107.6,27h-2.3v-7.7c0-2.9-0.9-4.2-2.8-4.2c-1.9,0-3.5,1.5-4.1,3.6V27h-2.3v-7.7c0-2.9-0.9-4.2-2.7-4.2
		c-1.8,0-3.5,1.4-4.1,3.6V27h-2.3V13.2H89v3c1.1-2,3-3.2,5.2-3.2c2.3,0,3.7,1.4,4,3.3c1.2-2.2,3-3.3,5.2-3.3c3.2,0,4.2,2.5,4.2,5.8
		V27z"/>
	<path class="st0" d="M112.1,13.2l3.8,5.1l0.2,0.4l0.2-0.4l3.7-5.1h2.5l-5.1,6.9l5.2,6.9H120l-3.8-5l-0.2-0.4l-0.2,0.4l-3.8,5h-2.5
		l5.2-6.9l-5.1-6.9H112.1z"/>
</g>
<g>
	<polygon class="st1" points="8.2,30.4 2.1,26.9 2.1,4.3 8.2,0.8 	"/>
	<polygon class="st2" points="8.2,30.4 17.4,26.9 17.4,4.3 8.2,0.8 	"/>
	<g>
		<polygon class="st3" points="8,38.8 18.1,34.6 11.8,31.2 1.4,34.6 		"/>
	</g>
</g>
</svg>
