<?xml version="1.0" encoding="utf-8"?>
<!-- Generator: Adobe Illustrator 19.2.1, SVG Export Plug-In . SVG Version: 6.00 Build 0)  -->
<svg version="1.1" id="Layer_1" xmlns="http://www.w3.org/2000/svg" xmlns:xlink="http://www.w3.org/1999/xlink" x="0px" y="0px"
	 viewBox="0 0 122.7 145.9" style="enable-background:new 0 0 122.7 145.9;" xml:space="preserve">
<style type="text/css">
	.st0{fill:#F9AAB4;}
	.st1{fill:#EA6570;}
	.st2{fill:#FFFFFF;}
</style>
<g>
	<g>
		<path class="st0" d="M0,43.6c0-6.2,4.4-13.9,9.8-17L51.6,2.5c5.4-3.1,14.2-3.1,19.6,0l41.7,24.1c5.4,3.1,9.8,10.8,9.8,17v48.2
			c0,6.2-4.4,13.9-9.8,17l-41.7,24.1c-5.4,3.1-14.2,3.1-19.6,0L9.8,108.8C4.4,105.6,0,98,0,91.8V43.6z"/>
	</g>
	<g>
		<path class="st1" d="M0,47.8c0-6.2,4.4-13.9,9.8-17L51.6,6.7c5.4-3.1,14.2-3.1,19.6,0l41.7,24.1c5.4,3.1,9.8,10.8,9.8,17V96
			c0,6.2-4.4,13.9-9.8,17l-41.7,24.1c-5.4,3.1-14.2,3.1-19.6,0L9.8,113C4.4,109.9,0,102.2,0,96V47.8z"/>
	</g>
</g>
<g>
	<path class="st2" d="M41.7,96.7h15.4V47.8c0-1.5,0-3,0.1-4.5l-12.8,11c-0.3,0.3-0.7,0.5-1,0.6s-0.6,0.2-1,0.2
		c-0.5,0-0.9-0.1-1.4-0.3c-0.4-0.2-0.7-0.5-0.9-0.8l-2.8-3.9l21.3-18.4H66v65h14.1v6.8H41.7C41.7,103.5,41.7,96.7,41.7,96.7z"/>
</g>
</svg>
