<?xml version="1.0" encoding="utf-8"?>
<!-- Generator: Adobe Illustrator 19.1.0, SVG Export Plug-In . SVG Version: 6.00 Build 0)  -->
<svg version="1.1" id="Layer_1" xmlns="http://www.w3.org/2000/svg" xmlns:xlink="http://www.w3.org/1999/xlink" x="0px" y="0px"
	 viewBox="-66 -3.2 122.7 145.9" style="enable-background:new -66 -3.2 122.7 145.9;" xml:space="preserve">
<style type="text/css">
	.st0{fill:#F9AAB4;}
	.st1{fill:#EA6570;}
	.st2{fill:none;stroke:#FFFFFF;stroke-width:3;stroke-miterlimit:10;}
</style>
<g>
	<g>
		<path class="st0" d="M-66,43.6c0-6.2,4.4-13.9,9.8-17l41.8-24.1C-9-0.6-0.2-0.6,5.2,2.5l41.7,24.1c5.4,3.1,9.8,10.8,9.8,17v48.2
			c0,6.2-4.4,13.9-9.8,17L5.2,132.9c-5.4,3.1-14.2,3.1-19.6,0l-41.8-24.1c-5.4-3.2-9.8-10.8-9.8-17V43.6z"/>
	</g>
	<g>
		<path class="st1" d="M-66,47.8c0-6.2,4.4-13.9,9.8-17l41.8-24.1C-9,3.6-0.2,3.6,5.2,6.7l41.7,24.1c5.4,3.1,9.8,10.8,9.8,17V96
			c0,6.2-4.4,13.9-9.8,17L5.2,137.1c-5.4,3.1-14.2,3.1-19.6,0L-56.2,113c-5.4-3.1-9.8-10.8-9.8-17V47.8z"/>
	</g>
</g>
<g>
	<path class="st2" d="M-24.3,96.7h15.4V47.8c0-1.5,0-3,0.1-4.5l-12.8,11c-0.3,0.3-0.7,0.5-1,0.6c-0.3,0.1-0.6,0.2-1,0.2
		c-0.5,0-0.9-0.1-1.4-0.3c-0.4-0.2-0.7-0.5-0.9-0.8l-2.8-3.9l21.3-18.4H0v65h14.1v6.8h-38.4V96.7z"/>
</g>
</svg>
