<?xml version="1.0" encoding="utf-8"?>
<!-- Generator: Adobe Illustrator 19.1.0, SVG Export Plug-In . SVG Version: 6.00 Build 0)  -->
<svg version="1.1" id="Layer_1" xmlns="http://www.w3.org/2000/svg" xmlns:xlink="http://www.w3.org/1999/xlink" x="0px" y="0px"
	 viewBox="-66 -3.2 122.7 145.9" style="enable-background:new -66 -3.2 122.7 145.9;" xml:space="preserve">
<style type="text/css">
	.st0{fill:#F9AAB4;}
	.st1{fill:#EA6570;}
	.st2{enable-background:new    ;}
	.st3{fill:none;stroke:#FFFFFF;stroke-width:3;stroke-miterlimit:10;}
</style>
<g>
	<g>
		<path class="st0" d="M-66,43.6c0-6.2,4.4-13.9,9.8-17l41.8-24.1C-9-0.6-0.2-0.6,5.2,2.5l41.7,24.1c5.4,3.1,9.8,10.8,9.8,17v48.2
			c0,6.2-4.4,13.9-9.8,17L5.2,132.9c-5.4,3.1-14.2,3.1-19.6,0l-41.8-24.1c-5.4-3.2-9.8-10.8-9.8-17V43.6z"/>
	</g>
	<g>
		<path class="st1" d="M-66,47.8c0-6.2,4.4-13.9,9.8-17l41.8-24.1C-9,3.6-0.2,3.6,5.2,6.7l41.7,24.1c5.4,3.1,9.8,10.8,9.8,17V96
			c0,6.2-4.4,13.9-9.8,17L5.2,137.1c-5.4,3.1-14.2,3.1-19.6,0L-56.2,113c-5.4-3.1-9.8-10.8-9.8-17V47.8z"/>
	</g>
</g>
<g class="st2">
	<path class="st3" d="M-2.6,31c3,0,5.8,0.4,8.4,1.3c2.6,0.9,4.8,2.1,6.6,3.7c1.8,1.6,3.3,3.5,4.3,5.8c1,2.3,1.5,4.8,1.5,7.6
		c0,2.3-0.3,4.3-0.9,6.1c-0.6,1.8-1.4,3.4-2.5,4.7c-1.1,1.4-2.4,2.5-3.9,3.4c-1.5,0.9-3.2,1.7-5.2,2.3C10.5,67,14,69.1,16.3,72
		c2.3,2.9,3.5,6.5,3.5,10.9c0,3.3-0.6,6.3-1.9,8.9c-1.2,2.6-3,4.9-5.1,6.7c-2.2,1.8-4.7,3.3-7.6,4.2c-2.9,1-6,1.5-9.3,1.5
		c-3.8,0-7.1-0.5-9.8-1.4c-2.7-1-5-2.3-6.9-3.9c-1.9-1.7-3.4-3.6-4.6-5.9c-1.2-2.3-2.2-4.8-3.1-7.4l3.8-1.6c0.7-0.3,1.4-0.5,2.1-0.5
		c0.7,0,1.3,0.1,1.8,0.4c0.5,0.3,0.9,0.7,1.2,1.3c0.1,0.1,0.1,0.3,0.2,0.4c0.1,0.2,0.1,0.3,0.2,0.5c0.5,1,1,2.1,1.7,3.3
		c0.7,1.2,1.6,2.4,2.7,3.4c1.1,1.1,2.5,2,4.2,2.7c1.7,0.7,3.8,1.1,6.3,1.1s4.7-0.4,6.6-1.2c1.9-0.8,3.5-1.9,4.7-3.2s2.2-2.8,2.8-4.3
		c0.6-1.6,1-3.2,1-4.8c0-1.9-0.3-3.7-0.8-5.3c-0.5-1.6-1.5-3-2.8-4.2C6,72.5,4.2,71.6,1.8,71c-2.4-0.7-5.4-1-9.2-1v-6.5
		c3,0,5.6-0.3,7.8-1c2.1-0.6,3.9-1.5,5.3-2.6c1.4-1.1,2.4-2.4,3-4c0.6-1.5,0.9-3.2,0.9-5.1c0-2.1-0.3-3.9-1-5.4
		c-0.7-1.5-1.5-2.8-2.7-3.8s-2.5-1.8-4-2.2s-3.2-0.8-5-0.8s-3.5,0.3-5,0.8c-1.5,0.5-2.9,1.3-4.1,2.2c-1.2,0.9-2.2,2.1-3,3.4
		c-0.8,1.3-1.4,2.7-1.8,4.3c-0.3,1-0.7,1.7-1.2,2.1c-0.5,0.4-1.2,0.6-2.1,0.6c-0.2,0-0.3,0-0.5,0c-0.2,0-0.4,0-0.6-0.1l-4.6-0.8
		c0.5-3.3,1.4-6.2,2.7-8.7c1.3-2.5,3-4.6,5.1-6.3s4.4-3,7-3.9C-8.6,31.5-5.7,31-2.6,31z"/>
</g>
</svg>
