<?xml version="1.0" encoding="utf-8"?>
<!-- Generator: Adobe Illustrator 19.2.1, SVG Export Plug-In . SVG Version: 6.00 Build 0)  -->
<svg version="1.1" id="Layer_1" xmlns="http://www.w3.org/2000/svg" xmlns:xlink="http://www.w3.org/1999/xlink" x="0px" y="0px"
	 viewBox="0 0 122.7 145.9" style="enable-background:new 0 0 122.7 145.9;" xml:space="preserve">
<style type="text/css">
	.st0{fill:#F9AAB4;}
	.st1{fill:#EA6570;}
	.st2{enable-background:new    ;}
	.st3{fill:#FFFFFF;}
</style>
<g>
	<g>
		<path class="st0" d="M0,43.6c0-6.2,4.4-13.9,9.8-17L51.6,2.5c5.4-3.1,14.2-3.1,19.6,0l41.7,24.1c5.4,3.1,9.8,10.8,9.8,17v48.2
			c0,6.2-4.4,13.9-9.8,17l-41.7,24.1c-5.4,3.1-14.2,3.1-19.6,0L9.8,108.8C4.4,105.6,0,98,0,91.8V43.6z"/>
	</g>
	<g>
		<path class="st1" d="M0,47.8c0-6.2,4.4-13.9,9.8-17L51.6,6.7c5.4-3.1,14.2-3.1,19.6,0l41.7,24.1c5.4,3.1,9.8,10.8,9.8,17V96
			c0,6.2-4.4,13.9-9.8,17l-41.7,24.1c-5.4,3.1-14.2,3.1-19.6,0L9.8,113C4.4,109.9,0,102.2,0,96V47.8z"/>
	</g>
</g>
<g class="st2">
	<path class="st3" d="M62.4,31c3,0,5.9,0.5,8.5,1.4c2.6,0.9,4.9,2.2,6.8,3.9s3.4,3.8,4.5,6.3c1.1,2.5,1.6,5.3,1.6,8.4
		c0,2.7-0.4,5.1-1.2,7.4c-0.8,2.3-1.9,4.4-3.2,6.5c-1.4,2.1-2.9,4.1-4.7,6c-1.8,2-3.7,3.9-5.7,6L50.1,96.2c1.3-0.4,2.7-0.7,4-0.9
		c1.4-0.2,2.7-0.3,4-0.3h24c1,0,1.7,0.3,2.3,0.9s0.8,1.3,0.8,2.2v5.4H37.4v-3c0-0.6,0.1-1.3,0.4-2c0.2-0.7,0.7-1.3,1.2-1.8l23-23.1
		c1.9-1.9,3.6-3.8,5.2-5.6c1.6-1.8,2.9-3.6,4-5.4c1.1-1.8,2-3.6,2.6-5.5c0.6-1.8,0.9-3.8,0.9-5.9s-0.3-3.9-1-5.5
		c-0.7-1.6-1.6-2.9-2.8-3.9c-1.2-1-2.5-1.8-4.1-2.3c-1.6-0.5-3.2-0.8-5.1-0.8c-1.8,0-3.5,0.3-5,0.8s-2.9,1.3-4.1,2.2
		c-1.2,1-2.2,2.1-3,3.4c-0.8,1.3-1.4,2.7-1.7,4.3c-0.3,1-0.7,1.7-1.2,2.1c-0.5,0.4-1.2,0.7-2.1,0.7c-0.2,0-0.3,0-0.5,0
		s-0.4,0-0.6-0.1l-4.6-0.8c0.5-3.3,1.4-6.2,2.7-8.7c1.3-2.5,3-4.6,5.1-6.3c2.1-1.7,4.4-3,7.1-3.9C56.5,31.5,59.3,31,62.4,31z"/>
</g>
</svg>
