<?xml version="1.0" encoding="utf-8"?>
<!-- Generator: Adobe Illustrator 19.1.0, SVG Export Plug-In . SVG Version: 6.00 Build 0)  -->
<svg version="1.1" id="Layer_1" xmlns="http://www.w3.org/2000/svg" xmlns:xlink="http://www.w3.org/1999/xlink" x="0px" y="0px"
	 viewBox="-66 -3.2 122.7 145.9" style="enable-background:new -66 -3.2 122.7 145.9;" xml:space="preserve">
<style type="text/css">
	.st0{fill:#F9AAB4;}
	.st1{fill:#EA6570;}
	.st2{enable-background:new    ;}
	.st3{fill:none;stroke:#FFFFFF;stroke-width:3;stroke-miterlimit:10;}
</style>
<g>
	<g>
		<path class="st0" d="M-66,43.6c0-6.2,4.4-13.9,9.8-17l41.8-24.1C-9-0.6-0.2-0.6,5.2,2.5l41.7,24.1c5.4,3.1,9.8,10.8,9.8,17v48.2
			c0,6.2-4.4,13.9-9.8,17L5.2,132.9c-5.4,3.1-14.2,3.1-19.6,0l-41.8-24.1c-5.4-3.2-9.8-10.8-9.8-17V43.6z"/>
	</g>
	<g>
		<path class="st1" d="M-66,47.8c0-6.2,4.4-13.9,9.8-17l41.8-24.1C-9,3.6-0.2,3.6,5.2,6.7l41.7,24.1c5.4,3.1,9.8,10.8,9.8,17V96
			c0,6.2-4.4,13.9-9.8,17L5.2,137.1c-5.4,3.1-14.2,3.1-19.6,0L-56.2,113c-5.4-3.1-9.8-10.8-9.8-17V47.8z"/>
	</g>
</g>
<g class="st2">
	<path class="st3" d="M-3.6,31c3,0,5.9,0.5,8.5,1.4s4.9,2.2,6.8,3.9s3.4,3.8,4.5,6.3c1.1,2.5,1.6,5.3,1.6,8.4c0,2.7-0.4,5.1-1.2,7.4
		c-0.8,2.3-1.9,4.4-3.2,6.5c-1.4,2.1-2.9,4.1-4.7,6c-1.8,2-3.7,3.9-5.7,6l-18.9,19.3c1.3-0.4,2.7-0.7,4-0.9c1.4-0.2,2.7-0.3,4-0.3
		h24c1,0,1.7,0.3,2.3,0.9c0.6,0.6,0.8,1.3,0.8,2.2v5.4h-47.8v-3c0-0.6,0.1-1.3,0.4-2c0.2-0.7,0.7-1.3,1.2-1.8l23-23.1
		c1.9-1.9,3.6-3.8,5.2-5.6c1.6-1.8,2.9-3.6,4-5.4c1.1-1.8,2-3.6,2.6-5.5c0.6-1.8,0.9-3.8,0.9-5.9s-0.3-3.9-1-5.5
		c-0.7-1.6-1.6-2.9-2.8-3.9c-1.2-1-2.5-1.8-4.1-2.3c-1.6-0.5-3.2-0.8-5.1-0.8c-1.8,0-3.5,0.3-5,0.8s-2.9,1.3-4.1,2.2
		c-1.2,1-2.2,2.1-3,3.4c-0.8,1.3-1.4,2.7-1.7,4.3c-0.3,1-0.7,1.7-1.2,2.1c-0.5,0.4-1.2,0.7-2.1,0.7c-0.2,0-0.3,0-0.5,0
		c-0.2,0-0.4,0-0.6-0.1l-4.6-0.8c0.5-3.3,1.4-6.2,2.7-8.7c1.3-2.5,3-4.6,5.1-6.3c2.1-1.7,4.4-3,7.1-3.9C-9.5,31.5-6.7,31-3.6,31z"/>
</g>
</svg>
