<?xml version="1.0" encoding="utf-8"?>
<!-- Generator: Adobe Illustrator 19.1.0, SVG Export Plug-In . SVG Version: 6.00 Build 0)  -->
<svg version="1.1" id="Layer_1" xmlns="http://www.w3.org/2000/svg" xmlns:xlink="http://www.w3.org/1999/xlink" x="0px" y="0px"
	 viewBox="-418 208.1 122.7 145.9" style="enable-background:new -418 208.1 122.7 145.9;" xml:space="preserve">
<style type="text/css">
	.st0{fill:#F9AAB4;}
	.st1{fill:#EA6570;}
	.st2{fill:none;stroke:#FFFFFF;stroke-width:4;stroke-linejoin:round;stroke-miterlimit:10;}
</style>
<g>
	<g>
		<path class="st0" d="M-418,254.9c0-6.2,4.4-13.9,9.8-17l41.8-24.1c5.4-3.1,14.2-3.1,19.6,0l41.7,24.1c5.4,3.1,9.8,10.8,9.8,17
			v48.2c0,6.2-4.4,13.9-9.8,17l-41.7,24.1c-5.4,3.1-14.2,3.1-19.6,0l-41.8-24.1c-5.4-3.2-9.8-10.8-9.8-17V254.9z"/>
	</g>
	<g>
		<path class="st1" d="M-418,259.1c0-6.2,4.4-13.9,9.8-17l41.8-24.1c5.4-3.1,14.2-3.1,19.6,0l41.7,24.1c5.4,3.1,9.8,10.8,9.8,17
			v48.2c0,6.2-4.4,13.9-9.8,17l-41.7,24.1c-5.4,3.1-14.2,3.1-19.6,0l-41.8-24.1c-5.4-3.1-9.8-10.8-9.8-17V259.1z"/>
	</g>
</g>
<g>
	<path class="st2" d="M-319.6,299.8l-28.9-49.8c-4.5-7.7-11.8-7.8-16.3,0l-29,49.8c-4.5,7.7-0.9,14.1,8.1,14.1h57.9
		C-318.7,313.8-315.1,307.5-319.6,299.8z M-356.3,305.1c-2.8,0-5-2.2-5-5c0-2.8,2.2-5,5-5c2.8,0,5,2.2,5,5
		C-351.4,302.9-353.6,305.1-356.3,305.1z M-352.8,292h-7.1l-2.4-28.7h11.8L-352.8,292z"/>
</g>
</svg>
