<?xml version="1.0" encoding="utf-8"?>
<!-- Generator: Adobe Illustrator 19.1.0, SVG Export Plug-In . SVG Version: 6.00 Build 0)  -->
<svg version="1.1" id="Layer_1" xmlns="http://www.w3.org/2000/svg" xmlns:xlink="http://www.w3.org/1999/xlink" x="0px" y="0px"
	 viewBox="0 0 122.7 145.9" style="enable-background:new 0 0 122.7 145.9;" xml:space="preserve">
<style type="text/css">
	.st0{fill:#F9AAB4;}
	.st1{fill:#EA6570;}
	.st2{fill:none;stroke:#FFFFFF;stroke-width:4;stroke-linejoin:round;stroke-miterlimit:10;}
</style>
<g>
	<g>
		<path class="st0" d="M0,46.8c0-6.2,4.4-13.9,9.8-17L51.6,5.7c5.4-3.1,14.2-3.1,19.6,0l41.7,24.1c5.4,3.1,9.8,10.8,9.8,17V95
			c0,6.2-4.4,13.9-9.8,17l-41.7,24.1c-5.4,3.1-14.2,3.1-19.6,0L9.8,112C4.4,108.8,0,101.2,0,95V46.8z"/>
	</g>
	<g>
		<path class="st1" d="M0,51c0-6.2,4.4-13.9,9.8-17L51.6,9.9c5.4-3.1,14.2-3.1,19.6,0L112.9,34c5.4,3.1,9.8,10.8,9.8,17v48.2
			c0,6.2-4.4,13.9-9.8,17l-41.7,24.1c-5.4,3.1-14.2,3.1-19.6,0L9.8,116.2c-5.4-3.1-9.8-10.8-9.8-17V51z"/>
	</g>
</g>
<g>
	<path class="st2" d="M28.6,61.6h14v45.2h-14V61.6z M35.6,39.2c4.5,0,8.1,3.6,8.1,8.1c0,4.5-3.6,8.1-8.1,8.1c-4.5,0-8.1-3.6-8.1-8.1
		C27.5,42.8,31.1,39.2,35.6,39.2"/>
	<path class="st2" d="M51.5,61.6h13.5v6.2h0.2c1.9-3.6,6.5-7.3,13.3-7.3c14.2,0,16.8,9.4,16.8,21.5v24.8h-14v-22
		c0-5.2-0.1-12-7.3-12c-7.3,0-8.4,5.7-8.4,11.6v22.3h-14V61.6z"/>
</g>
</svg>
