<?xml version="1.0" encoding="utf-8"?>
<!-- Generator: Adobe Illustrator 19.1.0, SVG Export Plug-In . SVG Version: 6.00 Build 0)  -->
<svg version="1.1" id="Layer_1" xmlns="http://www.w3.org/2000/svg" xmlns:xlink="http://www.w3.org/1999/xlink" x="0px" y="0px"
	 viewBox="0 0 122.7 145.9" style="enable-background:new 0 0 122.7 145.9;" xml:space="preserve">
<style type="text/css">
	.st0{fill:#F9AAB4;}
	.st1{fill:#EA6570;}
	.st2{fill:none;stroke:#FFFFFF;stroke-width:4;stroke-miterlimit:10;}
</style>
<g>
	<g>
		<path class="st0" d="M0,46.8c0-6.2,4.4-13.9,9.8-17L51.6,5.7c5.4-3.1,14.2-3.1,19.6,0l41.7,24.1c5.4,3.1,9.8,10.8,9.8,17v48.2
			c0,6.2-4.4,13.9-9.8,17L71.2,136c-5.4,3.1-14.2,3.1-19.6,0L9.8,111.9c-5.4-3.1-9.8-10.8-9.8-17V46.8z"/>
	</g>
	<g>
		<path class="st1" d="M0,51c0-6.2,4.4-13.9,9.8-17L51.6,9.9c5.4-3.1,14.2-3.1,19.6,0L112.9,34c5.4,3.1,9.8,10.8,9.8,17v48.2
			c0,6.2-4.4,13.9-9.8,17l-41.7,24.1c-5.4,3.1-14.2,3.1-19.6,0L9.8,116.2c-5.4-3.1-9.8-10.8-9.8-17V51z"/>
	</g>
	<rect x="22.6" y="51.7" class="st2" width="77.6" height="47.7"/>
	<polyline class="st2" points="100.1,51.7 61.4,80.2 22.6,51.7 	"/>
	<line class="st2" x1="68" y1="75.7" x2="100.2" y2="99.4"/>
	<line class="st2" x1="22.6" y1="99.4" x2="54.7" y2="75.8"/>
</g>
</svg>
