<?xml version="1.0" encoding="utf-8"?>
<!-- Generator: Adobe Illustrator 19.1.0, SVG Export Plug-In . SVG Version: 6.00 Build 0)  -->
<svg version="1.1" id="Layer_1" xmlns="http://www.w3.org/2000/svg" xmlns:xlink="http://www.w3.org/1999/xlink" x="0px" y="0px"
	 viewBox="0 0 28 28" style="enable-background:new 0 0 28 28;" xml:space="preserve">
<style type="text/css">
	.st0{fill:#8DC63F;}
	.st1{fill:#808C90;}
	.st2{fill:#001822;}
</style>
<g>
	<path class="st0" d="M21.4,5.5l-3.2,2.9c2.3,1.4,3.8,4,3.8,6.9c0,1-0.2,1.9-0.5,2.7h-2.3v3.4c-1.4,1.2-3.2,1.9-5.2,1.9
		c-2,0-3.9-0.7-5.3-2V18l-2.3,0C6.1,17.1,6,16.2,6,15.3c0-4.1,3-7.4,7-8v1.4l1,0L17.8,5l-4.9-4.5V3C6.7,3.6,1.8,8.8,1.8,15.3
		C1.8,22,7.2,27.5,14,27.5c6.8,0,12.2-5.5,12.2-12.2C26.2,11.2,24.3,7.7,21.4,5.5z"/>
	<g>
		<g>
			<circle class="st1" cx="14" cy="13.5" r="1.6"/>
			<circle class="st1" cx="14" cy="10.7" r="1.1"/>
		</g>
		<g>
			<circle class="st2" cx="11.2" cy="10.7" r="1.1"/>
			<circle class="st2" cx="16.8" cy="10.7" r="1.1"/>
			<path class="st2" d="M20.7,14L20.7,14l-1.4-3.2C19.1,10.3,18.8,9.4,18,9c-0.6-0.3-2.6-0.5-4-0.5c-1.4,0-3.4,0.1-4,0.5
				c-0.8,0.4-1.1,1.4-1.3,1.8L7.3,14h0C6.5,14.5,6,15.5,6,16.6c0,0.7,0.2,1.6,0.9,2.2c0.1,0.1,0.2,0.2,0.4,0.3c0,0.8,0,1.7,0,1.9
				c0,0.4,0.7,1,1.4,1c0.7,0,1.4-0.6,1.4-1c0-0.1,0-0.5,0-0.9c1.6,0.3,3.2,0.2,3.8,0.2c0.6,0,2.2,0,3.8-0.2c0,0.4,0,0.8,0,0.9
				c0,0.4,0.7,1,1.4,1c0.7,0,1.4-0.6,1.4-1c0-0.3,0-1.2,0-1.9c0.1-0.1,0.3-0.2,0.4-0.3c0.7-0.7,0.9-1.6,0.9-2.2
				C22,15.5,21.5,14.5,20.7,14z M8.8,17.9c-0.7,0-1.3-0.6-1.3-1.3c0-0.7,0.6-1.3,1.3-1.3c0.7,0,1.3,0.6,1.3,1.3
				C10.1,17.3,9.5,17.9,8.8,17.9z M16.8,12c-0.6,0-1.1,0.3-1.4,0.8c-0.4,0-0.9,0-1.4,0c-0.5,0-0.9,0-1.4,0c-0.3-0.5-0.8-0.8-1.4-0.8
				c-0.7,0-1.3,0.5-1.5,1.1c-0.4,0.1-0.7,0.2-1,0.3c0.2-1.2,0.8-3,1.2-3.5c0.6-0.7,2.9-0.8,4.1-0.8c1.2,0,3.5,0.1,4.1,0.8
				c0.4,0.5,0.9,2.3,1.2,3.5c-0.3-0.1-0.7-0.2-1-0.3C18.1,12.5,17.5,12,16.8,12z M19.3,17.9c-0.7,0-1.3-0.6-1.3-1.3
				c0-0.7,0.6-1.3,1.3-1.3c0.7,0,1.3,0.6,1.3,1.3C20.6,17.3,20,17.9,19.3,17.9z"/>
		</g>
	</g>
</g>
</svg>
