<?xml version="1.0" encoding="utf-8"?>
<!-- Generator: Adobe Illustrator 20.0.0, SVG Export Plug-In . SVG Version: 6.00 Build 0)  -->
<svg version="1.1" id="Layer_1" xmlns="http://www.w3.org/2000/svg" xmlns:xlink="http://www.w3.org/1999/xlink" x="0px" y="0px"
	 viewBox="0 0 28 28" style="enable-background:new 0 0 28 28;" xml:space="preserve">
<style type="text/css">
	.st0{fill:#44BC00;}
	.st1{fill:#00C1E1;}
	.st2{fill:#FF008F;}
	.st3{fill:#006EB2;}
	.st4{fill:none;}
	.st5{fill:#00038E;}
</style>
<g>
	<path class="st0" d="M20.9,22c-1.5-0.9-2.3-2-3.7-4.9c-0.6,0.1-1.2,0.2-1.9,0.2h0c-2.7,0-3.1-1.6-3.2-2.1c-0.2-1.2,0.6-2.4,1.7-2.8
		c0.6-0.2,2.1-0.4,3.4,2.2c0.2,0.4,0.4,0.8,0.6,1.2c1.7-0.6,2.6-2,3.2-3.8c0.6-2.9-0.4-5.3-2.8-6.6c-2.5-1.4-5.7-1.1-7.8,0.7
		c-0.8,0.7-1.5,1.5-2,2.3c2.3,3.4,3,7.1,2.2,12.4l0,0c-0.5,2.6-1.8,2.7-2.4,2.7c0,0-0.1,0-0.1,0c-1.5-0.1-2.8-1.9-3.1-5
		c-0.2-2.1-0.6-5.9,2-10.1C6,7.4,4.9,6.3,3.6,5.3c-2,2.4-3.3,5.5-3.3,8.8c0,7.5,6.1,13.6,13.6,13.6c4.3,0,8.1-2,10.6-5.1
		C23.2,22.9,22.1,22.8,20.9,22z"/>
	<path class="st1" d="M27.6,14.2c0-7.5-6.1-13.6-13.6-13.6c-3.8,0-7.2,1.5-9.6,4c1.3,0.9,2.3,1.9,3.2,3c0.6-0.7,1.2-1.5,2-2.2
		c2.4-2.2,6.2-2.5,9.1-0.9c2.7,1.6,4,4.5,3.3,7.8l0,0.1c-0.7,2.2-1.7,3.8-3.7,4.5c1.3,2.5,2,3.6,3.2,4.3c1.4,0.8,2.7,0.8,4.2,0.2
		C26.9,19.2,27.6,16.8,27.6,14.2z"/>
	<path class="st2" d="M14.3,13.5c-0.1,0-0.2,0-0.3,0c-0.6,0.2-1,1-0.9,1.6c0.1,0.7,0.9,1.1,2.1,1.1h0c0.5,0,1,0,1.4-0.1
		c-0.2-0.3-0.3-0.6-0.5-1C15.6,14.1,14.9,13.5,14.3,13.5"/>
	<path class="st3" d="M6,18.6c0.3,2.9,1.3,4,2,4c0.5,0,1-0.5,1.3-1.8c0.8-4.8,0.2-8.1-1.8-11.3C5.4,13.3,5.8,16.5,6,18.6"/>
	<path class="st4" d="M0.4,14.1c0,7.5,6.1,13.6,13.6,13.6c7.5,0,13.6-6.1,13.6-13.6c0-7.5-6.1-13.6-13.6-13.6
		C6.5,0.5,0.4,6.6,0.4,14.1"/>
	<path class="st5" d="M26,20.7L25.2,21c-1.5,0.6-2.4,0.6-3.7-0.1h0c-1-0.6-1.7-1.4-2.9-3.8c1.7-0.8,2.9-2.2,3.6-4.6l0,0
		c0.8-3.2-0.6-6.5-3.4-8.2c-3.2-1.8-7.3-0.9-9.5,0.9C8.6,5.7,8,6.4,7.6,7C6.7,6,5.9,5.3,4.8,4.4L4.6,4.3C4.2,4.7,3.8,5.2,3.4,5.6
		l0.2,0.2c1.2,0.9,2.1,1.7,2.9,2.8c-2.5,4.1-2.1,7.8-1.9,10l0,0.2C4.9,21.9,6.2,23.9,8,24c0,0,0.1,0,0.1,0c0.5,0,2.1,0,2.7-3l0,0
		c0.8-5.2,0.2-8.9-2.1-12.5c0.5-0.7,1.1-1.4,1.9-2.1c1.6-1.5,4.9-2.1,7.4-0.7c2.1,1.2,3.2,3.7,2.6,6.2c-0.6,1.9-1.4,2.9-2.7,3.5
		c-0.1-0.3-0.3-0.6-0.4-0.9c-1.4-2.8-3.1-2.6-3.8-2.4c-1.3,0.4-2.1,1.8-1.9,3.2c0.1,0.5,0.6,2.3,3.5,2.3h0c0.6,0,1.2-0.1,1.7-0.1
		c1.4,2.8,2.2,3.9,3.8,4.8c1.3,0.8,2.2,0.9,3.7,0.7C25,22.3,25.5,21.5,26,20.7z M9,20.7c-0.2,1-0.6,1.6-1,1.5c-0.4,0-1.5-1-1.7-3.7
		l0-0.2c-0.2-1.9-0.5-4.8,1.3-8.2C9.3,13.2,9.7,16.3,9,20.7z M15.2,15.9L15.2,15.9c-0.5,0-1.7-0.1-1.8-0.8c-0.1-0.5,0.3-1.1,0.7-1.2
		c0.1,0,0.1,0,0.2,0c0.5,0,1,0.5,1.5,1.5l0.3,0.5C15.8,15.9,15.5,15.9,15.2,15.9z"/>
</g>
</svg>
