<?xml version="1.0" encoding="utf-8"?>
<!-- Generator: Adobe Illustrator 19.1.0, SVG Export Plug-In . SVG Version: 6.00 Build 0)  -->
<svg version="1.1" id="Layer_1" xmlns="http://www.w3.org/2000/svg" xmlns:xlink="http://www.w3.org/1999/xlink" x="0px" y="0px"
	 viewBox="0 0 200 47" style="enable-background:new 0 0 200 47;" xml:space="preserve">
<style type="text/css">
	.st0{fill:#FFFFFF;}
	.st1{fill:#77BC1F;}
</style>
<g>
	<path class="st0" d="M1,15.1v29.8C1,45.5,1.5,46,2.2,46h10.2c0.6,0,1.2-0.5,1.2-1.1V26.1L1,15.1z"/>
	<path class="st0" d="M155.9,44.9l-17-23.8l-0.1-0.1l15.4-18.9c0.4-0.6,0.3-1.1-0.4-1.1h-10.2c-0.6,0-1.5,0.5-1.9,1.1l-13.9,18.4
		V2.1c0-0.6-0.5-1.1-1.1-1.1h-10.2c-0.6,0-1.2,0.5-1.2,1.1v42.8c0,0.6,0.5,1.1,1.2,1.1h10.2c0.6,0,1.1-0.5,1.1-1.1V34.5l3.4-4.1
		l10.6,14.5c0.4,0.6,1.3,1.1,1.9,1.1h11.9C156.1,46,156.3,45.5,155.9,44.9"/>
	<path class="st0" d="M59.2,1H49c-0.6,0-1.2,0.5-1.2,1.1v22.6L29.6,2.1C29.3,1.4,28.7,1,28.1,1h-0.2h-5.4h-0.2
		c-0.6,0-1.1,0.5-1.1,1.1v42.8c0,0.6,0.5,1.1,1.1,1.1h10.2c0.6,0,1.2-0.5,1.2-1.1V22L52,44.9c0.3,0.6,1.1,1.1,1.7,1.1h5.4
		c0.6,0,1.1-0.5,1.1-1.1V2.1C60.3,1.5,59.8,1,59.2,1"/>
	<path class="st1" d="M13.5,19.2V2.1C13.5,1.5,13,1,12.3,1H2.2C1.5,1,1,1.5,1,2.1v6.2L13.5,19.2z"/>
	<path class="st0" d="M106,1H95.8c-0.6,0-1.1,0.5-1.1,1.1v22.6L76.4,2.1C76.1,1.4,75.5,1,74.9,1h-0.1h-5.4h-0.1
		C68.5,1,68,1.5,68,2.1v42.8c0,0.6,0.5,1.1,1.2,1.1h10.2c0.6,0,1.1-0.5,1.1-1.1V22l18.4,22.9c0.3,0.6,1.1,1.1,1.8,1.1h5.4
		c0.6,0,1.2-0.5,1.2-1.1V2.1C107.1,1.5,106.6,1,106,1"/>
	<path class="st0" d="M197.8,1h-10.2c-0.6,0-1.1,0.5-1.1,1.1V29c0,0.1,0.3,5.7-6.9,5.8c-7.2,0-6.9-5.6-6.9-5.8V2.1
		c0-0.6-0.5-1.1-1.2-1.1h-10.2c-0.6,0-1.2,0.5-1.2,1.1V29c0,0.2,0.2,16.9,19.3,17h0h0h0h0.1c19.1-0.1,19.3-16.8,19.3-17V2.1
		C199,1.5,198.5,1,197.8,1"/>
</g>
</svg>
