<?xml version="1.0" encoding="utf-8"?>
<!-- Generator: Adobe Illustrator 19.1.0, SVG Export Plug-In . SVG Version: 6.00 Build 0)  -->
<svg version="1.1" id="Layer_1" xmlns="http://www.w3.org/2000/svg" xmlns:xlink="http://www.w3.org/1999/xlink" x="0px" y="0px"
	 viewBox="0 0 200 40" style="enable-background:new 0 0 200 40;" xml:space="preserve">
<style type="text/css">
	.st0{fill:url(#SVGID_1_);}
	.st1{fill:#231F20;}
</style>
<g id="Color-logo">
	<g>
		<g>
			<linearGradient id="SVGID_1_" gradientUnits="userSpaceOnUse" x1="18.316" y1="37.7909" x2="18.316" y2="2.6075">
				<stop  offset="0" style="stop-color:#F4A036"/>
				<stop  offset="1" style="stop-color:#FCB813"/>
			</linearGradient>
			<path class="st0" d="M18.3,37.8c-9.7,0-17.6-7.9-17.6-17.6c0-9.7,7.9-17.6,17.6-17.6c9.7,0,17.6,7.9,17.6,17.6
				C35.9,29.9,28,37.8,18.3,37.8z M18.3,4c-9,0-16.2,7.3-16.2,16.2c0,9,7.3,16.2,16.2,16.2s16.2-7.3,16.2-16.2
				C34.6,11.2,27.3,4,18.3,4z"/>
		</g>
		<path d="M26.5,11c0-0.9-0.7-1.6-1.6-1.6H11.7c-0.9,0-1.6,0.7-1.6,1.6l-0.9,7.5V26c0,0.9,0.7,1.6,1.6,1.6h0v2.2
			c0,0.7,0.6,1.3,1.3,1.3h0.9c0.7,0,1.3-0.6,1.3-1.3v-2.2h7.9v2.2c0,0.7,0.6,1.3,1.3,1.3h0.9c0.7,0,1.3-0.6,1.3-1.3v-2.2h0
			c0.9,0,1.6-0.7,1.6-1.6v-7.5L26.5,11z M12.7,10.2H24c0.5,0,0.9,0.4,0.9,0.9c0,0.5-0.4,0.9-0.9,0.9H12.7c-0.5,0-0.9-0.4-0.9-0.9
			C11.8,10.6,12.2,10.2,12.7,10.2z M12.4,25.7c-0.8,0-1.5-0.7-1.5-1.5c0-0.8,0.7-1.5,1.5-1.5s1.5,0.7,1.5,1.5
			C13.9,25,13.2,25.7,12.4,25.7z M17.4,19.7H11v-5.8c0-0.6,0.5-1.1,1.1-1.1h5.3V19.7z M19.2,19.7v-6.9h5.4c0.6,0,1.1,0.5,1.1,1.1
			v5.8H19.2z M24.2,25.7c-0.8,0-1.5-0.7-1.5-1.5c0-0.8,0.7-1.5,1.5-1.5c0.8,0,1.5,0.7,1.5,1.5C25.7,25,25.1,25.7,24.2,25.7z"/>
	</g>
	<g>
		<path class="st1" d="M58.5,7.1c1.2,0,2.2,0.2,3.1,0.6c0.9,0.4,1.7,0.9,2.4,1.5c0.7,0.7,1.2,1.4,1.5,2.3c0.3,0.9,0.5,1.8,0.5,2.8
			c0,1.5-0.3,2.8-1,3.9c-0.6,1.1-1.7,2-3.1,2.5v0.1c0.7,0.2,1.3,0.5,1.7,0.9c0.5,0.4,0.8,0.9,1.1,1.4c0.3,0.5,0.5,1.1,0.6,1.8
			c0.1,0.7,0.2,1.3,0.3,2c0,0.4,0,0.9,0.1,1.4c0,0.6,0.1,1.1,0.1,1.7c0.1,0.6,0.2,1.1,0.3,1.6c0.1,0.5,0.3,1,0.6,1.3h-5.7
			c-0.3-0.8-0.5-1.8-0.6-2.9c-0.1-1.1-0.2-2.2-0.3-3.3c-0.2-1.3-0.6-2.3-1.2-3c-0.6-0.6-1.7-0.9-3.1-0.9h-5.7l0,10.1l-5.7,0l0-25.8
			L58.5,7.1z M56.5,18.8c1.3,0,2.3-0.3,2.9-0.9c0.7-0.6,1-1.5,1-2.8c0-1.3-0.3-2.2-1-2.7c-0.7-0.6-1.6-0.9-2.9-0.9h-6.2l0,7.3H56.5z
			"/>
		<path class="st1" d="M74.9,28.5c0.8,0.7,1.9,1.1,3.3,1.1c1,0,1.9-0.3,2.7-0.8c0.7-0.5,1.2-1.1,1.4-1.6l4.5,0
			C86.1,29.4,85,31,83.5,32c-1.5,1-3.3,1.4-5.4,1.4c-1.5,0-2.8-0.2-4-0.7c-1.2-0.5-2.2-1.1-3-2c-0.8-0.9-1.5-1.9-1.9-3.1
			c-0.4-1.2-0.7-2.5-0.7-4c0-1.4,0.2-2.7,0.7-3.9c0.5-1.2,1.1-2.2,2-3.1c0.8-0.9,1.8-1.6,3-2.1c1.2-0.5,2.5-0.8,3.9-0.8
			c1.6,0,3,0.3,4.2,0.9c1.2,0.6,2.2,1.4,2.9,2.5c0.8,1,1.3,2.2,1.6,3.5c0.3,1.3,0.5,2.7,0.4,4.2l-13.5,0
			C73.7,26.5,74.2,27.7,74.9,28.5z M80.7,18.6c-0.6-0.7-1.6-1-2.8-1c-0.8,0-1.5,0.1-2,0.4c-0.5,0.3-1,0.6-1.3,1
			c-0.3,0.4-0.6,0.8-0.7,1.3c-0.1,0.5-0.2,0.9-0.2,1.2H82C81.8,20.3,81.3,19.3,80.7,18.6z"/>
		<path class="st1" d="M94,28.3c0.2,0.4,0.5,0.7,0.9,1c0.4,0.3,0.8,0.4,1.2,0.6c0.5,0.1,1,0.2,1.5,0.2c0.4,0,0.7,0,1.1-0.1
			c0.4-0.1,0.8-0.2,1.1-0.4c0.3-0.2,0.6-0.4,0.8-0.7c0.2-0.3,0.3-0.7,0.3-1.1c0-0.8-0.5-1.4-1.5-1.7c-1-0.4-2.5-0.8-4.3-1.2
			c-0.7-0.2-1.5-0.4-2.2-0.6c-0.7-0.2-1.3-0.5-1.9-0.9c-0.6-0.4-1-0.8-1.3-1.4c-0.3-0.6-0.5-1.3-0.5-2.1c0-1.2,0.2-2.2,0.7-3
			c0.5-0.8,1.1-1.4,1.9-1.8c0.8-0.4,1.6-0.8,2.6-0.9c1-0.2,2-0.3,3-0.3c1,0,2,0.1,2.9,0.3c1,0.2,1.8,0.5,2.5,1
			c0.7,0.5,1.4,1.1,1.9,1.8c0.5,0.8,0.8,1.7,0.9,2.9h-4.9c-0.1-1-0.4-1.7-1.1-2c-0.7-0.3-1.5-0.5-2.4-0.5c-0.3,0-0.6,0-0.9,0.1
			c-0.3,0-0.6,0.1-0.9,0.2c-0.3,0.1-0.5,0.3-0.7,0.5c-0.2,0.2-0.3,0.5-0.3,0.9c0,0.5,0.2,0.8,0.5,1.1c0.3,0.3,0.8,0.5,1.3,0.7
			c0.5,0.2,1.2,0.3,1.9,0.5c0.7,0.1,1.4,0.3,2.1,0.5c0.7,0.2,1.5,0.4,2.2,0.6c0.7,0.2,1.3,0.6,1.9,1c0.6,0.4,1,0.9,1.3,1.5
			c0.3,0.6,0.5,1.3,0.5,2.2c0,1.2-0.2,2.3-0.7,3.1c-0.5,0.8-1.1,1.5-1.9,2c-0.8,0.5-1.7,0.9-2.7,1.1c-1,0.2-2.1,0.3-3.1,0.3
			c-1.1,0-2.1-0.1-3.2-0.3c-1-0.2-2-0.6-2.8-1.1c-0.8-0.5-1.5-1.2-2-2c-0.5-0.8-0.8-1.9-0.8-3.1h4.9C93.7,27.4,93.8,27.9,94,28.3z"
			/>
		<path class="st1" d="M114.2,28.4c0.8,0.7,1.9,1.1,3.3,1.1c1,0,1.9-0.3,2.7-0.8c0.7-0.5,1.2-1.1,1.4-1.6h4.5
			c-0.7,2.2-1.8,3.8-3.3,4.8c-1.5,1-3.3,1.4-5.4,1.4c-1.5,0-2.8-0.2-4-0.7c-1.2-0.5-2.2-1.1-3-2c-0.8-0.9-1.5-1.9-1.9-3.1
			c-0.4-1.2-0.7-2.5-0.7-4c0-1.4,0.2-2.7,0.7-3.9c0.5-1.2,1.1-2.2,2-3.1c0.8-0.9,1.8-1.6,3-2.1c1.2-0.5,2.5-0.8,3.9-0.8
			c1.6,0,3,0.3,4.2,0.9c1.2,0.6,2.2,1.4,2.9,2.5c0.8,1,1.3,2.2,1.6,3.5c0.3,1.3,0.5,2.7,0.4,4.2l-13.5,0
			C113,26.5,113.4,27.7,114.2,28.4z M120,18.6c-0.6-0.7-1.5-1-2.8-1c-0.8,0-1.5,0.1-2,0.4c-0.5,0.3-1,0.6-1.3,1
			c-0.3,0.4-0.6,0.8-0.7,1.3c-0.1,0.5-0.2,0.9-0.2,1.2l8.4,0C121,20.3,120.6,19.3,120,18.6z"/>
		<path class="st1" d="M133,14.2l0,3.5h0.1c0.2-0.6,0.6-1.1,1-1.6c0.4-0.5,0.9-0.9,1.4-1.3c0.5-0.3,1.1-0.6,1.7-0.8
			c0.6-0.2,1.2-0.3,1.9-0.3c0.3,0,0.7,0.1,1.1,0.2l0,4.8c-0.2,0-0.5-0.1-0.9-0.1c-0.3,0-0.7-0.1-1-0.1c-0.9,0-1.7,0.2-2.4,0.5
			c-0.7,0.3-1.2,0.7-1.6,1.3c-0.4,0.5-0.7,1.2-0.8,1.9c-0.2,0.7-0.3,1.5-0.3,2.4l0,8.4l-5.1,0l0-18.7L133,14.2z"/>
		<path class="st1" d="M146.9,7.1l0,9.4h0.1c0.6-1,1.5-1.7,2.6-2.1c1.1-0.4,2.2-0.7,3.3-0.7c0.9,0,1.9,0.2,2.8,0.6
			c0.9,0.4,1.7,1,2.5,1.8c0.7,0.8,1.3,1.8,1.8,3.1c0.5,1.2,0.7,2.7,0.7,4.4c0,1.7-0.2,3.2-0.7,4.4c-0.5,1.2-1.1,2.3-1.8,3.1
			c-0.7,0.8-1.6,1.4-2.5,1.8c-0.9,0.4-1.8,0.6-2.8,0.6c-1.4,0-2.6-0.2-3.7-0.6c-1.1-0.4-1.9-1.2-2.5-2.2h-0.1v2.4h-4.9l0-25.8H146.9
			z M155.2,21.3c-0.2-0.7-0.4-1.4-0.8-1.9c-0.4-0.6-0.8-1-1.4-1.3c-0.5-0.3-1.2-0.5-2-0.5c-0.7,0-1.4,0.2-2,0.5
			c-0.6,0.3-1,0.8-1.4,1.3c-0.4,0.6-0.6,1.2-0.8,1.9c-0.2,0.7-0.3,1.5-0.3,2.3c0,0.8,0.1,1.5,0.3,2.2c0.2,0.7,0.4,1.4,0.8,1.9
			c0.4,0.6,0.8,1,1.4,1.3c0.6,0.3,1.2,0.5,2,0.5c0.8,0,1.4-0.2,2-0.5c0.5-0.3,1-0.8,1.4-1.3c0.4-0.6,0.6-1.2,0.8-1.9
			c0.2-0.7,0.3-1.5,0.3-2.2C155.5,22.8,155.4,22,155.2,21.3z"/>
		<path class="st1" d="M174.9,32.9v-2.6h-0.1c-0.7,1.1-1.5,1.9-2.5,2.4c-1,0.5-2.1,0.7-3.2,0.7c-1.4,0-2.5-0.2-3.4-0.5
			c-0.9-0.4-1.6-0.9-2.1-1.5c-0.5-0.7-0.9-1.5-1.1-2.4c-0.2-1-0.3-2-0.3-3.2l0-11.5h5.1l0,10.6c0,1.5,0.2,2.7,0.7,3.5
			c0.5,0.8,1.3,1.1,2.6,1.1c1.4,0,2.4-0.4,3-1.2c0.6-0.8,0.9-2.2,0.9-4.1v-9.8h5.1l0,18.7H174.9z"/>
		<path class="st1" d="M186.6,28.3c0.2,0.4,0.5,0.7,0.9,1c0.4,0.3,0.8,0.4,1.2,0.6c0.5,0.1,1,0.2,1.5,0.2c0.4,0,0.7,0,1.1-0.1
			c0.4-0.1,0.8-0.2,1.1-0.4c0.3-0.2,0.6-0.4,0.8-0.7c0.2-0.3,0.3-0.7,0.3-1.1c0-0.8-0.5-1.4-1.5-1.7c-1-0.4-2.5-0.8-4.3-1.2
			c-0.7-0.2-1.5-0.4-2.2-0.6c-0.7-0.2-1.3-0.5-1.9-0.9c-0.6-0.4-1-0.8-1.3-1.4c-0.3-0.6-0.5-1.3-0.5-2.1c0-1.2,0.2-2.2,0.7-3
			c0.5-0.8,1.1-1.4,1.9-1.8c0.8-0.4,1.6-0.8,2.6-0.9c1-0.2,2-0.3,3-0.3c1,0,2,0.1,2.9,0.3c1,0.2,1.8,0.5,2.6,1
			c0.7,0.5,1.4,1.1,1.9,1.8c0.5,0.8,0.8,1.7,0.9,2.9h-4.9c-0.1-1-0.4-1.7-1.1-2c-0.7-0.3-1.5-0.5-2.4-0.5c-0.3,0-0.6,0-0.9,0.1
			c-0.3,0-0.6,0.1-0.9,0.2c-0.3,0.1-0.5,0.3-0.7,0.5c-0.2,0.2-0.3,0.5-0.3,0.9c0,0.5,0.2,0.8,0.5,1.1c0.3,0.3,0.8,0.5,1.3,0.7
			c0.5,0.2,1.2,0.3,1.9,0.5c0.7,0.1,1.4,0.3,2.1,0.5c0.7,0.2,1.5,0.4,2.2,0.6c0.7,0.2,1.3,0.6,1.9,1c0.6,0.4,1,0.9,1.3,1.5
			c0.3,0.6,0.5,1.3,0.5,2.2c0,1.2-0.2,2.3-0.7,3.1c-0.5,0.8-1.1,1.5-1.9,2c-0.8,0.5-1.7,0.9-2.7,1.1c-1,0.2-2.1,0.3-3.1,0.3
			c-1.1,0-2.1-0.1-3.2-0.3c-1-0.2-2-0.6-2.8-1.1c-0.8-0.5-1.5-1.2-2-2c-0.5-0.8-0.8-1.9-0.9-3.1l4.9,0
			C186.3,27.4,186.4,27.9,186.6,28.3z"/>
	</g>
</g>
</svg>
