<?xml version="1.0" encoding="utf-8"?>
<!-- Generator: Adobe Illustrator 19.1.0, SVG Export Plug-In . SVG Version: 6.00 Build 0)  -->
<svg version="1.1" id="Layer_1" xmlns="http://www.w3.org/2000/svg" xmlns:xlink="http://www.w3.org/1999/xlink" x="0px" y="0px"
	 viewBox="68 13 200 40" style="enable-background:new 68 13 200 40;" xml:space="preserve">
<style type="text/css">
	.st0{fill:#8DC63F;}
	.st1{fill:#808C90;}
	.st2{fill:#001822;}
</style>
<g>
	<path class="st0" d="M189.9,21l-4.4,4.1c3.2,2,5.4,5.6,5.4,9.6c0,1.3-0.2,2.6-0.7,3.8h-3.3v4.8c-2,1.7-4.6,2.7-7.4,2.7
		s-5.4-1-7.4-2.8v-4.7h-3.2c-0.4-1.2-0.7-2.5-0.7-3.8c0-5.7,4.3-10.5,9.8-11.2v1.9h1.4l5.4-5.1L178,14v3.6
		c-8.8,0.8-15.7,8.2-15.7,17.2c-0.1,9.5,7.6,17.2,17.2,17.2c9.5,0,17.2-7.7,17.2-17.2C196.8,29.1,194,24.1,189.9,21z"/>
	<g>
		<circle class="st1" cx="179.5" cy="32.3" r="2.2"/>
		<circle class="st1" cx="179.5" cy="28.5" r="1.5"/>
	</g>
	<g>
		<circle class="st2" cx="175.6" cy="28.4" r="1.5"/>
		<circle class="st2" cx="183.4" cy="28.4" r="1.5"/>
		<path class="st2" d="M188.9,33L188.9,33l-2-4.5c-0.3-0.6-0.7-2-1.8-2.6c-0.8-0.5-3.7-0.7-5.7-0.7s-4.8,0.2-5.7,0.7
			c-1.1,0.6-1.5,1.9-1.8,2.6l-1.8,4.5l0,0c-1.1,0.8-1.9,2.1-1.9,3.6c0,0.9,0.3,2.2,1.3,3.2c0.2,0.2,0.3,0.3,0.5,0.4
			c0,1.1,0,2.3,0,2.7c0,0.6,1,1.4,2,1.4s2-0.8,2-1.4c0-0.2,0-0.7,0-1.3c2.2,0.4,4.5,0.3,5.4,0.3s3.1,0,5.4-0.3c0,0.6,0,1.1,0,1.3
			c0,0.6,1,1.4,2,1.4s2-0.8,2-1.4c0-0.4,0-1.6,0-2.7c0.2-0.1,0.4-0.3,0.5-0.4c1-1,1.3-2.2,1.3-3.2C190.8,35.1,190,33.8,188.9,33z
			 M172.1,38.5c-1,0-1.9-0.8-1.9-1.9c0-1.1,0.8-1.9,1.9-1.9c1,0,1.9,0.8,1.9,1.9C174.1,37.7,173.1,38.5,172.1,38.5z M183.4,30.2
			c-0.8,0-1.5,0.5-1.9,1.1c-0.6,0-1.3,0-2,0c-0.7,0-1.3,0-1.9,0c-0.4-0.7-1.1-1.1-1.9-1.1c-1,0-1.9,0.7-2.1,1.6
			c-0.5,0.1-1,0.2-1.4,0.4c0.4-1.8,1.1-4.2,1.7-5c0.8-1,4.1-1.1,5.8-1.1c1.7,0,5,0.1,5.8,1.1c0.6,0.7,1.3,3.2,1.7,5
			c-0.4-0.1-0.9-0.2-1.4-0.4C185.2,30.8,184.4,30.2,183.4,30.2z M186.9,38.5c-1,0-1.9-0.8-1.9-1.9c0-1,0.8-1.9,1.9-1.9
			c1,0,1.9,0.8,1.9,1.9C188.9,37.6,187.9,38.5,186.9,38.5z"/>
	</g>
	<path class="st2" d="M109.1,44.1c-0.2,0-0.3-0.1-0.3-0.3v-1.1l0,0c-0.8,1.1-2.2,1.7-4.3,1.7c-2.8,0-5.2-1.5-5.2-4.8
		c0-3.5,2.6-5.1,6.5-5.1h2.8c0.1,0,0.1-0.1,0.1-0.2v-0.6c0-1.5-0.7-2.1-3.2-2.1c-1.6,0-2.7,0.5-3.5,1c-0.2,0.1-0.3,0.1-0.4-0.1
		l-1.5-2.6c-0.1-0.2-0.1-0.4,0.1-0.5c1.3-0.9,3.2-1.6,5.8-1.6c5.1,0,7,1.8,7,5.7v10.1c0,0.2-0.1,0.3-0.3,0.3h-3.6
		C109.2,43.9,109.2,44.1,109.1,44.1z M108.6,38.9v-1.1c0-0.1,0-0.2-0.1-0.2h-2.2c-1.9,0-2.8,0.5-2.8,1.8c0,1.1,0.8,1.6,2.2,1.6
		C107.8,41.1,108.6,40.4,108.6,38.9z"/>
	<path class="st2" d="M119.2,44.1c-0.2,0-0.3-0.1-0.4-0.3l-5.6-15c-0.1-0.2,0-0.3,0.3-0.3h4.1c0.2,0,0.4,0.1,0.4,0.3l3,9.3h0.1
		l2.9-9.3c0.1-0.2,0.2-0.3,0.4-0.3h4c0.2,0,0.3,0.1,0.3,0.3l-5.6,15c-0.1,0.2-0.2,0.3-0.4,0.3H119.2z"/>
	<path class="st2" d="M128.9,40c-0.3-1-0.6-2.1-0.6-3.7c0-1.7,0.2-2.8,0.5-3.8c0.9-2.8,3.4-4.4,6.7-4.4c3.5,0,5.9,1.7,6.8,4.4
		c0.3,1,0.5,2.2,0.5,4.8c0,0.2-0.1,0.3-0.4,0.3h-9.5c-0.1,0-0.2,0.1-0.2,0.2c0,0.3,0.1,0.6,0.2,0.9c0.4,1.4,1.6,2.1,3.2,2.1
		c1.6,0,2.7-0.6,3.6-1.4c0.2-0.1,0.3-0.2,0.5,0l2.1,2c0.2,0.1,0.2,0.3,0,0.5c-1.5,1.6-3.8,2.6-6.7,2.6
		C132.3,44.5,129.8,42.8,128.9,40z M138.2,34.6c0.1,0,0.2-0.1,0.2-0.2c0-0.5-0.1-0.8-0.2-1.2c-0.4-1.1-1.3-1.7-2.6-1.7
		c-1.3,0-2.3,0.6-2.6,1.7c-0.1,0.3-0.2,0.7-0.2,1.2c0,0.1,0.1,0.2,0.2,0.2H138.2z"/>
	<path class="st2" d="M154.1,44.1c-0.2,0-0.3-0.1-0.3-0.3v-9c0-1.7-0.8-2.9-2.4-2.9c-1.6,0-2.5,1.1-2.5,2.9v9c0,0.2-0.2,0.3-0.4,0.3
		h-3.9c-0.2,0-0.4-0.1-0.4-0.3v-15c0-0.2,0.2-0.3,0.4-0.3h3.9c0.2,0,0.4,0.1,0.4,0.3v1.1l0,0c0.7-0.9,2-1.8,4.1-1.8
		c3.5,0,5.4,2.4,5.4,5.9v9.9c0,0.2-0.1,0.3-0.3,0.3L154.1,44.1L154.1,44.1z"/>
	<path class="st2" d="M165.4,44.3c-3.6,0-5-1.6-5-5.2V32c0-0.1,0-0.2-0.1-0.2h-1c-0.2,0-0.4-0.1-0.4-0.3v-2.7c0-0.2,0.2-0.3,0.4-0.3
		h1c0.1,0,0.1-0.1,0.1-0.2V24c0-0.2,0.2-0.4,0.4-0.4h3.9c0.2,0,0.3,0.2,0.3,0.4v4.2c0,0.1,0.1,0.2,0.2,0.2h2c0.2,0,0.3,0.1,0.3,0.3
		v2.7c0,0.2-0.1,0.3-0.3,0.3h-2c-0.1,0-0.2,0.1-0.2,0.2v6.9c0,1.2,0.4,1.5,1.5,1.5h0.8c0.2,0,0.3,0.2,0.3,0.4V44
		c0,0.2-0.1,0.3-0.3,0.3H165.4z"/>
	<path class="st2" d="M202,44.1c-0.2,0-0.4-0.1-0.4-0.3v-9c0-1.7-0.8-2.9-2.4-2.9c-1.6,0-2.5,1.1-2.5,2.9v9c0,0.2-0.1,0.3-0.3,0.3
		h-3.9c-0.2,0-0.3-0.1-0.3-0.3v-15c0-0.2,0.1-0.3,0.3-0.3h3.9c0.2,0,0.3,0.1,0.3,0.3v1.1h0.1c0.7-0.9,2.1-1.8,4.1-1.8
		c3.5,0,5.4,2.4,5.4,5.8v9.9c0,0.2-0.2,0.3-0.4,0.3H202z"/>
	<path class="st2" d="M207.9,40c-0.3-1-0.6-2.1-0.6-3.7c0-1.7,0.2-2.8,0.5-3.8c0.9-2.8,3.4-4.4,6.7-4.4c3.5,0,5.9,1.7,6.8,4.4
		c0.3,1,0.5,2.2,0.5,4.8c0,0.2-0.1,0.3-0.4,0.3h-9.5c-0.1,0-0.2,0.1-0.2,0.2c0,0.3,0.1,0.6,0.2,0.9c0.4,1.4,1.6,2.1,3.2,2.1
		s2.7-0.6,3.6-1.4c0.2-0.1,0.3-0.2,0.5,0l2.1,2c0.2,0.1,0.2,0.3,0,0.5c-1.5,1.6-3.8,2.6-6.7,2.6C211.2,44.5,208.9,42.8,207.9,40z
		 M217.2,34.6c0.1,0,0.2-0.1,0.2-0.2c0-0.5-0.1-0.8-0.2-1.2c-0.4-1.1-1.3-1.7-2.6-1.7c-1.3,0-2.3,0.6-2.6,1.7
		c-0.1,0.3-0.2,0.7-0.2,1.2c0,0.1,0.1,0.2,0.2,0.2H217.2z"/>
	<path class="st2" d="M222.5,42c-0.1-0.1-0.1-0.3,0-0.5l2.1-2.4c0.1-0.1,0.3-0.1,0.5,0c1.4,1.1,3.2,1.7,4.8,1.7
		c1.7,0,2.4-0.6,2.4-1.5c0-0.7-0.4-1.2-2.2-1.4l-1.7-0.2c-3.3-0.3-5.1-2-5.1-4.8c0-3.1,2.4-5,6.4-5c2.7,0,4.9,0.8,6.3,1.9
		c0.1,0.1,0.2,0.3,0,0.5l-1.8,2.2c-0.1,0.2-0.3,0.2-0.5,0.1c-1.1-0.7-2.6-1.3-4.2-1.3c-1.3,0-2,0.5-2,1.3c0,0.7,0.4,1.1,2.2,1.3
		l1.7,0.2c3.7,0.4,5.2,2.1,5.2,4.8c0,3.2-2.5,5.4-7,5.4C226.4,44.5,224,43.3,222.5,42z"/>
</g>
</svg>
